SplineFontDB: 3.0
FontName: Raleway-Thin
FullName: Raleway Thin
FamilyName: Raleway
Weight: Light
Copyright: Matt McInerney
Version: 1.0
ItalicAngle: 0
UnderlinePosition: -51.2
UnderlineWidth: 51.2
Ascent: 768
Descent: 256
sfntRevision: 0x00010000
LayerCount: 2
Layer: 0 1 "Back"  1
Layer: 1 1 "Fore"  0
XUID: [1021 496 529952750 1984711]
FSType: 4
OS2Version: 3
OS2_WeightWidthSlopeOnly: 0
OS2_UseTypoMetrics: 1
CreationTime: 1249200888
ModificationTime: 1291112300
PfmFamily: 81
TTFWeight: 250
TTFWidth: 5
LineGap: 0
VLineGap: 0
Panose: 0 0 0 0 0 0 0 0 0 0
OS2TypoAscent: 0
OS2TypoAOffset: 1
OS2TypoDescent: 0
OS2TypoDOffset: 1
OS2TypoLinegap: 0
OS2WinAscent: 0
OS2WinAOffset: 1
OS2WinDescent: 0
OS2WinDOffset: 1
HheadAscent: -172
HheadAOffset: 1
HheadDescent: -28
HheadDOffset: 1
OS2SubXSize: 717
OS2SubYSize: 666
OS2SubXOff: 0
OS2SubYOff: 143
OS2SupXSize: 717
OS2SupYSize: 666
OS2SupXOff: 0
OS2SupYOff: 488
OS2StrikeYSize: 51
OS2StrikeYPos: 256
OS2Vendor: 'pyrs'
OS2CodePages: 20000011.00000000
OS2UnicodeRanges: 80000027.4800004a.14000000.00000000
Lookup: 1 0 0 "'aalt' Access All Alternates in Latin lookup 0"  {"'aalt' Access All Alternates in Latin lookup 0 subtable"  } ['aalt' ('latn' <'dflt' > ) ]
Lookup: 3 0 0 "'aalt' Access All Alternates in Latin lookup 1"  {"'aalt' Access All Alternates in Latin lookup 1 subtable"  } ['aalt' ('latn' <'dflt' > ) ]
Lookup: 1 0 0 "'smcp' Lowercase to Small Capitals in Latin lookup 2"  {"'smcp' Lowercase to Small Capitals in Latin lookup 2 subtable"  } ['smcp' ('latn' <'dflt' > ) ]
Lookup: 1 0 0 "'lnum' Lining Figures in Latin lookup 3"  {"'lnum' Lining Figures in Latin lookup 3 subtable"  } ['lnum' ('latn' <'dflt' > ) ]
Lookup: 1 0 0 "'onum' Oldstyle Figures in Latin lookup 4"  {"'onum' Oldstyle Figures in Latin lookup 4 subtable" ("oldstyle" ) } ['onum' ('latn' <'dflt' > ) ]
Lookup: 1 0 0 "'salt' Stylistic Alternatives in Latin lookup 5"  {"'salt' Stylistic Alternatives in Latin lookup 5 subtable"  } ['salt' ('latn' <'dflt' > ) ]

StartChar: B
Encoding: 66 66 11
Width: 649
Flags: W
HStem: 0 20<96 465.884> 356 21<96 443.748> 707 20<96 445.699>
VStem: 76 20<20 356 377 707> 543 20<486.252 601.452> 573 21<132.518 248.565>
LayerCount: 2
Fore
SplineSet
594 188 m 1,0,1
 592 150 592 150 577.5 116.5 c 128,-1,2
 563 83 563 83 539 57 c 128,-1,3
 515 31 515 31 482.5 15.5 c 128,-1,4
 450 0 450 0 413 0 c 2,5,-1
 76 0 l 1,6,-1
 76 727 l 1,7,-1
 397 727 l 2,8,9
 435 727 435 727 466 710.5 c 128,-1,10
 497 694 497 694 518.5 668 c 128,-1,11
 540 642 540 642 551.5 608.5 c 128,-1,12
 563 575 563 575 563 542 c 0,13,14
 563 487 563 487 535 440.5 c 128,-1,15
 507 394 507 394 459 373 c 1,16,17
 490 364 490 364 515 345.5 c 128,-1,18
 540 327 540 327 557.5 302.5 c 128,-1,19
 575 278 575 278 584.5 248.5 c 128,-1,20
 594 219 594 219 594 188 c 1,0,1
573 188 m 0,21,22
 573 221 573 221 561.5 251.5 c 128,-1,23
 550 282 550 282 529.5 305.5 c 128,-1,24
 509 329 509 329 481 342.5 c 128,-1,25
 453 356 453 356 420 356 c 2,26,-1
 96 356 l 1,27,-1
 96 20 l 1,28,-1
 413 20 l 2,29,30
 447 20 447 20 476 34.5 c 128,-1,31
 505 49 505 49 527 72.5 c 128,-1,32
 549 96 549 96 561 126 c 128,-1,33
 573 156 573 156 573 188 c 0,21,22
96 707 m 1,34,-1
 96 377 l 1,35,-1
 391 377 l 2,36,37
 425 377 425 377 452.5 391.5 c 128,-1,38
 480 406 480 406 500 429.5 c 128,-1,39
 520 453 520 453 531.5 482 c 128,-1,40
 543 511 543 511 543 542 c 0,41,42
 543 575 543 575 532 604.5 c 128,-1,43
 521 634 521 634 502 656.5 c 128,-1,44
 483 679 483 679 456 692.5 c 128,-1,45
 429 706 429 706 397 707 c 1,46,-1
 96 707 l 1,34,-1
EndSplineSet
EndChar

StartChar: B.sc
Encoding: 65539 -1 12
Width: 506
Flags: W
HStem: 0 20<103 348.258> 257 23<103 347.088> 511 20<103 327.496>
VStem: 83 20<20 257 280 511> 410 20<342.959 444.662> 424 20<84.7534 191.459>
LayerCount: 2
Fore
SplineSet
342 270 m 1,0,1
 389 257 389 257 416.5 224 c 128,-1,2
 444 191 444 191 444 139 c 0,3,4
 444 112 444 112 437.5 87 c 128,-1,5
 431 62 431 62 412 43 c 128,-1,6
 393 24 393 24 357.5 12 c 128,-1,7
 322 0 322 0 263 0 c 2,8,-1
 83 0 l 1,9,-1
 83 531 l 1,10,-1
 241 531 l 2,11,12
 293 531 293 531 329 521.5 c 128,-1,13
 365 512 365 512 387.5 493.5 c 128,-1,14
 410 475 410 475 420 449.5 c 128,-1,15
 430 424 430 424 430 392 c 2,16,-1
 430 391 l 2,17,18
 430 347 430 347 408.5 315 c 128,-1,19
 387 283 387 283 342 270 c 1,0,1
103 280 m 1,20,-1
 250 280 l 2,21,22
 339 280 339 280 374.5 309 c 128,-1,23
 410 338 410 338 410 392 c 2,24,-1
 410 393 l 2,25,26
 410 420 410 420 401.5 441.5 c 128,-1,27
 393 463 393 463 374 478.5 c 128,-1,28
 355 494 355 494 322.5 502.5 c 128,-1,29
 290 511 290 511 241 511 c 2,30,-1
 103 511 l 1,31,-1
 103 280 l 1,20,-1
272 20 m 2,32,33
 304 20 304 20 331.5 25.5 c 128,-1,34
 359 31 359 31 379.5 44.5 c 128,-1,35
 400 58 400 58 412 80.5 c 128,-1,36
 424 103 424 103 424 139 c 0,37,38
 424 179 424 179 408 202.5 c 128,-1,39
 392 226 392 226 366.5 238.5 c 128,-1,40
 341 251 341 251 307.5 254 c 128,-1,41
 274 257 274 257 241 257 c 2,42,-1
 103 257 l 1,43,-1
 103 20 l 1,44,-1
 272 20 l 2,32,33
EndSplineSet
EndChar

StartChar: C
Encoding: 67 67 13
Width: 717
Flags: W
HStem: -6 20<317.227 458.836> 711 20<303.746 465.383>
VStem: 49 21<276.081 450.658>
LayerCount: 2
Fore
SplineSet
49 362 m 0,0,1
 49 433 49 433 73.5 499.5 c 128,-1,2
 98 566 98 566 141.5 618 c 128,-1,3
 185 670 185 670 246 700.5 c 128,-1,4
 307 731 307 731 380 731 c 0,5,6
 436 731 436 731 480 719.5 c 128,-1,7
 524 708 524 708 558 687 c 128,-1,8
 592 666 592 666 616 636.5 c 128,-1,9
 640 607 640 607 657 572 c 1,10,-1
 638 566 l 1,11,12
 596 643 596 643 530.5 677 c 128,-1,13
 465 711 465 711 380 711 c 0,14,15
 308 711 308 711 251 680.5 c 128,-1,16
 194 650 194 650 153.5 601 c 128,-1,17
 113 552 113 552 91.5 489.5 c 128,-1,18
 70 427 70 427 70 362 c 0,19,20
 70 293 70 293 95 230.5 c 128,-1,21
 120 168 120 168 164 120 c 128,-1,22
 208 72 208 72 266.5 43 c 128,-1,23
 325 14 325 14 392 14 c 0,24,25
 426 14 426 14 466.5 26 c 128,-1,26
 507 38 507 38 545 58.5 c 128,-1,27
 583 79 583 79 613 107 c 128,-1,28
 643 135 643 135 655 168 c 1,29,-1
 675 163 l 1,30,31
 661 123 661 123 629 91.5 c 128,-1,32
 597 60 597 60 557 38 c 128,-1,33
 517 16 517 16 473.5 5 c 128,-1,34
 430 -6 430 -6 392 -6 c 0,35,36
 316 -6 316 -6 253 26 c 128,-1,37
 190 58 190 58 144.5 110.5 c 128,-1,38
 99 163 99 163 74 228.5 c 128,-1,39
 49 294 49 294 49 362 c 0,0,1
EndSplineSet
EndChar

StartChar: C.sc
Encoding: 65540 -1 14
Width: 566
Flags: W
HStem: -10 20<247.207 373.82> 515 21<231.479 377.673>
VStem: 55 21<186.932 339.479>
LayerCount: 2
Fore
SplineSet
139 61 m 0,0,1
 102 96 102 96 78.5 147 c 128,-1,2
 55 198 55 198 55 263 c 0,3,4
 55 310 55 310 70.5 359 c 128,-1,5
 86 408 86 408 116.5 447 c 128,-1,6
 147 486 147 486 193.5 511 c 128,-1,7
 240 536 240 536 300 536 c 0,8,9
 361 536 361 536 400.5 518 c 128,-1,10
 440 500 440 500 463 478 c 128,-1,11
 486 456 486 456 496 437.5 c 128,-1,12
 506 419 506 419 507 418 c 1,13,-1
 487 412 l 1,14,-1
 488 412 l 1,15,-1
 487 412 l 1,16,17
 465 455 465 455 420.5 485 c 128,-1,18
 376 515 376 515 300 515 c 0,19,20
 244 515 244 515 202 492 c 128,-1,21
 160 469 160 469 131.5 432.5 c 128,-1,22
 103 396 103 396 89.5 351 c 128,-1,23
 76 306 76 306 76 263 c 0,24,25
 76 203 76 203 97.5 156 c 128,-1,26
 119 109 119 109 152.5 76.5 c 128,-1,27
 186 44 186 44 227.5 27 c 128,-1,28
 269 10 269 10 309 10 c 0,29,30
 346 10 346 10 379 21.5 c 128,-1,31
 412 33 412 33 437 50 c 128,-1,32
 462 67 462 67 478.5 86 c 128,-1,33
 495 105 495 105 500 121 c 1,34,-1
 519 116 l 1,35,36
 514 98 514 98 496.5 75.5 c 128,-1,37
 479 53 479 53 451 34 c 128,-1,38
 423 15 423 15 386.5 2.5 c 128,-1,39
 350 -10 350 -10 309 -10 c 0,40,41
 266 -10 266 -10 221 7.5 c 128,-1,42
 176 25 176 25 139 61 c 0,0,1
EndSplineSet
EndChar

StartChar: A
Encoding: 65 65 15
Width: 703
Flags: W
HStem: 0 21G<26 56.7692 646.308 678> 260 21<170 532> 707 20G<334.279 369.721>
LayerCount: 2
Fore
SplineSet
26 0 m 1,0,-1
 343 727 l 1,1,-1
 361 727 l 1,2,-1
 678 0 l 1,3,-1
 655 0 l 1,4,-1
 542 260 l 1,5,-1
 162 260 l 1,6,-1
 48 0 l 1,7,-1
 26 0 l 1,0,-1
352 697 m 1,8,-1
 170 281 l 1,9,-1
 532 281 l 1,10,-1
 352 697 l 1,8,-1
EndSplineSet
EndChar

StartChar: D
Encoding: 68 68 17
Width: 703
Flags: W
HStem: 0 20<97 399.04> 707 20<97 399.414>
VStem: 77 20<20 707> 631 20<276.233 458.193>
LayerCount: 2
Fore
SplineSet
77 0 m 1,0,-1
 77 727 l 1,1,-1
 310 727 l 2,2,3
 396 727 396 727 460 698.5 c 128,-1,4
 524 670 524 670 566.5 620.5 c 128,-1,5
 609 571 609 571 630 505 c 128,-1,6
 651 439 651 439 651 365 c 0,7,8
 651 282 651 282 627 214.5 c 128,-1,9
 603 147 603 147 559 99.5 c 128,-1,10
 515 52 515 52 451.5 26 c 128,-1,11
 388 0 388 0 310 0 c 2,12,-1
 77 0 l 1,0,-1
631 365 m 1,13,14
 630 442 630 442 608.5 504.5 c 128,-1,15
 587 567 587 567 546.5 612 c 128,-1,16
 506 657 506 657 446.5 682 c 128,-1,17
 387 707 387 707 310 707 c 2,18,-1
 97 707 l 1,19,-1
 97 20 l 1,20,-1
 310 20 l 2,21,22
 389 20 389 20 448.5 46 c 128,-1,23
 508 72 508 72 548 118 c 128,-1,24
 588 164 588 164 608.5 227 c 128,-1,25
 629 290 629 290 631 365 c 1,13,14
EndSplineSet
EndChar

StartChar: D.sc
Encoding: 65541 -1 18
Width: 555
Flags: W
HStem: 0 20<103 324.891> 511 20<103 327.165>
VStem: 83 20<20 511> 477 21<176.237 356.454>
LayerCount: 2
Fore
SplineSet
252 531 m 2,0,1
 313 531 313 531 359.5 512.5 c 128,-1,2
 406 494 406 494 436.5 459.5 c 128,-1,3
 467 425 467 425 482.5 376 c 128,-1,4
 498 327 498 327 498 266 c 0,5,6
 498 136 498 136 432.5 68 c 128,-1,7
 367 0 367 0 252 0 c 2,8,-1
 83 0 l 1,9,-1
 83 531 l 1,10,-1
 252 531 l 2,0,1
417 83 m 1,11,12
 447 113 447 113 462 159 c 128,-1,13
 477 205 477 205 477 266 c 0,14,15
 477 389 477 389 417 450 c 128,-1,16
 357 511 357 511 252 511 c 2,17,-1
 103 511 l 1,18,-1
 103 20 l 1,19,-1
 252 20 l 2,20,21
 358 21 358 21 417 83 c 1,11,12
EndSplineSet
EndChar

StartChar: E
Encoding: 69 69 19
Width: 553
Flags: W
HStem: 0 20<97 554> 361 21<97 489> 707 20<97 545>
VStem: 77 20<20 361 382 707>
LayerCount: 2
Fore
SplineSet
554 20 m 1,0,-1
 554 0 l 1,1,-1
 77 0 l 1,2,-1
 77 727 l 1,3,-1
 545 727 l 1,4,-1
 545 707 l 1,5,-1
 97 707 l 1,6,-1
 97 382 l 1,7,-1
 489 382 l 1,8,-1
 489 361 l 1,9,-1
 97 361 l 1,10,-1
 97 20 l 1,11,-1
 554 20 l 1,0,-1
EndSplineSet
EndChar

StartChar: E.sc
Encoding: 65542 -1 20
Width: 457
Flags: W
HStem: 0 20<103 458> 261 21<103 393> 511 20<103 449>
VStem: 83 20<20 261 282 511>
LayerCount: 2
Fore
SplineSet
458 20 m 1,0,-1
 458 0 l 1,1,-1
 83 0 l 1,2,-1
 83 531 l 1,3,-1
 449 531 l 1,4,-1
 449 511 l 1,5,-1
 103 511 l 1,6,-1
 103 282 l 1,7,-1
 393 282 l 1,8,-1
 393 261 l 1,9,-1
 103 261 l 1,10,-1
 103 20 l 1,11,-1
 458 20 l 1,0,-1
EndSplineSet
EndChar

StartChar: Eth
Encoding: 208 208 25
Width: 785
Flags: W
HStem: 0 20<176 478.04> 355 21<37 327> 707 20<176 478.414>
VStem: 156 20<20 707> 710 20<276.233 458.193>
LayerCount: 2
Fore
SplineSet
156 0 m 1,0,-1
 156 727 l 1,1,-1
 389 727 l 2,2,3
 475 727 475 727 539 698.5 c 128,-1,4
 603 670 603 670 645.5 620.5 c 128,-1,5
 688 571 688 571 709 505 c 128,-1,6
 730 439 730 439 730 365 c 0,7,8
 730 282 730 282 706 214.5 c 128,-1,9
 682 147 682 147 638 99.5 c 128,-1,10
 594 52 594 52 530.5 26 c 128,-1,11
 467 0 467 0 389 0 c 2,12,-1
 156 0 l 1,0,-1
710 365 m 1,13,14
 709 442 709 442 687.5 504.5 c 128,-1,15
 666 567 666 567 625.5 612 c 128,-1,16
 585 657 585 657 525.5 682 c 128,-1,17
 466 707 466 707 389 707 c 2,18,-1
 176 707 l 1,19,-1
 176 20 l 1,20,-1
 389 20 l 2,21,22
 468 20 468 20 527.5 46 c 128,-1,23
 587 72 587 72 627 118 c 128,-1,24
 667 164 667 164 687.5 227 c 128,-1,25
 708 290 708 290 710 365 c 1,13,14
37 355 m 1,26,-1
 37 376 l 1,27,-1
 327 376 l 1,28,-1
 327 355 l 1,29,-1
 37 355 l 1,26,-1
EndSplineSet
EndChar

StartChar: Euro
Encoding: 8364 8364 26
Width: 809
Flags: W
HStem: -6 20<401.51 542.836> 298 20<39 136 160 523> 390 21<80 134 157 564> 711 20<387.447 549.383>
VStem: 136 21<266.938 298 318 390 411 463.355>
LayerCount: 2
Fore
SplineSet
70 390 m 1,0,-1
 80 411 l 1,1,-1
 136 411 l 1,2,3
 143 474 143 474 171 532.5 c 128,-1,4
 199 591 199 591 242 635 c 128,-1,5
 285 679 285 679 341 705 c 128,-1,6
 397 731 397 731 464 731 c 0,7,8
 520 731 520 731 564 719.5 c 128,-1,9
 608 708 608 708 642 687 c 128,-1,10
 676 666 676 666 700 636.5 c 128,-1,11
 724 607 724 607 741 572 c 1,12,-1
 722 566 l 1,13,14
 680 643 680 643 614.5 677 c 128,-1,15
 549 711 549 711 464 711 c 0,16,17
 398 711 398 711 345 685.5 c 128,-1,18
 292 660 292 660 252.5 618.5 c 128,-1,19
 213 577 213 577 188.5 523 c 128,-1,20
 164 469 164 469 157 411 c 1,21,-1
 574 411 l 1,22,-1
 564 390 l 1,23,-1
 155 390 l 1,24,25
 154 383 154 383 154 376.5 c 128,-1,26
 154 370 154 370 154 362 c 0,27,28
 154 339 154 339 157 318 c 1,29,-1
 534 318 l 1,30,-1
 523 298 l 1,31,-1
 160 298 l 1,32,33
 170 240 170 240 198.5 188 c 128,-1,34
 227 136 227 136 269 97.5 c 128,-1,35
 311 59 311 59 364 36.5 c 128,-1,36
 417 14 417 14 476 14 c 0,37,38
 510 14 510 14 550.5 26 c 128,-1,39
 591 38 591 38 629 58.5 c 128,-1,40
 667 79 667 79 697 107 c 128,-1,41
 727 135 727 135 739 168 c 1,42,-1
 759 163 l 1,43,44
 745 123 745 123 713 91.5 c 128,-1,45
 681 60 681 60 641 38 c 128,-1,46
 601 16 601 16 557.5 5 c 128,-1,47
 514 -6 514 -6 476 -6 c 0,48,49
 409 -6 409 -6 352 19 c 128,-1,50
 295 44 295 44 251.5 86.5 c 128,-1,51
 208 129 208 129 179 184 c 128,-1,52
 150 239 150 239 139 298 c 1,53,-1
 29 298 l 1,54,-1
 39 318 l 1,55,-1
 136 318 l 1,56,57
 133 340 133 340 133 362 c 0,58,59
 133 369 133 369 133 376 c 128,-1,60
 133 383 133 383 134 390 c 1,61,-1
 70 390 l 1,0,-1
EndSplineSet
EndChar

StartChar: F
Encoding: 70 70 27
Width: 544
Flags: W
HStem: 0 21G<77 97> 362 21<97 489> 707 20<97 545>
VStem: 77 20<0 362 383 707>
LayerCount: 2
Fore
SplineSet
77 0 m 1,0,-1
 77 727 l 1,1,-1
 545 727 l 1,2,-1
 545 707 l 1,3,-1
 97 707 l 1,4,-1
 97 383 l 1,5,-1
 489 383 l 1,6,-1
 489 362 l 1,7,-1
 97 362 l 1,8,-1
 97 0 l 1,9,-1
 77 0 l 1,0,-1
EndSplineSet
EndChar

StartChar: F.sc
Encoding: 65543 -1 28
Width: 428
Flags: W
HStem: 0 21G<83 103> 263 21<103 373> 510 20<103 428>
VStem: 83 20<0 263 284 510>
LayerCount: 2
Fore
SplineSet
83 0 m 1,0,-1
 83 530 l 1,1,-1
 428 530 l 1,2,-1
 428 510 l 1,3,-1
 103 510 l 1,4,-1
 103 284 l 1,5,-1
 373 284 l 1,6,-1
 373 263 l 1,7,-1
 103 263 l 1,8,-1
 103 0 l 1,9,-1
 83 0 l 1,0,-1
EndSplineSet
EndChar

StartChar: G
Encoding: 71 71 29
Width: 737
Flags: W
HStem: -5 20<318.227 464.987> 326 20<484 655> 712 20<304.746 466.383>
VStem: 50 21<277.876 451.044> 655 21<0 124 142.734 326>
LayerCount: 2
Fore
SplineSet
676 346 m 1,0,-1
 676 0 l 1,1,-1
 655 0 l 1,2,-1
 655 124 l 1,3,4
 603 63 603 63 535.5 29 c 128,-1,5
 468 -5 468 -5 393 -5 c 0,6,7
 317 -5 317 -5 254 27 c 128,-1,8
 191 59 191 59 145.5 111.5 c 128,-1,9
 100 164 100 164 75 230 c 128,-1,10
 50 296 50 296 50 364 c 0,11,12
 50 435 50 435 74.5 501 c 128,-1,13
 99 567 99 567 142.5 619 c 128,-1,14
 186 671 186 671 247 701.5 c 128,-1,15
 308 732 308 732 381 732 c 0,16,17
 437 732 437 732 481 720.5 c 128,-1,18
 525 709 525 709 559 688 c 128,-1,19
 593 667 593 667 617 637.5 c 128,-1,20
 641 608 641 608 658 573 c 1,21,-1
 639 567 l 1,22,23
 597 644 597 644 531.5 678 c 128,-1,24
 466 712 466 712 381 712 c 0,25,26
 309 712 309 712 252 681.5 c 128,-1,27
 195 651 195 651 154.5 602 c 128,-1,28
 114 553 114 553 92.5 490.5 c 128,-1,29
 71 428 71 428 71 364 c 0,30,31
 71 295 71 295 96 232 c 128,-1,32
 121 169 121 169 165 121 c 128,-1,33
 209 73 209 73 267.5 44 c 128,-1,34
 326 15 326 15 393 15 c 0,35,36
 428 15 428 15 470 26 c 128,-1,37
 512 37 512 37 550 57 c 128,-1,38
 588 77 588 77 616.5 105 c 128,-1,39
 645 133 645 133 655 168 c 1,40,-1
 655 326 l 1,41,-1
 484 326 l 1,42,-1
 484 346 l 1,43,-1
 676 346 l 1,0,-1
EndSplineSet
Substitution2: "'salt' Stylistic Alternatives in Latin lookup 5 subtable" G.alt
Substitution2: "'aalt' Access All Alternates in Latin lookup 0 subtable" G.alt
EndChar

StartChar: G.alt
Encoding: 65544 -1 30
Width: 773
Flags: W
HStem: -5 20<320.747 469.219> 316 21<458 710> 712 20<318.526 470.607>
VStem: 56 21<284.79 448.771>
LayerCount: 2
Fore
SplineSet
458 337 m 1,0,-1
 732 337 l 1,1,2
 732 332 732 332 731.5 328.5 c 128,-1,3
 731 325 731 325 730 319 c 1,4,-1
 730 316 l 1,5,6
 722 250 722 250 693.5 192.5 c 128,-1,7
 665 135 665 135 620 91.5 c 128,-1,8
 575 48 575 48 518 22 c 128,-1,9
 461 -4 461 -4 395 -5 c 1,10,11
 319 -3 319 -3 257.5 28.5 c 128,-1,12
 196 60 196 60 150.5 111.5 c 128,-1,13
 105 163 105 163 80.5 228.5 c 128,-1,14
 56 294 56 294 56 364 c 0,15,16
 56 437 56 437 82.5 503 c 128,-1,17
 109 569 109 569 154.5 620.5 c 128,-1,18
 200 672 200 672 262 702 c 128,-1,19
 324 732 324 732 395 732 c 0,20,21
 440 732 440 732 480.5 720.5 c 128,-1,22
 521 709 521 709 556.5 687.5 c 128,-1,23
 592 666 592 666 621 636 c 128,-1,24
 650 606 650 606 672 571 c 1,25,-1
 657 557 l 1,26,27
 615 626 615 626 546.5 669 c 128,-1,28
 478 712 478 712 395 712 c 0,29,30
 324 712 324 712 265.5 681.5 c 128,-1,31
 207 651 207 651 165 602 c 128,-1,32
 123 553 123 553 100 490.5 c 128,-1,33
 77 428 77 428 77 364 c 1,34,35
 79 296 79 296 103 233 c 128,-1,36
 127 170 127 170 169 121.5 c 128,-1,37
 211 73 211 73 268.5 44 c 128,-1,38
 326 15 326 15 395 15 c 0,39,40
 460 15 460 15 514 40.5 c 128,-1,41
 568 66 568 66 609 108 c 128,-1,42
 650 150 650 150 675.5 204 c 128,-1,43
 701 258 701 258 710 316 c 1,44,-1
 458 316 l 1,45,-1
 458 337 l 1,0,-1
EndSplineSet
EndChar

StartChar: G.sc
Encoding: 65545 -1 31
Width: 585
Flags: W
HStem: -10 20<248.331 374.816> 0 21G<500 520> 233 21<377 500> 517 21<232.347 377.731>
VStem: 55 21<186.49 340.093> 500 20<0 80 100.216 233>
LayerCount: 2
Fore
SplineSet
520 0 m 1,0,-1
 500 0 l 1,1,-1
 500 80 l 2,2,3
 500 79 500 79 498 77 c 0,4,5
 485 62 485 62 465.5 46 c 128,-1,6
 446 30 446 30 422.5 17.5 c 128,-1,7
 399 5 399 5 370.5 -2.5 c 128,-1,8
 342 -10 342 -10 310 -10 c 0,9,10
 266 -10 266 -10 220.5 8.5 c 128,-1,11
 175 27 175 27 138 62 c 128,-1,12
 101 97 101 97 78 148 c 128,-1,13
 55 199 55 199 55 263 c 0,14,15
 55 307 55 307 69.5 355.5 c 128,-1,16
 84 404 84 404 114 444.5 c 128,-1,17
 144 485 144 485 190.5 511.5 c 128,-1,18
 237 538 237 538 301 538 c 0,19,20
 362 538 362 538 402 519.5 c 128,-1,21
 442 501 442 501 465 479 c 128,-1,22
 488 457 488 457 497.5 438.5 c 128,-1,23
 507 420 507 420 508 419 c 1,24,-1
 488 413 l 2,25,26
 486 413 486 413 487 413 c 128,-1,27
 488 413 488 413 486 417 c 0,28,29
 484 420 484 420 475 436.5 c 128,-1,30
 466 453 466 453 445 470.5 c 128,-1,31
 424 488 424 488 389 502.5 c 128,-1,32
 354 517 354 517 301 517 c 0,33,34
 245 517 245 517 202.5 494 c 128,-1,35
 160 471 160 471 131.5 434.5 c 128,-1,36
 103 398 103 398 89.5 352.5 c 128,-1,37
 76 307 76 307 76 263 c 0,38,39
 76 203 76 203 98 156 c 128,-1,40
 120 109 120 109 153.5 76.5 c 128,-1,41
 187 44 187 44 228.5 27 c 128,-1,42
 270 10 270 10 310 10 c 0,43,44
 349 10 349 10 382 22.5 c 128,-1,45
 415 35 415 35 440 52 c 128,-1,46
 465 69 465 69 480.5 87.5 c 128,-1,47
 496 106 496 106 500 120 c 1,48,-1
 500 233 l 1,49,-1
 377 233 l 1,50,-1
 377 254 l 1,51,-1
 520 254 l 1,52,-1
 520 195 l 1,53,-1
 520 0 l 1,0,-1
EndSplineSet
EndChar

StartChar: H
Encoding: 72 72 32
Width: 700
Flags: W
HStem: 0 21G<78 98 603 624> 361 21<98 603> 707 20G<78 98 603 624>
VStem: 78 20<0 361 382 727> 603 21<0 361 382 727>
LayerCount: 2
Fore
SplineSet
624 727 m 1,0,-1
 624 0 l 1,1,-1
 603 0 l 1,2,-1
 603 361 l 1,3,-1
 98 361 l 1,4,-1
 98 0 l 1,5,-1
 78 0 l 1,6,-1
 78 727 l 1,7,-1
 98 727 l 1,8,-1
 98 382 l 1,9,-1
 603 382 l 1,10,-1
 603 727 l 1,11,-1
 624 727 l 1,0,-1
EndSplineSet
EndChar

StartChar: H.sc
Encoding: 65546 -1 33
Width: 567
Flags: W
HStem: 0 21G<83 103 465 485> 263 21<103 465> 511 20G<83 103 465 485>
VStem: 83 20<0 263 284 531> 465 20<0 263 284 531>
LayerCount: 2
Fore
SplineSet
485 531 m 1,0,-1
 485 0 l 1,1,-1
 465 0 l 1,2,-1
 465 263 l 1,3,-1
 103 263 l 1,4,-1
 103 0 l 1,5,-1
 83 0 l 1,6,-1
 83 531 l 1,7,-1
 103 531 l 1,8,-1
 103 284 l 1,9,-1
 465 284 l 1,10,-1
 465 531 l 1,11,-1
 485 531 l 1,0,-1
EndSplineSet
EndChar

StartChar: I
Encoding: 73 73 34
Width: 162
Flags: W
HStem: 0 21G<78 98> 706 20G<78 98>
VStem: 78 20<0 726>
LayerCount: 2
Fore
SplineSet
78 0 m 1,0,-1
 78 726 l 1,1,-1
 98 726 l 1,2,-1
 98 0 l 1,3,-1
 78 0 l 1,0,-1
EndSplineSet
EndChar

StartChar: I.sc
Encoding: 65547 -1 35
Width: 172
Flags: W
HStem: 0 21G<83 103> 511 20G<83 103>
VStem: 83 20<0 531>
LayerCount: 2
Fore
SplineSet
83 0 m 1,0,-1
 83 531 l 1,1,-1
 103 531 l 1,2,-1
 103 0 l 1,3,-1
 83 0 l 1,0,-1
EndSplineSet
EndChar

StartChar: J
Encoding: 74 74 40
Width: 442
Flags: W
HStem: -11 20<79.7587 230.82> 706 20G<352 373>
VStem: 352 21<179.5 726>
LayerCount: 2
Fore
SplineSet
0 34 m 1,0,-1
 11 50 l 1,1,2
 70 9 70 9 158 9 c 0,3,4
 224 9 224 9 262 33 c 128,-1,5
 300 57 300 57 320 101.5 c 128,-1,6
 340 146 340 146 346 210.5 c 128,-1,7
 352 275 352 275 352 357 c 2,8,-1
 352 726 l 1,9,-1
 373 726 l 1,10,-1
 373 357 l 2,11,12
 373 274 373 274 366 206 c 128,-1,13
 359 138 359 138 336.5 90 c 128,-1,14
 314 42 314 42 271.5 15.5 c 128,-1,15
 229 -11 229 -11 158 -11 c 0,16,17
 66 -11 66 -11 0 34 c 1,0,-1
EndSplineSet
EndChar

StartChar: J.sc
Encoding: 65548 -1 41
Width: 405
Flags: W
HStem: -11 20<73.9699 221.559> 511 20G<311 332>
VStem: 311 21<121.023 531>
LayerCount: 2
Fore
SplineSet
0 34 m 1,0,-1
 11 50 l 1,1,2
 41 30 41 30 72 19.5 c 128,-1,3
 103 9 103 9 147 9 c 0,4,5
 204 9 204 9 237 25 c 128,-1,6
 270 41 270 41 286.5 76.5 c 128,-1,7
 303 112 303 112 307 168 c 128,-1,8
 311 224 311 224 311 306 c 2,9,-1
 311 531 l 1,10,-1
 332 531 l 1,11,-1
 332 306 l 2,12,13
 332 223 332 223 327.5 163 c 128,-1,14
 323 103 323 103 304.5 64.5 c 128,-1,15
 286 26 286 26 249 7.5 c 128,-1,16
 212 -11 212 -11 147 -11 c 0,17,18
 100 -11 100 -11 66.5 0 c 128,-1,19
 33 11 33 11 0 34 c 1,0,-1
EndSplineSet
EndChar

StartChar: K
Encoding: 75 75 42
Width: 685
Flags: W
HStem: 0 21G<79 99 564.083 606> 706 21G<79 99 585.475 637>
VStem: 79 20<0 226 255 726>
LayerCount: 2
Fore
SplineSet
79 0 m 1,0,-1
 79 726 l 1,1,-1
 99 726 l 1,2,-1
 99 255 l 1,3,-1
 607 727 l 1,4,-1
 637 727 l 1,5,-1
 288 401 l 1,6,-1
 606 0 l 1,7,-1
 580 0 l 1,8,-1
 272 387 l 1,9,-1
 99 226 l 1,10,-1
 99 0 l 1,11,-1
 79 0 l 1,0,-1
EndSplineSet
EndChar

StartChar: K.sc
Encoding: 65549 -1 43
Width: 556
Flags: W
HStem: 0 21G<83 103 459.132 499> 511 20G<83 103 444.939 495>
VStem: 83 20<0 173 201 531>
LayerCount: 2
Fore
SplineSet
474 0 m 1,0,-1
 248 304 l 1,1,-1
 103 173 l 1,2,-1
 103 0 l 1,3,-1
 83 0 l 1,4,-1
 83 531 l 1,5,-1
 103 531 l 1,6,-1
 103 201 l 1,7,-1
 467 531 l 1,8,-1
 495 531 l 1,9,-1
 263 318 l 1,10,-1
 499 0 l 1,11,-1
 474 0 l 1,0,-1
EndSplineSet
EndChar

StartChar: L
Encoding: 76 76 44
Width: 556
Flags: W
HStem: 0 20<99 556> 707 20G<79 99>
VStem: 79 20<20 727>
LayerCount: 2
Fore
SplineSet
79 0 m 1,0,-1
 79 727 l 1,1,-1
 99 727 l 1,2,-1
 99 20 l 1,3,-1
 556 20 l 1,4,-1
 556 0 l 1,5,-1
 79 0 l 1,0,-1
EndSplineSet
EndChar

StartChar: L.sc
Encoding: 65550 -1 45
Width: 427
Flags: W
HStem: 0 20<103 427> 511 20G<83 103>
VStem: 83 20<20 531>
LayerCount: 2
Fore
SplineSet
83 0 m 1,0,-1
 83 531 l 1,1,-1
 103 531 l 1,2,-1
 103 20 l 1,3,-1
 427 20 l 1,4,-1
 427 0 l 1,5,-1
 83 0 l 1,0,-1
EndSplineSet
EndChar

StartChar: M
Encoding: 77 77 46
Width: 860
Flags: W
HStem: 0 21G<79 99 761 781> 707 20G<79 106.986 753.014 781>
VStem: 79 20<0 682> 761 20<0 682>
LayerCount: 2
Fore
SplineSet
761 0 m 1,0,-1
 761 682 l 1,1,-1
 438 143 l 1,2,-1
 422 143 l 1,3,-1
 99 682 l 1,4,-1
 99 0 l 1,5,-1
 79 0 l 1,6,-1
 79 727 l 1,7,-1
 95 727 l 1,8,-1
 430 168 l 1,9,-1
 765 727 l 1,10,-1
 781 727 l 1,11,-1
 781 0 l 1,12,-1
 761 0 l 1,0,-1
EndSplineSet
EndChar

StartChar: M.sc
Encoding: 65551 -1 47
Width: 649
Flags: W
HStem: 0 21G<83 103 547 567>
VStem: 83 20<0 490> 547 20<0 490>
LayerCount: 2
Fore
SplineSet
545 529 m 1,0,-1
 567 529 l 1,1,-1
 567 0 l 1,2,-1
 547 0 l 1,3,-1
 547 490 l 1,4,-1
 334 115 l 1,5,-1
 316 115 l 1,6,-1
 103 490 l 1,7,-1
 103 0 l 1,8,-1
 83 0 l 1,9,-1
 83 529 l 1,10,-1
 104 529 l 1,11,-1
 325 141 l 1,12,-1
 545 529 l 1,0,-1
EndSplineSet
EndChar

StartChar: N
Encoding: 78 78 48
Width: 751
Flags: W
HStem: 0 21G<80 100 632.047 672> 707 19G<80 110.954 651 672>
VStem: 80 20<0 687> 651 21<30 726>
LayerCount: 2
Fore
SplineSet
100 687 m 1,0,-1
 100 0 l 1,1,-1
 80 0 l 1,2,-1
 80 727 l 1,3,-1
 95 727 l 1,4,-1
 651 30 l 1,5,-1
 651 726 l 1,6,-1
 672 726 l 1,7,-1
 672 0 l 1,8,-1
 648 0 l 1,9,-1
 100 687 l 1,0,-1
EndSplineSet
EndChar

StartChar: N.sc
Encoding: 65552 -1 49
Width: 607
Flags: W
HStem: 0 21G<83 103 486.04 525>
VStem: 83 20<0 500> 505 20<30 529>
LayerCount: 2
Fore
SplineSet
103 0 m 1,0,-1
 83 0 l 1,1,-1
 83 529 l 1,2,-1
 106 529 l 1,3,-1
 505 30 l 1,4,-1
 505 529 l 1,5,-1
 525 529 l 1,6,-1
 525 0 l 1,7,-1
 502 0 l 1,8,-1
 103 500 l 1,9,-1
 103 0 l 1,0,-1
EndSplineSet
EndChar

StartChar: O
Encoding: 79 79 51
Width: 785
Flags: W
HStem: -5 20<318.747 468.844> 712 20<316.526 468.721>
VStem: 54 21<284.79 450.179> 711 20<279.684 448.114>
LayerCount: 2
Fore
SplineSet
393 -5 m 1,0,1
 317 -3 317 -3 255.5 28.5 c 128,-1,2
 194 60 194 60 148.5 111.5 c 128,-1,3
 103 163 103 163 78.5 228.5 c 128,-1,4
 54 294 54 294 54 364 c 0,5,6
 54 437 54 437 80 503 c 128,-1,7
 106 569 106 569 152 620.5 c 128,-1,8
 198 672 198 672 260 702 c 128,-1,9
 322 732 322 732 393 732 c 0,10,11
 468 732 468 732 530.5 700 c 128,-1,12
 593 668 593 668 637.5 615.5 c 128,-1,13
 682 563 682 563 706.5 497 c 128,-1,14
 731 431 731 431 731 364 c 0,15,16
 731 291 731 291 705 224.5 c 128,-1,17
 679 158 679 158 633.5 107 c 128,-1,18
 588 56 588 56 526.5 26 c 128,-1,19
 465 -4 465 -4 393 -5 c 1,0,1
75 364 m 1,20,21
 77 296 77 296 101 233 c 128,-1,22
 125 170 125 170 167 121.5 c 128,-1,23
 209 73 209 73 266.5 44 c 128,-1,24
 324 15 324 15 393 15 c 0,25,26
 464 15 464 15 523 45.5 c 128,-1,27
 582 76 582 76 623.5 125 c 128,-1,28
 665 174 665 174 688 236.5 c 128,-1,29
 711 299 711 299 711 364 c 0,30,31
 711 432 711 432 687 494.5 c 128,-1,32
 663 557 663 557 620 605.5 c 128,-1,33
 577 654 577 654 519 683 c 128,-1,34
 461 712 461 712 393 712 c 0,35,36
 322 712 322 712 263.5 681.5 c 128,-1,37
 205 651 205 651 163 602 c 128,-1,38
 121 553 121 553 98 491 c 128,-1,39
 75 429 75 429 75 364 c 1,20,21
EndSplineSet
EndChar

StartChar: O.sc
Encoding: 65553 -1 52
Width: 618
Flags: W
HStem: -10 20<243.821 373.042> 519 21<243.261 373.232>
VStem: 56 21<196.917 335.956> 542 20<194.248 334.787>
LayerCount: 2
Fore
SplineSet
309 -10 m 1,0,1
 253 -9 253 -9 206.5 14.5 c 128,-1,2
 160 38 160 38 126.5 76.5 c 128,-1,3
 93 115 93 115 74.5 163.5 c 128,-1,4
 56 212 56 212 56 264 c 0,5,6
 56 319 56 319 76 369.5 c 128,-1,7
 96 420 96 420 130.5 458 c 128,-1,8
 165 496 165 496 211 518 c 128,-1,9
 257 540 257 540 309 540 c 0,10,11
 366 540 366 540 413 515 c 128,-1,12
 460 490 460 490 493 451.5 c 128,-1,13
 526 413 526 413 544 363 c 128,-1,14
 562 313 562 313 562 264 c 0,15,16
 562 210 562 210 542.5 161 c 128,-1,17
 523 112 523 112 489 74 c 128,-1,18
 455 36 455 36 408.5 13.5 c 128,-1,19
 362 -9 362 -9 309 -10 c 1,0,1
77 264 m 1,20,21
 79 215 79 215 96.5 169 c 128,-1,22
 114 123 114 123 144.5 87.5 c 128,-1,23
 175 52 175 52 216.5 31 c 128,-1,24
 258 10 258 10 309 10 c 0,25,26
 361 10 361 10 404 32.5 c 128,-1,27
 447 55 447 55 478 91.5 c 128,-1,28
 509 128 509 128 525.5 173.5 c 128,-1,29
 542 219 542 219 542 264 c 0,30,31
 542 313 542 313 524 359.5 c 128,-1,32
 506 406 506 406 474.5 441 c 128,-1,33
 443 476 443 476 400.5 497.5 c 128,-1,34
 358 519 358 519 309 519 c 0,35,36
 257 519 257 519 214 496 c 128,-1,37
 171 473 171 473 140.5 436.5 c 128,-1,38
 110 400 110 400 93.5 354.5 c 128,-1,39
 77 309 77 309 77 264 c 1,20,21
EndSplineSet
EndChar

StartChar: OE
Encoding: 338 338 53
Width: 1216
Flags: W
HStem: -5 20<331.276 478.586 743 1200> 361 21<743 1136> 712 20<330.081 480.393 743 1191>
VStem: 67 20<286.86 446.71> 723 20<20 240 278.861 361 382 449.663 486 707>
LayerCount: 2
Fore
SplineSet
1200 20 m 1,0,-1
 1200 0 l 1,1,-1
 723 0 l 1,2,-1
 723 240 l 1,3,4
 706 188 706 188 674.5 143.5 c 128,-1,5
 643 99 643 99 602 66.5 c 128,-1,6
 561 34 561 34 511 15 c 128,-1,7
 461 -4 461 -4 406 -5 c 1,8,9
 330 -3 330 -3 268 28.5 c 128,-1,10
 206 60 206 60 161 111.5 c 128,-1,11
 116 163 116 163 91.5 228.5 c 128,-1,12
 67 294 67 294 67 364 c 0,13,14
 67 437 67 437 93 503 c 128,-1,15
 119 569 119 569 164.5 620.5 c 128,-1,16
 210 672 210 672 272 702 c 128,-1,17
 334 732 334 732 406 732 c 0,18,19
 464 732 464 732 514 712.5 c 128,-1,20
 564 693 564 693 605 659.5 c 128,-1,21
 646 626 646 626 676 581.5 c 128,-1,22
 706 537 706 537 723 486 c 1,23,-1
 723 727 l 1,24,-1
 1191 727 l 1,25,-1
 1191 707 l 1,26,-1
 743 707 l 1,27,-1
 743 382 l 1,28,-1
 1136 382 l 1,29,-1
 1136 361 l 1,30,-1
 743 361 l 1,31,-1
 743 20 l 1,32,-1
 1200 20 l 1,0,-1
406 15 m 0,33,34
 477 15 477 15 535.5 45.5 c 128,-1,35
 594 76 594 76 635.5 125 c 128,-1,36
 677 174 677 174 700 236 c 128,-1,37
 723 298 723 298 723 362 c 2,38,-1
 723 365 l 2,39,40
 723 433 723 433 699 495 c 128,-1,41
 675 557 675 557 632 605.5 c 128,-1,42
 589 654 589 654 531 683 c 128,-1,43
 473 712 473 712 406 712 c 0,44,45
 335 712 335 712 276 681.5 c 128,-1,46
 217 651 217 651 175 602 c 128,-1,47
 133 553 133 553 110 490.5 c 128,-1,48
 87 428 87 428 87 364 c 1,49,50
 89 296 89 296 113 233 c 128,-1,51
 137 170 137 170 179 121.5 c 128,-1,52
 221 73 221 73 278.5 44 c 128,-1,53
 336 15 336 15 406 15 c 0,33,34
EndSplineSet
EndChar

StartChar: P
Encoding: 80 80 60
Width: 590
Flags: W
HStem: 0 21G<81 101> 286 20<101 440.955> 707 20<101 432.166>
VStem: 81 20<0 286 306 707> 561 21<439.368 570.234>
LayerCount: 2
Fore
SplineSet
81 0 m 1,0,-1
 81 727 l 1,1,-1
 377 727 l 2,2,3
 421 727 421 727 459 708 c 128,-1,4
 497 689 497 689 524 658 c 128,-1,5
 551 627 551 627 566.5 587.5 c 128,-1,6
 582 548 582 548 582 507 c 0,7,8
 582 464 582 464 567.5 424 c 128,-1,9
 553 384 553 384 527 353.5 c 128,-1,10
 501 323 501 323 464.5 304.5 c 128,-1,11
 428 286 428 286 384 286 c 2,12,-1
 101 286 l 1,13,-1
 101 0 l 1,14,-1
 81 0 l 1,0,-1
101 306 m 1,15,-1
 384 306 l 2,16,17
 425 306 425 306 458.5 323.5 c 128,-1,18
 492 341 492 341 514.5 369.5 c 128,-1,19
 537 398 537 398 549 434 c 128,-1,20
 561 470 561 470 561 507 c 0,21,22
 561 546 561 546 546.5 581.5 c 128,-1,23
 532 617 532 617 507 645 c 128,-1,24
 482 673 482 673 448.5 690 c 128,-1,25
 415 707 415 707 377 707 c 2,26,-1
 101 707 l 1,27,-1
 101 306 l 1,15,-1
EndSplineSet
EndChar

StartChar: P.sc
Encoding: 65554 -1 61
Width: 474
Flags: W
HStem: 0 21G<83 103> 190 21<103 350.104> 511 20<103 349.625>
VStem: 83 20<0 190 211 511> 441 21<293.494 427.491>
LayerCount: 2
Fore
SplineSet
268 531 m 2,0,1
 369 531 369 531 415.5 488.5 c 128,-1,2
 462 446 462 446 462 361 c 0,3,4
 462 274 462 274 415 232 c 128,-1,5
 368 190 368 190 268 190 c 2,6,-1
 103 190 l 1,7,-1
 103 0 l 1,8,-1
 83 0 l 1,9,-1
 83 531 l 1,10,-1
 268 531 l 2,0,1
441 361 m 0,11,12
 441 435 441 435 402.5 473 c 128,-1,13
 364 511 364 511 268 511 c 2,14,-1
 103 511 l 1,15,-1
 103 211 l 1,16,-1
 268 211 l 2,17,18
 360 211 360 211 400.5 247 c 128,-1,19
 441 283 441 283 441 361 c 0,11,12
EndSplineSet
EndChar

StartChar: Q
Encoding: 81 81 62
Width: 789
Flags: W
HStem: -5 20<318.426 468.96> 712 20<316.526 468.721>
VStem: 54 21<278.592 448.771> 711 20<279.275 448.114>
LayerCount: 2
Fore
SplineSet
393 -5 m 1,0,1
 317 -3 317 -3 255.5 28.5 c 128,-1,2
 194 60 194 60 148.5 111.5 c 128,-1,3
 103 163 103 163 78.5 228.5 c 128,-1,4
 54 294 54 294 54 364 c 0,5,6
 54 437 54 437 80 503 c 128,-1,7
 106 569 106 569 152 620.5 c 128,-1,8
 198 672 198 672 260 702 c 128,-1,9
 322 732 322 732 393 732 c 0,10,11
 468 732 468 732 530.5 700 c 128,-1,12
 593 668 593 668 637.5 615.5 c 128,-1,13
 682 563 682 563 706.5 497 c 128,-1,14
 731 431 731 431 731 364 c 0,15,16
 731 211 731 211 621 91 c 1,17,-1
 693 0 l 1,18,-1
 668 0 l 1,19,-1
 606 77 l 1,20,21
 562 38 562 38 507.5 16.5 c 128,-1,22
 453 -5 453 -5 393 -5 c 1,0,1
516 190 m 1,23,-1
 542 190 l 1,24,-1
 608 106 l 1,25,26
 658 161 658 161 684.5 226 c 128,-1,27
 711 291 711 291 711 364 c 0,28,29
 711 432 711 432 687 494.5 c 128,-1,30
 663 557 663 557 620 605.5 c 128,-1,31
 577 654 577 654 519 683 c 128,-1,32
 461 712 461 712 393 712 c 0,33,34
 322 712 322 712 263.5 681.5 c 128,-1,35
 205 651 205 651 163 602 c 128,-1,36
 121 553 121 553 98 490.5 c 128,-1,37
 75 428 75 428 75 364 c 0,38,39
 75 296 75 296 99.5 233 c 128,-1,40
 124 170 124 170 166.5 121.5 c 128,-1,41
 209 73 209 73 267.5 44 c 128,-1,42
 326 15 326 15 393 15 c 0,43,44
 450 15 450 15 501 35.5 c 128,-1,45
 552 56 552 56 594 93 c 1,46,-1
 516 190 l 1,23,-1
EndSplineSet
EndChar

StartChar: Q.sc
Encoding: 65555 -1 63
Width: 622
Flags: W
HStem: -10 20<243.821 373.47> 0 21G<500.286 542> 519 21<243.261 373.232>
VStem: 56 21<196.917 335.956> 542 20<194.943 334.787>
LayerCount: 2
Fore
SplineSet
562 264 m 0,0,1
 562 208 562 208 542 158.5 c 128,-1,2
 522 109 522 109 486 71 c 1,3,-1
 542 0 l 1,4,-1
 516 0 l 1,5,-1
 472 56 l 1,6,7
 439 26 439 26 397.5 8.5 c 128,-1,8
 356 -9 356 -9 309 -10 c 1,9,10
 253 -9 253 -9 206.5 14.5 c 128,-1,11
 160 38 160 38 126.5 76.5 c 128,-1,12
 93 115 93 115 74.5 163.5 c 128,-1,13
 56 212 56 212 56 264 c 0,14,15
 56 319 56 319 76 369.5 c 128,-1,16
 96 420 96 420 130.5 458 c 128,-1,17
 165 496 165 496 211 518 c 128,-1,18
 257 540 257 540 309 540 c 0,19,20
 366 540 366 540 413 515 c 128,-1,21
 460 490 460 490 493 451.5 c 128,-1,22
 526 413 526 413 544 363 c 128,-1,23
 562 313 562 313 562 264 c 0,0,1
309 10 m 0,24,25
 355 10 355 10 392.5 27 c 128,-1,26
 430 44 430 44 460 72 c 1,27,-1
 409 135 l 1,28,-1
 434 135 l 1,29,-1
 473 86 l 1,30,31
 506 123 506 123 524 170 c 128,-1,32
 542 217 542 217 542 264 c 0,33,34
 542 313 542 313 524 359.5 c 128,-1,35
 506 406 506 406 474.5 441 c 128,-1,36
 443 476 443 476 400.5 497.5 c 128,-1,37
 358 519 358 519 309 519 c 0,38,39
 257 519 257 519 214 496 c 128,-1,40
 171 473 171 473 140.5 436.5 c 128,-1,41
 110 400 110 400 93.5 354.5 c 128,-1,42
 77 309 77 309 77 264 c 1,43,44
 79 215 79 215 96.5 169 c 128,-1,45
 114 123 114 123 144.5 87.5 c 128,-1,46
 175 52 175 52 216.5 31 c 128,-1,47
 258 10 258 10 309 10 c 0,24,25
EndSplineSet
EndChar

StartChar: R
Encoding: 82 82 64
Width: 643
Flags: W
HStem: 0 21G<81 101 543.133 581> 286 20<101 372> 707 20<101 432.166>
VStem: 81 20<0 286 306 707> 561 21<438.449 570.234>
LayerCount: 2
Fore
SplineSet
81 0 m 1,0,-1
 81 727 l 1,1,-1
 377 727 l 2,2,3
 421 727 421 727 459 708 c 128,-1,4
 497 689 497 689 524 658 c 128,-1,5
 551 627 551 627 566.5 587.5 c 128,-1,6
 582 548 582 548 582 507 c 0,7,8
 582 465 582 465 568.5 426 c 128,-1,9
 555 387 555 387 530.5 357 c 128,-1,10
 506 327 506 327 471.5 308 c 128,-1,11
 437 289 437 289 396 286 c 1,12,-1
 581 0 l 1,13,-1
 556 0 l 1,14,-1
 372 286 l 1,15,-1
 101 286 l 1,16,-1
 101 0 l 1,17,-1
 81 0 l 1,0,-1
101 306 m 1,18,-1
 384 306 l 2,19,20
 425 306 425 306 457.5 323.5 c 128,-1,21
 490 341 490 341 513.5 369 c 128,-1,22
 537 397 537 397 549 433 c 128,-1,23
 561 469 561 469 561 507 c 0,24,25
 561 546 561 546 546.5 581.5 c 128,-1,26
 532 617 532 617 507 645 c 128,-1,27
 482 673 482 673 448.5 690 c 128,-1,28
 415 707 415 707 377 707 c 2,29,-1
 101 707 l 1,30,-1
 101 306 l 1,18,-1
EndSplineSet
EndChar

StartChar: R.sc
Encoding: 65556 -1 65
Width: 524
Flags: W
HStem: 0 21G<83 103 417.421 455> 190 21<103 302> 511 20<103 349.625>
VStem: 83 20<0 190 211 511> 441 21<295.188 427.491>
LayerCount: 2
Fore
SplineSet
462 361 m 0,0,1
 462 216 462 216 325 195 c 1,2,-1
 455 0 l 1,3,-1
 431 0 l 1,4,-1
 302 190 l 1,5,-1
 268 190 l 1,6,-1
 103 190 l 1,7,-1
 103 0 l 1,8,-1
 83 0 l 1,9,-1
 83 531 l 1,10,-1
 268 531 l 2,11,12
 369 531 369 531 415.5 488.5 c 128,-1,13
 462 446 462 446 462 361 c 0,0,1
268 211 m 2,14,15
 360 211 360 211 400.5 247.5 c 128,-1,16
 441 284 441 284 441 361 c 0,17,18
 441 435 441 435 402.5 473 c 128,-1,19
 364 511 364 511 268 511 c 2,20,-1
 103 511 l 1,21,-1
 103 211 l 1,22,-1
 268 211 l 2,14,15
EndSplineSet
EndChar

StartChar: S
Encoding: 83 83 66
Width: 638
Flags: W
HStem: -5 20<242.361 413.22> 353 21<221.549 427.515> 712 20<229.721 401.845>
VStem: 66 20<482.431 599.562> 573 21<130.4 246.651>
CounterMasks: 1 e0
LayerCount: 2
Fore
SplineSet
55 108 m 1,0,-1
 71 121 l 1,1,2
 121 69 121 69 188 42 c 128,-1,3
 255 15 255 15 326 15 c 0,4,5
 368 15 368 15 412 24.5 c 128,-1,6
 456 34 456 34 491.5 54.5 c 128,-1,7
 527 75 527 75 550 107.5 c 128,-1,8
 573 140 573 140 573 187 c 0,9,10
 573 239 573 239 549 271.5 c 128,-1,11
 525 304 525 304 488 322.5 c 128,-1,12
 451 341 451 341 406 347 c 128,-1,13
 361 353 361 353 321 353 c 0,14,15
 272 353 272 353 225.5 362.5 c 128,-1,16
 179 372 179 372 144 394 c 128,-1,17
 109 416 109 416 87.5 452.5 c 128,-1,18
 66 489 66 489 66 545 c 0,19,20
 66 597 66 597 89 633 c 128,-1,21
 112 669 112 669 148.5 691 c 128,-1,22
 185 713 185 713 229.5 722.5 c 128,-1,23
 274 732 274 732 317 732 c 0,24,25
 362 732 362 732 396.5 725.5 c 128,-1,26
 431 719 431 719 458 706 c 128,-1,27
 485 693 485 693 505.5 674 c 128,-1,28
 526 655 526 655 544 631 c 1,29,-1
 524 623 l 1,30,31
 507 649 507 649 483.5 666 c 128,-1,32
 460 683 460 683 432 693 c 128,-1,33
 404 703 404 703 375 707.5 c 128,-1,34
 346 712 346 712 317 712 c 0,35,36
 274 712 274 712 233.5 703 c 128,-1,37
 193 694 193 694 160.5 674.5 c 128,-1,38
 128 655 128 655 107.5 623 c 128,-1,39
 87 591 87 591 86 545 c 1,40,41
 86 493 86 493 107 459.5 c 128,-1,42
 128 426 128 426 161.5 407 c 128,-1,43
 195 388 195 388 237 381 c 128,-1,44
 279 374 279 374 321 374 c 0,45,46
 370 374 370 374 418.5 365.5 c 128,-1,47
 467 357 467 357 506.5 336 c 128,-1,48
 546 315 546 315 570 279 c 128,-1,49
 594 243 594 243 594 187 c 0,50,51
 594 133 594 133 568.5 96.5 c 128,-1,52
 543 60 543 60 503 37 c 128,-1,53
 463 14 463 14 416 4.5 c 128,-1,54
 369 -5 369 -5 326 -5 c 0,55,56
 236 -5 236 -5 168.5 28.5 c 128,-1,57
 101 62 101 62 55 108 c 1,0,-1
EndSplineSet
EndChar

StartChar: S.sc
Encoding: 65557 -1 67
Width: 496
Flags: W
HStem: -10 20<179.591 322.319> 249.5 30.5<160.924 328.84> 519 21<169.383 321.214>
VStem: 63 21<344.042 447.849> 428 21<88.3267 182.894>
LayerCount: 2
Fore
SplineSet
56 74 m 1,0,-1
 72 87 l 1,1,2
 114 48 114 48 155.5 29 c 128,-1,3
 197 10 197 10 248 10 c 0,4,5
 279 10 279 10 310.5 17 c 128,-1,6
 342 24 342 24 368 38.5 c 128,-1,7
 394 53 394 53 411 77 c 128,-1,8
 428 101 428 101 428 135 c 0,9,10
 428 172 428 172 410 195.5 c 128,-1,11
 392 219 392 219 364.5 232 c 128,-1,12
 337 245 337 245 304.5 249.5 c 128,-1,13
 272 254 272 254 244 254 c 0,14,15
 206 254 206 254 173 261.5 c 128,-1,16
 140 269 140 269 115.5 286 c 128,-1,17
 91 303 91 303 77 330.5 c 128,-1,18
 63 358 63 358 63 398 c 0,19,20
 63 437 63 437 79 463.5 c 128,-1,21
 95 490 95 490 120 507 c 128,-1,22
 145 524 145 524 177 532 c 128,-1,23
 209 540 209 540 242 540 c 0,24,25
 310 540 310 540 347.5 520 c 128,-1,26
 385 500 385 500 411 463 c 1,27,-1
 392 455 l 1,28,29
 382 474 382 474 364.5 487 c 128,-1,30
 347 500 347 500 326.5 507 c 128,-1,31
 306 514 306 514 283.5 516.5 c 128,-1,32
 261 519 261 519 242 519 c 0,33,34
 212 519 212 519 183.5 512.5 c 128,-1,35
 155 506 155 506 133 491.5 c 128,-1,36
 111 477 111 477 97.5 454 c 128,-1,37
 84 431 84 431 84 398 c 0,38,39
 84 361 84 361 98 337 c 128,-1,40
 112 313 112 313 134.5 299.5 c 128,-1,41
 157 286 157 286 185.5 280 c 128,-1,42
 214 274 214 274 244 274 c 0,43,44
 280 274 280 274 316.5 267.5 c 128,-1,45
 353 261 353 261 382.5 245 c 128,-1,46
 412 229 412 229 430.5 202 c 128,-1,47
 449 175 449 175 449 135 c 256,48,49
 449 95 449 95 430 67 c 128,-1,50
 411 39 411 39 381 22 c 128,-1,51
 351 5 351 5 316 -2.5 c 128,-1,52
 281 -10 281 -10 248 -10 c 0,53,54
 181 -10 181 -10 136 14.5 c 128,-1,55
 91 39 91 39 56 74 c 1,0,-1
EndSplineSet
EndChar

StartChar: T
Encoding: 84 84 69
Width: 585
Flags: W
HStem: 0 21G<283 303> 707 20<4 283 303 582>
VStem: 283 20<0 707>
LayerCount: 2
Fore
SplineSet
582 707 m 1,0,-1
 303 707 l 1,1,-1
 303 0 l 1,2,-1
 283 0 l 1,3,-1
 283 707 l 1,4,-1
 4 707 l 1,5,-1
 4 727 l 1,6,-1
 582 727 l 1,7,-1
 582 707 l 1,0,-1
EndSplineSet
EndChar

StartChar: T.sc
Encoding: 65558 -1 70
Width: 431
Flags: W
HStem: 0 21G<206 226> 511 20<6 206 226 426>
VStem: 206 20<0 511>
LayerCount: 2
Fore
SplineSet
426 511 m 1,0,-1
 226 511 l 1,1,-1
 226 0 l 1,2,-1
 206 0 l 1,3,-1
 206 511 l 1,4,-1
 6 511 l 1,5,-1
 6 531 l 1,6,-1
 426 531 l 1,7,-1
 426 511 l 1,0,-1
EndSplineSet
EndChar

StartChar: Thorn
Encoding: 222 222 71
Width: 560
Flags: W
HStem: 0 21G<76 96> 132 21<96 417.375> 553 20<96 406.166> 707 20G<76 96>
VStem: 76 20<0 132 153 553 573 727> 536 20<288.599 415.219>
LayerCount: 2
Fore
SplineSet
351 573 m 2,0,1
 395 573 395 573 433 554.5 c 128,-1,2
 471 536 471 536 498 504.5 c 128,-1,3
 525 473 525 473 540.5 433.5 c 128,-1,4
 556 394 556 394 556 353 c 0,5,6
 556 310 556 310 541.5 270 c 128,-1,7
 527 230 527 230 501 199.5 c 128,-1,8
 475 169 475 169 438.5 150.5 c 128,-1,9
 402 132 402 132 358 132 c 2,10,-1
 96 132 l 1,11,-1
 96 0 l 1,12,-1
 76 0 l 1,13,-1
 76 727 l 1,14,-1
 96 727 l 1,15,-1
 96 573 l 1,16,-1
 351 573 l 2,0,1
358 153 m 2,17,18
 399 153 399 153 432.5 170 c 128,-1,19
 466 187 466 187 488.5 216 c 128,-1,20
 511 245 511 245 523.5 280.5 c 128,-1,21
 536 316 536 316 536 353 c 0,22,23
 536 392 536 392 521.5 428 c 128,-1,24
 507 464 507 464 482 491.5 c 128,-1,25
 457 519 457 519 423 536 c 128,-1,26
 389 553 389 553 351 553 c 2,27,-1
 96 553 l 1,28,-1
 96 153 l 1,29,-1
 358 153 l 2,17,18
EndSplineSet
EndChar

StartChar: U
Encoding: 85 85 72
Width: 736
Flags: W
HStem: -15 20<286.043 452.362> 707 20G<71 91 645 666>
VStem: 71 20<239.674 727> 645 21<237.269 727>
LayerCount: 2
Fore
SplineSet
369 5 m 0,0,1
 451 5 451 5 504 36 c 128,-1,2
 557 67 557 67 589 116 c 128,-1,3
 621 165 621 165 633 227.5 c 128,-1,4
 645 290 645 290 645 353 c 2,5,-1
 645 727 l 1,6,-1
 666 727 l 1,7,-1
 666 353 l 2,8,9
 666 280 666 280 651 213.5 c 128,-1,10
 636 147 636 147 601 96.5 c 128,-1,11
 566 46 566 46 509.5 15.5 c 128,-1,12
 453 -15 453 -15 369 -15 c 0,13,14
 283 -15 283 -15 225.5 16.5 c 128,-1,15
 168 48 168 48 133.5 100.5 c 128,-1,16
 99 153 99 153 85 219 c 128,-1,17
 71 285 71 285 71 353 c 2,18,-1
 71 727 l 1,19,-1
 91 727 l 1,20,-1
 91 353 l 2,21,22
 91 286 91 286 104 224 c 128,-1,23
 117 162 117 162 148.5 113.5 c 128,-1,24
 180 65 180 65 234 35 c 128,-1,25
 288 5 288 5 369 5 c 0,0,1
EndSplineSet
EndChar

StartChar: U.sc
Encoding: 65559 -1 73
Width: 574
Flags: W
HStem: -10 20<221.831 352.979> 511 20G<72 92 483 504>
VStem: 72 20<171.784 531> 483 21<168.602 531>
LayerCount: 2
Fore
SplineSet
121 114 m 1,0,1
 146 64 146 64 186 37 c 128,-1,2
 226 10 226 10 288 10 c 0,3,4
 382 10 382 10 432.5 76 c 128,-1,5
 483 142 483 142 483 266 c 2,6,-1
 483 531 l 1,7,-1
 504 531 l 1,8,-1
 504 266 l 2,9,10
 504 204 504 204 490 152.5 c 128,-1,11
 476 101 476 101 449 65.5 c 128,-1,12
 422 30 422 30 381.5 10 c 128,-1,13
 341 -10 341 -10 288 -10 c 0,14,15
 234 -10 234 -10 193.5 10 c 128,-1,16
 153 30 153 30 126 66 c 128,-1,17
 99 102 99 102 85.5 153 c 128,-1,18
 72 204 72 204 72 266 c 2,19,-1
 72 531 l 1,20,-1
 92 531 l 1,21,-1
 92 266 l 2,22,23
 92 177 92 177 121 114 c 1,0,1
EndSplineSet
EndChar

StartChar: V
Encoding: 86 86 78
Width: 709
Flags: W
HStem: 0 21G<335.307 375.693> 707 20G<28 57.7304 651.298 683>
LayerCount: 2
Fore
SplineSet
49 727 m 1,0,-1
 355 26 l 1,1,-1
 660 727 l 1,2,-1
 683 727 l 1,3,-1
 367 0 l 1,4,-1
 344 0 l 1,5,-1
 28 727 l 1,6,-1
 49 727 l 1,0,-1
EndSplineSet
EndChar

StartChar: V.sc
Encoding: 65560 -1 79
Width: 536
Flags: W
HStem: 0 21G<250.299 286.701> 511 20G<28 58.7026 477.297 509>
LayerCount: 2
Fore
SplineSet
259 0 m 1,0,-1
 28 531 l 1,1,-1
 50 531 l 1,2,-1
 268 30 l 1,3,-1
 486 531 l 1,4,-1
 509 531 l 1,5,-1
 278 0 l 1,6,-1
 259 0 l 1,0,-1
EndSplineSet
EndChar

StartChar: W
Encoding: 87 87 80
Width: 1112
Flags: W
HStem: 0 21G<351.307 391.693 720.307 760.693> 707 20G<44 75.7019 1037.27 1068>
LayerCount: 2
Fore
SplineSet
415 721 m 1,0,-1
 437 721 l 1,1,-1
 555 449 l 1,2,-1
 674 721 l 1,3,-1
 696 721 l 1,4,-1
 566 424 l 1,5,-1
 740 26 l 1,6,-1
 1046 727 l 1,7,-1
 1068 727 l 1,8,-1
 752 0 l 1,9,-1
 729 0 l 1,10,-1
 556 398 l 1,11,-1
 383 0 l 1,12,-1
 360 0 l 1,13,-1
 44 727 l 1,14,-1
 67 727 l 1,15,-1
 372 26 l 1,16,-1
 545 424 l 1,17,-1
 415 721 l 1,0,-1
EndSplineSet
Substitution2: "'salt' Stylistic Alternatives in Latin lookup 5 subtable" W.alt
Substitution2: "'aalt' Access All Alternates in Latin lookup 0 subtable" W.alt
EndChar

StartChar: W.alt
Encoding: 65561 -1 81
Width: 1096
Flags: W
HStem: 0 21G<280.535 315.772 779.997 816.437> 707 20G<52 80.3909 524.352 560.99 1015.64 1044>
LayerCount: 2
Fore
SplineSet
1044 727 m 1,0,-1
 810 0 l 1,1,-1
 787 0 l 1,2,-1
 544 694 l 1,3,-1
 309 0 l 1,4,-1
 287 0 l 1,5,-1
 52 727 l 1,6,-1
 74 727 l 1,7,-1
 298 26 l 1,8,-1
 531 727 l 1,9,-1
 554 727 l 1,10,-1
 799 26 l 1,11,-1
 1022 727 l 1,12,-1
 1044 727 l 1,0,-1
EndSplineSet
EndChar

StartChar: W.sc
Encoding: 65562 -1 82
Width: 831
Flags: W
HStem: 0 21G<258.638 294.725 537.275 572.362> 511 20G<45 76.3034 755.657 786>
LayerCount: 2
Fore
SplineSet
764 531 m 1,0,-1
 786 531 l 1,1,-1
 564 0 l 1,2,-1
 546 0 l 1,3,-1
 416 298 l 1,4,-1
 286 0 l 1,5,-1
 267 0 l 1,6,-1
 45 531 l 1,7,-1
 68 531 l 1,8,-1
 276 30 l 1,9,-1
 404 324 l 1,10,-1
 315 529 l 1,11,-1
 337 529 l 1,12,-1
 416 350 l 1,13,-1
 495 529 l 1,14,-1
 516 529 l 1,15,-1
 427 324 l 1,16,-1
 555 30 l 1,17,-1
 764 531 l 1,0,-1
EndSplineSet
EndChar

StartChar: X
Encoding: 88 88 83
Width: 736
Flags: W
HStem: 0 21G<70 111.965 625.094 667> 707 20G<61 103.966 633.091 675>
LayerCount: 2
Fore
SplineSet
88 727 m 1,0,-1
 369 375 l 1,1,-1
 649 727 l 1,2,-1
 675 727 l 1,3,-1
 381 358 l 1,4,-1
 667 0 l 1,5,-1
 641 0 l 1,6,-1
 369 342 l 1,7,-1
 96 0 l 1,8,-1
 70 0 l 1,9,-1
 355 358 l 1,10,-1
 61 727 l 1,11,-1
 88 727 l 1,0,-1
EndSplineSet
EndChar

StartChar: X.sc
Encoding: 65563 -1 84
Width: 577
Flags: W
HStem: 0 21G<65 106.968 470.113 513> 511 20G<62 105.064 472.016 515>
LayerCount: 2
Fore
SplineSet
89 531 m 1,0,-1
 289 282 l 1,1,-1
 488 531 l 1,2,-1
 515 531 l 1,3,-1
 302 264 l 1,4,-1
 513 0 l 1,5,-1
 486 0 l 1,6,-1
 289 248 l 1,7,-1
 91 0 l 1,8,-1
 65 0 l 1,9,-1
 275 264 l 1,10,-1
 62 531 l 1,11,-1
 89 531 l 1,0,-1
EndSplineSet
EndChar

StartChar: Y
Encoding: 89 89 85
Width: 652
Flags: W
HStem: 0 21G<315 336> 707 20G<22 58.3175 593.682 631>
VStem: 315 21<0 282>
LayerCount: 2
Fore
SplineSet
45 727 m 1,0,-1
 326 305 l 1,1,-1
 607 727 l 1,2,-1
 631 727 l 1,3,-1
 336 282 l 1,4,-1
 336 0 l 1,5,-1
 315 0 l 1,6,-1
 315 284 l 1,7,-1
 22 727 l 1,8,-1
 45 727 l 1,0,-1
EndSplineSet
EndChar

StartChar: Y.sc
Encoding: 65564 -1 86
Width: 486
Flags: W
HStem: 0 21G<237 257> 511 20G<22 58.1169 426.532 463>
VStem: 237 20<0 200>
LayerCount: 2
Fore
SplineSet
45 531 m 1,0,-1
 247 223 l 1,1,-1
 439 531 l 1,2,-1
 463 531 l 1,3,-1
 257 200 l 1,4,-1
 257 0 l 1,5,-1
 237 0 l 1,6,-1
 237 202 l 1,7,-1
 22 531 l 1,8,-1
 45 531 l 1,0,-1
EndSplineSet
EndChar

StartChar: Z
Encoding: 90 90 89
Width: 601
Flags: W
HStem: 0 20<36 587> 707 20<15 565>
LayerCount: 2
Fore
SplineSet
565 707 m 1,0,-1
 15 707 l 1,1,-1
 15 727 l 1,2,-1
 591 727 l 1,3,-1
 591 707 l 1,4,-1
 36 20 l 1,5,-1
 587 20 l 1,6,-1
 587 0 l 1,7,-1
 10 0 l 1,8,-1
 10 20 l 1,9,-1
 565 707 l 1,0,-1
EndSplineSet
EndChar

StartChar: Z.sc
Encoding: 65565 -1 90
Width: 431
Flags: W
HStem: 0 20<42 412> 511 20<20 390>
LayerCount: 2
Fore
SplineSet
15 0 m 1,0,-1
 15 20 l 1,1,-1
 390 511 l 1,2,-1
 20 511 l 1,3,-1
 20 531 l 1,4,-1
 416 531 l 1,5,-1
 416 511 l 1,6,-1
 42 20 l 1,7,-1
 412 20 l 1,8,-1
 412 0 l 1,9,-1
 15 0 l 1,0,-1
EndSplineSet
EndChar

StartChar: a
Encoding: 97 97 92
Width: 561
Flags: W
HStem: -10 20<178.586 310.584> 0 20<156.822 231.876 482.902 496> 284 20<200.21 383.397> 519 21<221.28 349.403>
VStem: 61 21<99.601 200.21> 459 20<21.7227 90 114.562 255.605 274 401.244>
LayerCount: 2
Fore
SplineSet
496 20 m 1,0,-1
 496 0 l 1,1,2
 479 1 479 1 469 13 c 128,-1,3
 459 25 459 25 459 41 c 2,4,-1
 459 90 l 1,5,6
 418 38 418 38 357 14 c 128,-1,7
 296 -10 296 -10 233 -10 c 0,8,9
 197 -10 197 -10 165.5 2.5 c 128,-1,10
 134 15 134 15 111 37 c 128,-1,11
 88 59 88 59 74.5 89 c 128,-1,12
 61 119 61 119 61 153 c 0,13,14
 61 196 61 196 82.5 225 c 128,-1,15
 104 254 104 254 136.5 271.5 c 128,-1,16
 169 289 169 289 207.5 296.5 c 128,-1,17
 246 304 246 304 281 304 c 0,18,19
 347 304 347 304 392.5 293.5 c 128,-1,20
 438 283 438 283 459 274 c 1,21,-1
 459 335 l 2,22,23
 459 376 459 376 446.5 409.5 c 128,-1,24
 434 443 434 443 411 468 c 128,-1,25
 388 493 388 493 356.5 506 c 128,-1,26
 325 519 325 519 285 519 c 0,27,28
 246 519 246 519 202 502 c 128,-1,29
 158 485 158 485 113 454 c 1,30,-1
 100 470 l 1,31,32
 142 499 142 499 189 519.5 c 128,-1,33
 236 540 236 540 285 540 c 0,34,35
 333 540 333 540 369.5 524 c 128,-1,36
 406 508 406 508 430.5 480.5 c 128,-1,37
 455 453 455 453 467 415.5 c 128,-1,38
 479 378 479 378 479 335 c 2,39,-1
 479 41 l 1,40,41
 481 32 481 32 484.5 26 c 128,-1,42
 488 20 488 20 496 20 c 1,0,-1
443 104 m 1,43,44
 458 127 458 127 459 146 c 2,45,-1
 459 252 l 1,46,47
 415 269 415 269 370.5 276.5 c 128,-1,48
 326 284 326 284 281 284 c 0,49,50
 248 284 248 284 213 277 c 128,-1,51
 178 270 178 270 149 255 c 128,-1,52
 120 240 120 240 101 214.5 c 128,-1,53
 82 189 82 189 82 153 c 0,54,55
 82 120 82 120 95 94 c 128,-1,56
 108 68 108 68 129 49.5 c 128,-1,57
 150 31 150 31 177 20.5 c 128,-1,58
 204 10 204 10 233 10 c 128,-1,59
 262 10 262 10 293 16 c 128,-1,60
 324 22 324 22 352 33 c 128,-1,61
 380 44 380 44 404 61.5 c 128,-1,62
 428 79 428 79 443 104 c 1,43,44
EndSplineSet
Substitution2: "'salt' Stylistic Alternatives in Latin lookup 5 subtable" a.alt
Substitution2: "'smcp' Lowercase to Small Capitals in Latin lookup 2 subtable" A.sc
AlternateSubs2: "'aalt' Access All Alternates in Latin lookup 1 subtable" A.sc a.alt
EndChar

StartChar: a.alt
Encoding: 65566 -1 93
Width: 624
Flags: W
HStem: -10 20<242.821 372.475> 0 21G<523 544> 519 21<242.261 372.808>
VStem: 55 21<196.917 335.956> 523 21<0 122 146.812 382.856 407 529>
LayerCount: 2
Fore
SplineSet
544 0 m 1,0,-1
 523 0 l 1,1,-1
 523 122 l 1,2,3
 490 64 490 64 434 28 c 128,-1,4
 378 -8 378 -8 308 -10 c 1,5,6
 252 -9 252 -9 205.5 14.5 c 128,-1,7
 159 38 159 38 125.5 76.5 c 128,-1,8
 92 115 92 115 73.5 163.5 c 128,-1,9
 55 212 55 212 55 264 c 0,10,11
 55 319 55 319 75 369.5 c 128,-1,12
 95 420 95 420 129.5 458 c 128,-1,13
 164 496 164 496 210 518 c 128,-1,14
 256 540 256 540 308 540 c 0,15,16
 381 540 381 540 435.5 502 c 128,-1,17
 490 464 490 464 523 407 c 1,18,-1
 523 529 l 1,19,-1
 544 529 l 1,20,-1
 544 0 l 1,0,-1
523 359 m 1,21,22
 510 393 510 393 488.5 422.5 c 128,-1,23
 467 452 467 452 439.5 473.5 c 128,-1,24
 412 495 412 495 378.5 507 c 128,-1,25
 345 519 345 519 308 519 c 0,26,27
 256 519 256 519 213 496 c 128,-1,28
 170 473 170 473 139.5 436.5 c 128,-1,29
 109 400 109 400 92.5 354.5 c 128,-1,30
 76 309 76 309 76 264 c 1,31,32
 78 215 78 215 95.5 169 c 128,-1,33
 113 123 113 123 143.5 87.5 c 128,-1,34
 174 52 174 52 215.5 31 c 128,-1,35
 257 10 257 10 308 10 c 0,36,37
 347 10 347 10 381 23 c 128,-1,38
 415 36 415 36 442.5 58 c 128,-1,39
 470 80 470 80 490.5 109 c 128,-1,40
 511 138 511 138 523 171 c 1,41,-1
 523 359 l 1,21,22
EndSplineSet
EndChar

StartChar: a.alt2
Encoding: 65567 -1 94
Width: 541
Flags: W
HStem: -10 20<167.351 298.175> 0 21G<447 468> 284 20<188.84 370.852> 519 21<209.387 337.601>
VStem: 50 21<98.7046 200.21> 447 21<0 90 111.788 255.605 274 404.22>
LayerCount: 2
Fore
SplineSet
447 0 m 1,0,-1
 447 90 l 1,1,2
 406 38 406 38 345.5 14 c 128,-1,3
 285 -10 285 -10 222 -10 c 0,4,5
 186 -10 186 -10 154.5 2.5 c 128,-1,6
 123 15 123 15 100 37 c 128,-1,7
 77 59 77 59 63.5 89 c 128,-1,8
 50 119 50 119 50 153 c 0,9,10
 50 196 50 196 71.5 225 c 128,-1,11
 93 254 93 254 125.5 271.5 c 128,-1,12
 158 289 158 289 196 296.5 c 128,-1,13
 234 304 234 304 269 304 c 0,14,15
 335 304 335 304 381 293.5 c 128,-1,16
 427 283 427 283 447 274 c 1,17,-1
 447 335 l 2,18,19
 447 376 447 376 435 409.5 c 128,-1,20
 423 443 423 443 400 468 c 128,-1,21
 377 493 377 493 345 506 c 128,-1,22
 313 519 313 519 273 519 c 0,23,24
 234 519 234 519 190 502 c 128,-1,25
 146 485 146 485 101 454 c 1,26,-1
 89 470 l 1,27,28
 131 499 131 499 177.5 519.5 c 128,-1,29
 224 540 224 540 273 540 c 0,30,31
 321 540 321 540 357.5 524 c 128,-1,32
 394 508 394 508 418.5 480.5 c 128,-1,33
 443 453 443 453 455.5 415.5 c 128,-1,34
 468 378 468 378 468 335 c 2,35,-1
 468 0 l 1,36,-1
 447 0 l 1,0,-1
432 104 m 1,37,38
 447 127 447 127 447 146 c 2,39,-1
 447 252 l 1,40,41
 403 269 403 269 358.5 276.5 c 128,-1,42
 314 284 314 284 269 284 c 0,43,44
 236 284 236 284 201.5 277 c 128,-1,45
 167 270 167 270 138 255 c 128,-1,46
 109 240 109 240 90 214.5 c 128,-1,47
 71 189 71 189 71 153 c 0,48,49
 71 120 71 120 83.5 94 c 128,-1,50
 96 68 96 68 117 49.5 c 128,-1,51
 138 31 138 31 165.5 20.5 c 128,-1,52
 193 10 193 10 222 10 c 128,-1,53
 251 10 251 10 281.5 16 c 128,-1,54
 312 22 312 22 340.5 33 c 128,-1,55
 369 44 369 44 393 61.5 c 128,-1,56
 417 79 417 79 432 104 c 1,37,38
EndSplineSet
EndChar

StartChar: acute
Encoding: 180 180 97
Width: 126
Flags: W
HStem: 613 108
VStem: 22 100
LayerCount: 2
Fore
SplineSet
38 613 m 1,0,-1
 22 626 l 1,1,-1
 87 721 l 1,2,-1
 122 721 l 1,3,-1
 38 613 l 1,0,-1
EndSplineSet
EndChar

StartChar: ae
Encoding: 230 230 99
Width: 1001
Flags: W
HStem: -10 20<183.581 309.293 625.901 751.112> 254 20<456 921> 284 20<205.338 387.86> 519 21<224.678 355.092 616.05 749.358>
VStem: 67 20<100.987 199.226>
LayerCount: 2
Fore
SplineSet
902 117 m 1,0,1
 893 87 893 87 869.5 63.5 c 128,-1,2
 846 40 846 40 815.5 23.5 c 128,-1,3
 785 7 785 7 752 -1.5 c 128,-1,4
 719 -10 719 -10 691 -10 c 0,5,6
 623 -10 623 -10 567 25.5 c 128,-1,7
 511 61 511 61 477 114 c 1,8,9
 463 80 463 80 436.5 56.5 c 128,-1,10
 410 33 410 33 377 18 c 128,-1,11
 344 3 344 3 308 -3.5 c 128,-1,12
 272 -10 272 -10 239 -10 c 0,13,14
 203 -10 203 -10 171.5 2 c 128,-1,15
 140 14 140 14 117 36 c 128,-1,16
 94 58 94 58 80.5 88 c 128,-1,17
 67 118 67 118 67 153 c 0,18,19
 67 196 67 196 88.5 225 c 128,-1,20
 110 254 110 254 142 271.5 c 128,-1,21
 174 289 174 289 212.5 296.5 c 128,-1,22
 251 304 251 304 286 304 c 0,23,24
 335 304 335 304 373 297.5 c 128,-1,25
 411 291 411 291 435 284 c 1,26,27
 437 311 437 311 443 336.5 c 128,-1,28
 449 362 449 362 460 387 c 1,29,-1
 459 387 l 1,30,31
 445 453 445 453 399 486 c 128,-1,32
 353 519 353 519 290 519 c 0,33,34
 271 519 271 519 246.5 514 c 128,-1,35
 222 509 222 509 197.5 499.5 c 128,-1,36
 173 490 173 490 152 478.5 c 128,-1,37
 131 467 131 467 118 454 c 1,38,-1
 105 470 l 1,39,40
 147 499 147 499 194 519.5 c 128,-1,41
 241 540 241 540 290 540 c 0,42,43
 355 540 355 540 404.5 507.5 c 128,-1,44
 454 475 454 475 473 415 c 1,45,46
 509 473 509 473 562 506.5 c 128,-1,47
 615 540 615 540 682 540 c 0,48,49
 740 540 740 540 788 517 c 128,-1,50
 836 494 836 494 870 455.5 c 128,-1,51
 904 417 904 417 923 367.5 c 128,-1,52
 942 318 942 318 942 265 c 2,53,-1
 942 254 l 1,54,-1
 456 254 l 1,55,56
 459 206 459 206 478 162 c 128,-1,57
 497 118 497 118 528 84 c 128,-1,58
 559 50 559 50 600.5 30 c 128,-1,59
 642 10 642 10 691 10 c 0,60,61
 716 10 716 10 746.5 18.5 c 128,-1,62
 777 27 777 27 805.5 41 c 128,-1,63
 834 55 834 55 855.5 76 c 128,-1,64
 877 97 877 97 883 122 c 1,65,-1
 902 117 l 1,0,1
456 274 m 1,66,-1
 921 274 l 1,67,68
 917 322 917 322 898 367 c 128,-1,69
 879 412 879 412 847.5 445.5 c 128,-1,70
 816 479 816 479 774 499 c 128,-1,71
 732 519 732 519 682 519 c 0,72,73
 631 519 631 519 590.5 498 c 128,-1,74
 550 477 550 477 521 443 c 128,-1,75
 492 409 492 409 475.5 364.5 c 128,-1,76
 459 320 459 320 456 274 c 1,66,-1
463 138 m 1,77,78
 450 165 450 165 442.5 196 c 128,-1,79
 435 227 435 227 435 262 c 1,80,81
 411 270 411 270 373 277 c 128,-1,82
 335 284 335 284 286 284 c 0,83,84
 253 284 253 284 218 277 c 128,-1,85
 183 270 183 270 154 255 c 128,-1,86
 125 240 125 240 106 214.5 c 128,-1,87
 87 189 87 189 87 153 c 0,88,89
 87 120 87 120 100 94 c 128,-1,90
 113 68 113 68 134 49.5 c 128,-1,91
 155 31 155 31 182 20.5 c 128,-1,92
 209 10 209 10 239 10 c 256,93,94
 269 10 269 10 306 19 c 128,-1,95
 343 28 343 28 377 43.5 c 128,-1,96
 411 59 411 59 435.5 83 c 128,-1,97
 460 107 460 107 463 138 c 1,77,78
EndSplineSet
EndChar

StartChar: ampersand
Encoding: 38 38 101
Width: 684
Flags: W
HStem: -10 20<206.616 330.711> 0 21G<608 658> 716 20<222.357 342.008>
VStem: 52 21<131.375 242.139> 111 20<549.403 638.394> 428 21<549.719 639.885> 584 20<281.931 343>
LayerCount: 2
Fore
SplineSet
52 190 m 0,0,1
 52 228 52 228 69 259.5 c 128,-1,2
 86 291 86 291 112 317 c 128,-1,3
 138 343 138 343 168.5 363.5 c 128,-1,4
 199 384 199 384 226 401 c 1,5,6
 174 459 174 459 142.5 503 c 128,-1,7
 111 547 111 547 111 590 c 0,8,9
 111 627 111 627 125.5 654.5 c 128,-1,10
 140 682 140 682 164.5 700.5 c 128,-1,11
 189 719 189 719 220.5 727.5 c 128,-1,12
 252 736 252 736 285 736 c 0,13,14
 319 736 319 736 348.5 726 c 128,-1,15
 378 716 378 716 400.5 697 c 128,-1,16
 423 678 423 678 436 651 c 128,-1,17
 449 624 449 624 449 590 c 256,18,19
 449 556 449 556 428 527.5 c 128,-1,20
 407 499 407 499 377 475 c 128,-1,21
 347 451 347 451 315 431.5 c 128,-1,22
 283 412 283 412 259 398 c 1,23,-1
 502 156 l 1,24,25
 535 198 535 198 559.5 245 c 128,-1,26
 584 292 584 292 584 343 c 1,27,-1
 604 343 l 1,28,29
 601 283 601 283 575 232.5 c 128,-1,30
 549 182 549 182 516 140 c 1,31,-1
 658 0 l 1,32,-1
 628 0 l 1,33,-1
 503 125 l 1,34,35
 480 100 480 100 454 75.5 c 128,-1,36
 428 51 428 51 399.5 32 c 128,-1,37
 371 13 371 13 339.5 1.5 c 128,-1,38
 308 -10 308 -10 275 -10 c 0,39,40
 230 -10 230 -10 190 4 c 128,-1,41
 150 18 150 18 119 44.5 c 128,-1,42
 88 71 88 71 70 108 c 128,-1,43
 52 145 52 145 52 190 c 0,0,1
73 190 m 0,44,45
 74 147 74 147 91 113.5 c 128,-1,46
 108 80 108 80 136 57 c 128,-1,47
 164 34 164 34 200 22 c 128,-1,48
 236 10 236 10 275 10 c 0,49,50
 307 10 307 10 337.5 22.5 c 128,-1,51
 368 35 368 35 395 53.5 c 128,-1,52
 422 72 422 72 446 95 c 128,-1,53
 470 118 470 118 488 139 c 1,54,-1
 242 387 l 1,55,56
 215 370 215 370 185.5 350.5 c 128,-1,57
 156 331 156 331 130.5 307 c 128,-1,58
 105 283 105 283 89 254 c 128,-1,59
 73 225 73 225 73 190 c 0,44,45
131 590 m 1,60,61
 134 563 134 563 145.5 538.5 c 128,-1,62
 157 514 157 514 173 491.5 c 128,-1,63
 189 469 189 469 207.5 449 c 128,-1,64
 226 429 226 429 244 413 c 1,65,66
 267 427 267 427 298.5 445 c 128,-1,67
 330 463 330 463 358.5 485.5 c 128,-1,68
 387 508 387 508 407.5 534 c 128,-1,69
 428 560 428 560 428 590 c 0,70,71
 428 621 428 621 415.5 644.5 c 128,-1,72
 403 668 403 668 383.5 683.5 c 128,-1,73
 364 699 364 699 338 707.5 c 128,-1,74
 312 716 312 716 285 716 c 0,75,76
 254 716 254 716 226.5 707.5 c 128,-1,77
 199 699 199 699 178 683.5 c 128,-1,78
 157 668 157 668 144 644.5 c 128,-1,79
 131 621 131 621 131 590 c 1,60,61
EndSplineSet
EndChar

StartChar: asciicircum
Encoding: 94 94 103
Width: 481
Flags: W
HStem: 707 20G<221.312 259.688>
LayerCount: 2
Fore
SplineSet
29 310 m 1,0,-1
 231 727 l 1,1,-1
 250 727 l 1,2,-1
 452 310 l 1,3,-1
 428 310 l 1,4,-1
 241 697 l 1,5,-1
 50 310 l 1,6,-1
 29 310 l 1,0,-1
EndSplineSet
EndChar

StartChar: asciitilde
Encoding: 126 126 104
Width: 454
Flags: W
HStem: 257 21<264.274 340.749> 319 21<122.374 186.192>
VStem: 66 20<258 280.32>
LayerCount: 2
Fore
SplineSet
306 257 m 0,0,1
 280 257 280 257 259 266.5 c 128,-1,2
 238 276 238 276 219.5 288 c 128,-1,3
 201 300 201 300 185 309.5 c 128,-1,4
 169 319 169 319 155 319 c 0,5,6
 138 319 138 319 124.5 310 c 128,-1,7
 111 301 111 301 102.5 290 c 128,-1,8
 94 279 94 279 90 269 c 128,-1,9
 86 259 86 259 86 258 c 2,10,-1
 66 257 l 1,11,-1
 66 258 l 2,12,13
 66 259 66 259 70.5 272 c 128,-1,14
 75 285 75 285 85 300 c 128,-1,15
 95 315 95 315 112.5 327.5 c 128,-1,16
 130 340 130 340 155 340 c 0,17,18
 173 340 173 340 191.5 330.5 c 128,-1,19
 210 321 210 321 228.5 309 c 128,-1,20
 247 297 247 297 266 287.5 c 128,-1,21
 285 278 285 278 306 278 c 0,22,23
 323 278 323 278 336 285.5 c 128,-1,24
 349 293 349 293 358 303 c 128,-1,25
 367 313 367 313 371.5 322 c 128,-1,26
 376 331 376 331 376 333 c 1,27,-1
 396 332 l 1,28,29
 388 310 388 310 376 294 c 0,30,31
 365 280 365 280 348 268.5 c 128,-1,32
 331 257 331 257 306 257 c 0,0,1
EndSplineSet
EndChar

StartChar: asterisk
Encoding: 42 42 105
Width: 218
Flags: W
HStem: 658 20<28.8496 47.1556> 707 20G<99 120>
VStem: 99 21<655 727>
LayerCount: 2
Fore
SplineSet
195 658 m 1,0,-1
 126 636 l 1,1,-1
 169 578 l 1,2,-1
 152 565 l 1,3,-1
 110 624 l 1,4,-1
 68 565 l 1,5,-1
 51 578 l 1,6,-1
 93 636 l 1,7,-1
 25 658 l 1,8,-1
 31 678 l 1,9,-1
 99 655 l 1,10,-1
 99 727 l 1,11,-1
 120 727 l 1,12,-1
 120 655 l 1,13,-1
 188 678 l 1,14,-1
 195 658 l 1,0,-1
EndSplineSet
EndChar

StartChar: at
Encoding: 64 64 106
Width: 841
Flags: W
HStem: -150 21<338.814 508.328> -16 20<609.365 684.942> 12 21<338.495 464.843> 251 20<351.287 510.341> 442 21<373.921 494.496> 597 20<341.774 503.445>
VStem: 52 21<145.386 324.314> 248 20<99.1251 186.197> 572 17<31.2476 85.4375 121.791 226 248 337.437> 768 20<131.226 319.032>
LayerCount: 2
Fore
SplineSet
770 355 m 0,0,1
 788 297 788 297 788 236 c 0,2,3
 788 232 788 232 788 211 c 128,-1,4
 788 190 788 190 785 162.5 c 128,-1,5
 782 135 782 135 774 103.5 c 128,-1,6
 766 72 766 72 749.5 45 c 128,-1,7
 733 18 733 18 706.5 1 c 128,-1,8
 680 -16 680 -16 640 -16 c 0,9,10
 617 -16 617 -16 603.5 -7 c 128,-1,11
 590 2 590 2 582 17 c 128,-1,12
 574 32 574 32 571.5 50 c 128,-1,13
 569 68 569 68 568 86 c 1,14,15
 541 56 541 56 497 34 c 128,-1,16
 453 12 453 12 390 12 c 0,17,18
 365 12 365 12 339.5 20.5 c 128,-1,19
 314 29 314 29 293.5 45 c 128,-1,20
 273 61 273 61 260.5 86.5 c 128,-1,21
 248 112 248 112 248 146 c 128,-1,22
 248 180 248 180 264.5 204 c 128,-1,23
 281 228 281 228 307 243 c 128,-1,24
 333 258 333 258 365 264.5 c 128,-1,25
 397 271 397 271 428 271 c 0,26,27
 480 271 480 271 517.5 262.5 c 128,-1,28
 555 254 555 254 572 248 c 1,29,30
 572 290 572 290 566 325.5 c 128,-1,31
 560 361 560 361 544.5 387.5 c 128,-1,32
 529 414 529 414 502.5 428 c 128,-1,33
 476 442 476 442 436 442 c 0,34,35
 398 442 398 442 361.5 427 c 128,-1,36
 325 412 325 412 293 389 c 1,37,-1
 281 406 l 1,38,39
 315 430 315 430 354 446.5 c 128,-1,40
 393 463 393 463 436 463 c 0,41,42
 488 463 488 463 519.5 443 c 128,-1,43
 551 423 551 423 567.5 392.5 c 128,-1,44
 584 362 584 362 588.5 327 c 128,-1,45
 593 292 593 292 593 261 c 0,46,47
 593 217 593 217 591 181 c 128,-1,48
 589 145 589 145 589 100 c 0,49,50
 589 81 589 81 590.5 63.5 c 128,-1,51
 592 46 592 46 597 32.5 c 128,-1,52
 602 19 602 19 612.5 11.5 c 128,-1,53
 623 4 623 4 640 4 c 0,54,55
 679 4 679 4 704 27 c 128,-1,56
 729 50 729 50 743.5 84.5 c 128,-1,57
 758 119 758 119 763 159.5 c 128,-1,58
 768 200 768 200 768 236 c 0,59,60
 768 308 768 308 741 373 c 128,-1,61
 714 438 714 438 667.5 488.5 c 128,-1,62
 621 539 621 539 558 568 c 128,-1,63
 495 597 495 597 424 597 c 0,64,65
 355 597 355 597 291.5 570.5 c 128,-1,66
 228 544 228 544 179.5 495.5 c 128,-1,67
 131 447 131 447 102 380.5 c 128,-1,68
 73 314 73 314 73 234 c 0,69,70
 73 158 73 158 100.5 92.5 c 128,-1,71
 128 27 128 27 175.5 -22.5 c 128,-1,72
 223 -72 223 -72 286.5 -100.5 c 128,-1,73
 350 -129 350 -129 423 -129 c 0,74,75
 463 -129 463 -129 502.5 -120 c 128,-1,76
 542 -111 542 -111 579 -90 c 1,77,-1
 589 -109 l 1,78,79
 510 -150 510 -150 423 -150 c 0,80,81
 347 -150 347 -150 279.5 -120 c 128,-1,82
 212 -90 212 -90 161.5 -38 c 128,-1,83
 111 14 111 14 81.5 84.5 c 128,-1,84
 52 155 52 155 52 234 c 0,85,86
 52 318 52 318 83.5 389 c 128,-1,87
 115 460 115 460 166 510.5 c 128,-1,88
 217 561 217 561 284 589 c 128,-1,89
 351 617 351 617 424 617 c 0,90,91
 483 617 483 617 538.5 597.5 c 128,-1,92
 594 578 594 578 639 542.5 c 128,-1,93
 684 507 684 507 718 458.5 c 128,-1,94
 752 410 752 410 770 355 c 0,0,1
497 56 m 0,95,96
 523 68 523 68 537.5 82.5 c 128,-1,97
 552 97 552 97 559.5 112.5 c 128,-1,98
 567 128 567 128 569.5 144.5 c 128,-1,99
 572 161 572 161 572 178 c 0,100,101
 572 189 572 189 571.5 201.5 c 128,-1,102
 571 214 571 214 571 226 c 1,103,104
 565 226 565 226 553 229.5 c 128,-1,105
 541 233 541 233 522.5 238 c 128,-1,106
 504 243 504 243 480.5 247 c 128,-1,107
 457 251 457 251 428 251 c 256,108,109
 399 251 399 251 371 246 c 128,-1,110
 343 241 343 241 321 228.5 c 128,-1,111
 299 216 299 216 284 196 c 128,-1,112
 269 176 269 176 268 146 c 0,113,114
 268 117 268 117 279.5 96 c 128,-1,115
 291 75 291 75 308.5 61 c 128,-1,116
 326 47 326 47 347.5 40 c 128,-1,117
 369 33 369 33 390 33 c 0,118,119
 421 33 421 33 448 39 c 128,-1,120
 475 45 475 45 497 56 c 0,95,96
EndSplineSet
EndChar

StartChar: b
Encoding: 98 98 108
Width: 583
Flags: W
HStem: -10 20<254.64 376.303> 0 21G<83 103> 519 21<255.473 385.688> 728 20G<83 103>
VStem: 83 20<0 382.636 408 748> 547 20<196.219 337.674>
LayerCount: 2
Fore
SplineSet
567 264 m 1,0,1
 565 210 565 210 545.5 160.5 c 128,-1,2
 526 111 526 111 492 73 c 128,-1,3
 458 35 458 35 412 12.5 c 128,-1,4
 366 -10 366 -10 311 -10 c 0,5,6
 279 -10 279 -10 249 -1 c 128,-1,7
 219 8 219 8 192 24.5 c 128,-1,8
 165 41 165 41 142 63 c 128,-1,9
 119 85 119 85 103 111 c 1,10,-1
 103 0 l 1,11,-1
 83 0 l 1,12,-1
 83 748 l 1,13,-1
 103 748 l 1,14,-1
 103 408 l 1,15,16
 144 465 144 465 197.5 502.5 c 128,-1,17
 251 540 251 540 321 540 c 0,18,19
 379 540 379 540 425 515 c 128,-1,20
 471 490 471 490 502.5 451 c 128,-1,21
 534 412 534 412 550.5 362.5 c 128,-1,22
 567 313 567 313 567 264 c 1,0,1
547 264 m 0,23,24
 547 313 547 313 530.5 359.5 c 128,-1,25
 514 406 514 406 484 441 c 128,-1,26
 454 476 454 476 412.5 497.5 c 128,-1,27
 371 519 371 519 321 519 c 0,28,29
 283 519 283 519 249.5 506.5 c 128,-1,30
 216 494 216 494 189 472.5 c 128,-1,31
 162 451 162 451 140.5 423 c 128,-1,32
 119 395 119 395 103 365 c 1,33,-1
 103 173 l 2,34,35
 103 140 103 140 124 110.5 c 128,-1,36
 145 81 145 81 176.5 59 c 128,-1,37
 208 37 208 37 244.5 23.5 c 128,-1,38
 281 10 281 10 311 10 c 0,39,40
 362 10 362 10 406 32 c 128,-1,41
 450 54 450 54 481 90 c 128,-1,42
 512 126 512 126 529.5 171.5 c 128,-1,43
 547 217 547 217 547 264 c 0,23,24
EndSplineSet
Substitution2: "'smcp' Lowercase to Small Capitals in Latin lookup 2 subtable" B.sc
Substitution2: "'aalt' Access All Alternates in Latin lookup 0 subtable" B.sc
EndChar

StartChar: backslash
Encoding: 92 92 109
Width: 477
Flags: W
HStem: 0 21G<436.703 474> 707 20G<2 41.2421>
LayerCount: 2
Fore
SplineSet
29 727 m 1,0,-1
 474 0 l 1,1,-1
 449 0 l 1,2,-1
 2 727 l 1,3,-1
 29 727 l 1,0,-1
EndSplineSet
EndChar

StartChar: bar
Encoding: 124 124 110
Width: 172
Flags: W
VStem: 83 20<-133 794>
LayerCount: 2
Fore
SplineSet
83 -133 m 1,0,-1
 83 794 l 1,1,-1
 103 794 l 1,2,-1
 103 -133 l 1,3,-1
 83 -133 l 1,0,-1
EndSplineSet
EndChar

StartChar: braceleft
Encoding: 123 123 111
Width: 134
Flags: W
HStem: -32 22<74 129> 359 21<22 40.8125> 737 21<75 129>
VStem: 52 21<-9.6875 347.675 390.207 736.674>
LayerCount: 2
Fore
SplineSet
75 737 m 1,0,-1
 74 735 l 2,1,2
 73 733 73 733 73 727 c 2,3,-1
 73 426 l 2,4,5
 73 423 73 423 72.5 417 c 128,-1,6
 72 411 72 411 70 402 c 128,-1,7
 68 393 68 393 63.5 384.5 c 128,-1,8
 59 376 59 376 51 369 c 1,9,10
 66 355 66 355 69.5 335.5 c 128,-1,11
 73 316 73 316 73 311 c 2,12,-1
 73 -1 l 2,13,14
 73 -5 73 -5 73.5 -7 c 128,-1,15
 74 -9 74 -9 74 -10 c 2,16,-1
 129 -11 l 1,17,-1
 129 -32 l 1,18,-1
 76 -32 l 2,19,20
 70 -32 70 -32 61 -26 c 128,-1,21
 52 -20 52 -20 52 -1 c 2,22,-1
 52 311 l 2,23,24
 52 315 52 315 51 323 c 128,-1,25
 50 331 50 331 47 338.5 c 128,-1,26
 44 346 44 346 38 351.5 c 128,-1,27
 32 357 32 357 22 359 c 1,28,-1
 22 380 l 1,29,30
 32 380 32 380 38 386 c 128,-1,31
 44 392 44 392 47 400.5 c 128,-1,32
 50 409 50 409 51 416 c 128,-1,33
 52 423 52 423 52 426 c 2,34,-1
 52 727 l 2,35,36
 52 745 52 745 61 751.5 c 128,-1,37
 70 758 70 758 76 758 c 2,38,-1
 129 758 l 1,39,-1
 129 737 l 1,40,-1
 75 737 l 1,0,-1
EndSplineSet
EndChar

StartChar: braceright
Encoding: 125 125 112
Width: 134
Flags: W
HStem: -32 21<6 61> 359 21<93.4688 114> 737 21<6 60>
VStem: 62 21<-9.77148 348.688 388.922 736.5>
LayerCount: 2
Fore
SplineSet
60 737 m 1,0,-1
 6 737 l 1,1,-1
 6 758 l 1,2,-1
 59 758 l 2,3,4
 63 758 63 758 73 753 c 128,-1,5
 83 748 83 748 83 727 c 2,6,-1
 83 426 l 2,7,8
 83 423 83 423 83.5 415.5 c 128,-1,9
 84 408 84 408 87 400 c 128,-1,10
 90 392 90 392 96 386 c 128,-1,11
 102 380 102 380 114 380 c 1,12,-1
 114 359 l 1,13,14
 96 357 96 357 89.5 342 c 128,-1,15
 83 327 83 327 83 311 c 2,16,-1
 83 -1 l 2,17,18
 83 -18 83 -18 75.5 -25 c 128,-1,19
 68 -32 68 -32 59 -32 c 2,20,-1
 6 -32 l 1,21,-1
 6 -11 l 1,22,-1
 61 -10 l 2,23,24
 61 -9 61 -9 61.5 -7 c 128,-1,25
 62 -5 62 -5 62 -1 c 2,26,-1
 62 311 l 2,27,28
 62 316 62 316 65 335 c 128,-1,29
 68 354 68 354 84 369 c 1,30,31
 76 376 76 376 72 384.5 c 128,-1,32
 68 393 68 393 65.5 402 c 128,-1,33
 63 411 63 411 62.5 417 c 128,-1,34
 62 423 62 423 62 426 c 2,35,-1
 62 727 l 2,36,37
 62 733 62 733 61 735 c 2,38,-1
 60 737 l 1,0,-1
EndSplineSet
EndChar

StartChar: bracketleft
Encoding: 91 91 113
Width: 154
Flags: W
HStem: -41 21<103 155> 737 21<103 155>
VStem: 83 72<-41 -20 737 758> 83 20<-20 737>
LayerCount: 2
Fore
SplineSet
83 -41 m 1,0,-1
 83 758 l 1,1,-1
 155 758 l 1,2,-1
 155 737 l 1,3,-1
 103 737 l 1,4,-1
 103 -20 l 1,5,-1
 155 -20 l 1,6,-1
 155 -41 l 1,7,-1
 83 -41 l 1,0,-1
EndSplineSet
EndChar

StartChar: bracketright
Encoding: 93 93 114
Width: 150
Flags: W
HStem: -41 21<0 51> 737 21<0 51>
VStem: 0 72<-41 -20 737 758> 51 21<-20 737>
LayerCount: 2
Fore
SplineSet
0 -41 m 1,0,-1
 0 -20 l 1,1,-1
 51 -20 l 1,2,-1
 51 737 l 1,3,-1
 0 737 l 1,4,-1
 0 758 l 1,5,-1
 72 758 l 1,6,-1
 72 -41 l 1,7,-1
 0 -41 l 1,0,-1
EndSplineSet
EndChar

StartChar: breve
Encoding: 728 728 115
Width: 248
Flags: W
HStem: 600 21<94.8525 155.705>
VStem: 54 21<641.029 671> 175 21<640.256 671>
LayerCount: 2
Fore
SplineSet
161 636 m 0,0,1
 175 650 175 650 175 671 c 1,2,-1
 196 671 l 1,3,4
 196 641 196 641 175.5 620.5 c 128,-1,5
 155 600 155 600 125 600 c 256,6,7
 95 600 95 600 74.5 620.5 c 128,-1,8
 54 641 54 641 54 671 c 1,9,-1
 75 671 l 1,10,11
 75 651 75 651 89.5 636 c 128,-1,12
 104 621 104 621 125 621 c 256,13,14
 146 621 146 621 161 636 c 0,0,1
EndSplineSet
EndChar

StartChar: bullet
Encoding: 8226 8226 116
Width: 407
Flags: W
HStem: 245 295<127.539 280.461>
VStem: 56 295<314.734 468.461>
LayerCount: 2
Fore
SplineSet
351 392 m 256,0,1
 351 361 351 361 339.5 334 c 128,-1,2
 328 307 328 307 308 287 c 128,-1,3
 288 267 288 267 261 256 c 128,-1,4
 234 245 234 245 204 245 c 256,5,6
 173 245 173 245 146.5 256 c 128,-1,7
 120 267 120 267 100 287 c 128,-1,8
 80 307 80 307 68 334 c 128,-1,9
 56 361 56 361 56 392 c 256,10,11
 56 423 56 423 68 449.5 c 128,-1,12
 80 476 80 476 100 496 c 128,-1,13
 120 516 120 516 146.5 528 c 128,-1,14
 173 540 173 540 204 540 c 256,15,16
 235 540 235 540 261.5 528 c 128,-1,17
 288 516 288 516 308 496 c 128,-1,18
 328 476 328 476 339.5 449.5 c 128,-1,19
 351 423 351 423 351 392 c 256,0,1
EndSplineSet
EndChar

StartChar: c
Encoding: 99 99 117
Width: 560
Flags: W
HStem: -10 20<237.7 363.76> 519 21<225.712 364.959>
VStem: 46 21<191.626 338.756>
LayerCount: 2
Fore
SplineSet
46 264 m 0,0,1
 46 317 46 317 64 367 c 128,-1,2
 82 417 82 417 114.5 455.5 c 128,-1,3
 147 494 147 494 193 517 c 128,-1,4
 239 540 239 540 293 540 c 0,5,6
 378 540 378 540 426 506.5 c 128,-1,7
 474 473 474 473 501 421 c 1,8,-1
 481 414 l 1,9,10
 451 469 451 469 402 494 c 128,-1,11
 353 519 353 519 293 519 c 0,12,13
 239 519 239 519 197 496 c 128,-1,14
 155 473 155 473 126 436.5 c 128,-1,15
 97 400 97 400 82 354.5 c 128,-1,16
 67 309 67 309 67 264 c 0,17,18
 67 214 67 214 85 168.5 c 128,-1,19
 103 123 103 123 135 87.5 c 128,-1,20
 167 52 167 52 210 31 c 128,-1,21
 253 10 253 10 302 10 c 0,22,23
 327 10 327 10 357 18 c 128,-1,24
 387 26 387 26 413.5 40.5 c 128,-1,25
 440 55 440 55 461 75.5 c 128,-1,26
 482 96 482 96 488 122 c 1,27,-1
 509 116 l 1,28,29
 499 85 499 85 476.5 61.5 c 128,-1,30
 454 38 454 38 424.5 22 c 128,-1,31
 395 6 395 6 363 -2 c 128,-1,32
 331 -10 331 -10 302 -10 c 0,33,34
 247 -10 247 -10 200 13.5 c 128,-1,35
 153 37 153 37 118.5 76 c 128,-1,36
 84 115 84 115 65 164 c 128,-1,37
 46 213 46 213 46 264 c 0,0,1
EndSplineSet
Substitution2: "'smcp' Lowercase to Small Capitals in Latin lookup 2 subtable" C.sc
Substitution2: "'aalt' Access All Alternates in Latin lookup 0 subtable" C.sc
EndChar

StartChar: caron
Encoding: 711 711 118
Width: 272
Flags: W
HStem: 601 143
VStem: 33 207
LayerCount: 2
Fore
SplineSet
49 744 m 1,0,-1
 136 625 l 1,1,-1
 223 744 l 1,2,-1
 240 732 l 1,3,-1
 144 601 l 1,4,-1
 128 601 l 1,5,-1
 33 732 l 1,6,-1
 49 744 l 1,0,-1
EndSplineSet
EndChar

StartChar: cedilla
Encoding: 184 184 120
Width: 208
Flags: W
HStem: -161 21<109 135.774> -61 20<63.7812 140.543> -20 20G<54.5393 88>
VStem: 15 156
LayerCount: 2
Fore
SplineSet
109 -140 m 1,0,1
 136 -137 136 -137 148 -115 c 1,2,3
 155 -95 155 -95 146 -79 c 0,4,5
 141 -69 141 -69 132.5 -65 c 128,-1,6
 124 -61 124 -61 113 -61 c 256,7,8
 102 -61 102 -61 90.5 -63.5 c 128,-1,9
 79 -66 79 -66 69 -69 c 0,10,11
 61 -72 61 -72 56 -73.5 c 128,-1,12
 51 -75 51 -75 46.5 -77 c 128,-1,13
 42 -79 42 -79 35 -81.5 c 128,-1,14
 28 -84 28 -84 15 -89 c 1,15,-1
 66 0 l 1,16,-1
 88 0 l 1,17,-1
 61 -49 l 1,18,19
 72 -46 72 -46 85 -43.5 c 128,-1,20
 98 -41 98 -41 113 -41 c 0,21,22
 128 -42 128 -42 139.5 -46 c 128,-1,23
 151 -50 151 -50 159 -60 c 0,24,25
 169 -74 169 -74 171 -92 c 128,-1,26
 173 -110 173 -110 166 -124 c 0,27,28
 158 -140 158 -140 142 -150.5 c 128,-1,29
 126 -161 126 -161 109 -161 c 1,30,-1
 109 -140 l 1,0,1
EndSplineSet
EndChar

StartChar: cent
Encoding: 162 162 121
Width: 503
Flags: W
HStem: -9 20<214.781 263 284 348.549> 519 21<207.708 263 284 347.588>
VStem: 28 20<193.45 337.08> 263 21<-123 -10 11 519 540 660>
LayerCount: 2
Fore
SplineSet
263 -123 m 1,0,-1
 263 -9 l 1,1,2
 211 -5 211 -5 168 20 c 128,-1,3
 125 45 125 45 93.5 83 c 128,-1,4
 62 121 62 121 45 168 c 128,-1,5
 28 215 28 215 28 264 c 0,6,7
 28 316 28 316 45 364.5 c 128,-1,8
 62 413 62 413 93 451 c 128,-1,9
 124 489 124 489 167.5 513 c 128,-1,10
 211 537 211 537 263 540 c 1,11,-1
 263 660 l 1,12,-1
 284 660 l 1,13,-1
 284 540 l 1,14,15
 364 538 364 538 410.5 505 c 128,-1,16
 457 472 457 472 482 421 c 1,17,-1
 463 414 l 1,18,19
 433 467 433 467 387 492 c 128,-1,20
 341 517 341 517 284 519 c 1,21,-1
 284 10 l 1,22,23
 309 10 309 10 339 18 c 128,-1,24
 369 26 369 26 395.5 40.5 c 128,-1,25
 422 55 422 55 443 75.5 c 128,-1,26
 464 96 464 96 470 122 c 1,27,-1
 490 116 l 1,28,29
 480 85 480 85 457.5 61.5 c 128,-1,30
 435 38 435 38 406 22 c 128,-1,31
 377 6 377 6 344.5 -2 c 128,-1,32
 312 -10 312 -10 284 -10 c 1,33,-1
 284 -123 l 1,34,-1
 263 -123 l 1,0,-1
48 264 m 0,35,36
 48 217 48 217 64.5 173 c 128,-1,37
 81 129 81 129 110 94.5 c 128,-1,38
 139 60 139 60 178 37.5 c 128,-1,39
 217 15 217 15 263 11 c 1,40,-1
 263 519 l 1,41,42
 212 516 212 516 172 492.5 c 128,-1,43
 132 469 132 469 104.5 433 c 128,-1,44
 77 397 77 397 62.5 352.5 c 128,-1,45
 48 308 48 308 48 264 c 0,35,36
EndSplineSet
EndChar

StartChar: circumflex
Encoding: 710 710 122
Width: 277
Flags: W
HStem: 601 143
VStem: 35 207
LayerCount: 2
Fore
SplineSet
35 613 m 1,0,-1
 130 744 l 1,1,-1
 146 744 l 1,2,-1
 242 613 l 1,3,-1
 225 601 l 1,4,-1
 138 721 l 1,5,-1
 51 601 l 1,6,-1
 35 613 l 1,0,-1
EndSplineSet
EndChar

StartChar: colon
Encoding: 58 58 123
Width: 82
Flags: W
HStem: 0 66<40 60> 464 65<40 60>
VStem: 40 20<0 66 464 529>
LayerCount: 2
Fore
SplineSet
40 464 m 1,0,-1
 40 529 l 1,1,-1
 60 529 l 1,2,-1
 60 464 l 1,3,-1
 40 464 l 1,0,-1
40 0 m 1,4,-1
 40 66 l 1,5,-1
 60 66 l 1,6,-1
 60 0 l 1,7,-1
 40 0 l 1,4,-1
EndSplineSet
EndChar

StartChar: comma
Encoding: 44 44 124
Width: 124
Flags: W
HStem: -34 21<41 48.875>
VStem: 54 21<-10.9531 66>
LayerCount: 2
Fore
SplineSet
41 -34 m 1,0,-1
 41 -13 l 1,1,2
 45 -13 45 -13 49 -11 c 1,3,-1
 52 -8 l 2,4,5
 54 -6 54 -6 54 -3.5 c 128,-1,6
 54 -1 54 -1 54 0 c 2,7,-1
 54 66 l 1,8,-1
 75 66 l 1,9,-1
 75 0 l 2,10,11
 75 -2 75 -2 75 -5 c 128,-1,12
 75 -8 75 -8 73 -12 c 256,13,14
 71 -16 71 -16 68 -21 c 128,-1,15
 65 -26 65 -26 59 -30 c 1,16,17
 49 -34 49 -34 41 -34 c 1,0,-1
EndSplineSet
EndChar

StartChar: copyright
Encoding: 169 169 125
Width: 854
Flags: W
HStem: -7 20<341.056 515.458> 130 21<370.69 493.421> 580 20<360.396 489.909> 712 20<341.385 512.615>
VStem: 57 21<273.459 451.949> 210 20<296.989 431.686> 776 21<273.167 453.081>
LayerCount: 2
Fore
SplineSet
575 218 m 0,0,1
 586 232 586 232 591 244 c 1,2,-1
 610 239 l 1,3,4
 606 225 606 225 592 206 c 128,-1,5
 578 187 578 187 554 170.5 c 128,-1,6
 530 154 530 154 499 142 c 128,-1,7
 468 130 468 130 430 130 c 0,8,9
 393 130 393 130 353.5 146 c 128,-1,10
 314 162 314 162 282.5 191.5 c 128,-1,11
 251 221 251 221 230.5 265 c 128,-1,12
 210 309 210 309 210 366 c 1,13,14
 211 406 211 406 224.5 447 c 128,-1,15
 238 488 238 488 264 522.5 c 128,-1,16
 290 557 290 557 329 578.5 c 128,-1,17
 368 600 368 600 422 600 c 0,18,19
 475 600 475 600 509.5 584.5 c 128,-1,20
 544 569 544 569 564 550 c 128,-1,21
 584 531 584 531 591.5 515.5 c 128,-1,22
 599 500 599 500 600 499 c 1,23,-1
 581 492 l 2,24,25
 581 493 581 493 580.5 493.5 c 128,-1,26
 580 494 580 494 579 496 c 0,27,28
 576 501 576 501 567.5 514.5 c 128,-1,29
 559 528 559 528 541 542.5 c 128,-1,30
 523 557 523 557 494.5 568.5 c 128,-1,31
 466 580 466 580 422 580 c 0,32,33
 374 580 374 580 338 560 c 128,-1,34
 302 540 302 540 278 509 c 128,-1,35
 254 478 254 478 242 440 c 128,-1,36
 230 402 230 402 230 366 c 0,37,38
 230 314 230 314 249 273.5 c 128,-1,39
 268 233 268 233 297.5 205.5 c 128,-1,40
 327 178 327 178 362 164.5 c 128,-1,41
 397 151 397 151 430 151 c 0,42,43
 479 151 479 151 517.5 172 c 128,-1,44
 556 193 556 193 575 218 c 0,0,1
427 732 m 256,45,46
 507 732 507 732 574.5 704 c 128,-1,47
 642 676 642 676 691 627 c 128,-1,48
 740 578 740 578 768.5 510 c 128,-1,49
 797 442 797 442 797 364 c 0,50,51
 797 284 797 284 768.5 216 c 128,-1,52
 740 148 740 148 691 98.5 c 128,-1,53
 642 49 642 49 574.5 21 c 128,-1,54
 507 -7 507 -7 427 -7 c 256,55,56
 347 -7 347 -7 279.5 21 c 128,-1,57
 212 49 212 49 163 98.5 c 128,-1,58
 114 148 114 148 85.5 216 c 128,-1,59
 57 284 57 284 57 364 c 0,60,61
 57 443 57 443 85.5 510.5 c 128,-1,62
 114 578 114 578 163 627 c 128,-1,63
 212 676 212 676 279.5 704 c 128,-1,64
 347 732 347 732 427 732 c 256,45,46
427 13 m 0,65,66
 501 13 501 13 565 38 c 128,-1,67
 629 63 629 63 675.5 109.5 c 128,-1,68
 722 156 722 156 749 220.5 c 128,-1,69
 776 285 776 285 776 364 c 0,70,71
 776 439 776 439 750 502 c 128,-1,72
 724 565 724 565 677 611.5 c 128,-1,73
 630 658 630 658 566 685 c 128,-1,74
 502 712 502 712 427 712 c 256,75,76
 352 712 352 712 288 685 c 128,-1,77
 224 658 224 658 177.5 611.5 c 128,-1,78
 131 565 131 565 104.5 501.5 c 128,-1,79
 78 438 78 438 78 364 c 0,80,81
 78 288 78 288 104 224 c 128,-1,82
 130 160 130 160 177 113.5 c 128,-1,83
 224 67 224 67 287.5 40 c 128,-1,84
 351 13 351 13 427 13 c 0,65,66
EndSplineSet
EndChar

StartChar: d
Encoding: 100 100 126
Width: 591
Flags: W
HStem: -10 20<208.7 330.295> 0 20<273.97 356.078 504.465 518> 519 21<197.673 325.334> 728 20G<481 502>
VStem: 17 21<191.626 338.572> 481 21<21.1422 389.39 408 748>
LayerCount: 2
Fore
SplineSet
518 20 m 1,0,-1
 518 0 l 1,1,2
 501 1 501 1 491 13.5 c 128,-1,3
 481 26 481 26 481 41 c 2,4,-1
 481 111 l 1,5,6
 464 84 464 84 441 62 c 128,-1,7
 418 40 418 40 391 23.5 c 128,-1,8
 364 7 364 7 334 -1.5 c 128,-1,9
 304 -10 304 -10 273 -10 c 0,10,11
 218 -10 218 -10 171 13.5 c 128,-1,12
 124 37 124 37 89.5 76 c 128,-1,13
 55 115 55 115 36 164 c 128,-1,14
 17 213 17 213 17 264 c 0,15,16
 17 319 17 319 35.5 369 c 128,-1,17
 54 419 54 419 87.5 457 c 128,-1,18
 121 495 121 495 166 517.5 c 128,-1,19
 211 540 211 540 264 540 c 0,20,21
 301 540 301 540 332.5 529 c 128,-1,22
 364 518 364 518 391 500 c 128,-1,23
 418 482 418 482 440.5 458 c 128,-1,24
 463 434 463 434 481 408 c 1,25,-1
 481 748 l 1,26,-1
 502 748 l 1,27,-1
 502 41 l 1,28,29
 504 20 504 20 518 20 c 1,0,-1
481 365 m 1,30,31
 470 397 470 397 447 425 c 128,-1,32
 424 453 424 453 394.5 474 c 128,-1,33
 365 495 365 495 330.5 507 c 128,-1,34
 296 519 296 519 264 519 c 0,35,36
 212 519 212 519 170.5 497 c 128,-1,37
 129 475 129 475 99.5 439 c 128,-1,38
 70 403 70 403 54 357 c 128,-1,39
 38 311 38 311 38 264 c 0,40,41
 38 214 38 214 56.5 168.5 c 128,-1,42
 75 123 75 123 106.5 87.5 c 128,-1,43
 138 52 138 52 181 31 c 128,-1,44
 224 10 224 10 273 10 c 0,45,46
 304 10 304 10 340.5 23.5 c 128,-1,47
 377 37 377 37 407.5 59 c 128,-1,48
 438 81 438 81 459 110.5 c 128,-1,49
 480 140 480 140 481 173 c 1,50,-1
 481 365 l 1,30,31
EndSplineSet
Substitution2: "'salt' Stylistic Alternatives in Latin lookup 5 subtable" d.alt
Substitution2: "'smcp' Lowercase to Small Capitals in Latin lookup 2 subtable" D.sc
AlternateSubs2: "'aalt' Access All Alternates in Latin lookup 1 subtable" D.sc d.alt
EndChar

StartChar: d.alt
Encoding: 65568 -1 127
Width: 582
Flags: W
HStem: -10 20<207.7 329.075> 0 21G<480 501> 519 21<196.673 324.136> 728 20G<480 501>
VStem: 16 21<191.626 338.572> 480 21<0 389.39 408 748>
LayerCount: 2
Fore
SplineSet
480 0 m 1,0,-1
 480 111 l 1,1,2
 463 84 463 84 440 62 c 128,-1,3
 417 40 417 40 389.5 23.5 c 128,-1,4
 362 7 362 7 332.5 -1.5 c 128,-1,5
 303 -10 303 -10 272 -10 c 0,6,7
 217 -10 217 -10 170 13.5 c 128,-1,8
 123 37 123 37 88.5 76 c 128,-1,9
 54 115 54 115 35 164 c 128,-1,10
 16 213 16 213 16 264 c 0,11,12
 16 319 16 319 34.5 369 c 128,-1,13
 53 419 53 419 86.5 457 c 128,-1,14
 120 495 120 495 165 517.5 c 128,-1,15
 210 540 210 540 263 540 c 0,16,17
 300 540 300 540 331 529 c 128,-1,18
 362 518 362 518 389.5 500 c 128,-1,19
 417 482 417 482 439.5 458 c 128,-1,20
 462 434 462 434 480 408 c 1,21,-1
 480 748 l 1,22,-1
 501 748 l 1,23,-1
 501 0 l 1,24,-1
 480 0 l 1,0,-1
480 365 m 1,25,26
 469 397 469 397 446 425 c 128,-1,27
 423 453 423 453 393.5 474 c 128,-1,28
 364 495 364 495 329.5 507 c 128,-1,29
 295 519 295 519 263 519 c 0,30,31
 211 519 211 519 169.5 497 c 128,-1,32
 128 475 128 475 98.5 439 c 128,-1,33
 69 403 69 403 53 357 c 128,-1,34
 37 311 37 311 37 264 c 0,35,36
 37 214 37 214 55.5 168.5 c 128,-1,37
 74 123 74 123 105.5 87.5 c 128,-1,38
 137 52 137 52 180 31 c 128,-1,39
 223 10 223 10 272 10 c 0,40,41
 303 10 303 10 339.5 23.5 c 128,-1,42
 376 37 376 37 406.5 59 c 128,-1,43
 437 81 437 81 458 110.5 c 128,-1,44
 479 140 479 140 480 173 c 1,45,-1
 480 365 l 1,25,26
EndSplineSet
EndChar

StartChar: dagger
Encoding: 8224 8224 128
Width: 293
Flags: W
HStem: 267 21<2 137 158 292>
VStem: 137 21<-133 267 288 794>
LayerCount: 2
Fore
SplineSet
137 -133 m 1,0,-1
 137 267 l 1,1,-1
 2 267 l 1,2,-1
 2 288 l 1,3,-1
 137 288 l 1,4,-1
 137 794 l 1,5,-1
 158 794 l 1,6,-1
 158 288 l 1,7,-1
 292 288 l 1,8,-1
 292 267 l 1,9,-1
 158 267 l 1,10,-1
 158 -133 l 1,11,-1
 137 -133 l 1,0,-1
EndSplineSet
EndChar

StartChar: daggerdbl
Encoding: 8225 8225 129
Width: 295
Flags: W
HStem: 206 20<3 138 159 293> 339 20<3 138 159 293>
VStem: 138 21<-133 206 226 339 359 794>
LayerCount: 2
Fore
SplineSet
138 -133 m 1,0,-1
 138 206 l 1,1,-1
 3 206 l 1,2,-1
 3 226 l 1,3,-1
 138 226 l 1,4,-1
 138 339 l 1,5,-1
 3 339 l 1,6,-1
 3 359 l 1,7,-1
 138 359 l 1,8,-1
 138 794 l 1,9,-1
 159 794 l 1,10,-1
 159 359 l 1,11,-1
 293 359 l 1,12,-1
 293 339 l 1,13,-1
 159 339 l 1,14,-1
 159 226 l 1,15,-1
 293 226 l 1,16,-1
 293 206 l 1,17,-1
 159 206 l 1,18,-1
 159 -133 l 1,19,-1
 138 -133 l 1,0,-1
EndSplineSet
EndChar

StartChar: degree
Encoding: 176 176 130
Width: 256
Flags: W
HStem: 600 21<97.2947 158.177> 721 20<96.9131 159.087>
VStem: 57 21<639.54 703.002> 178 21<640.166 701.821>
LayerCount: 2
Fore
SplineSet
57 671 m 256,0,1
 57 701 57 701 77.5 721 c 128,-1,2
 98 741 98 741 128 741 c 256,3,4
 158 741 158 741 178.5 720.5 c 128,-1,5
 199 700 199 700 199 671 c 256,6,7
 199 641 199 641 178.5 620.5 c 128,-1,8
 158 600 158 600 128 600 c 256,9,10
 98 600 98 600 77.5 620.5 c 128,-1,11
 57 641 57 641 57 671 c 256,0,1
92 707 m 256,12,13
 78 693 78 693 78 671 c 0,14,15
 78 648 78 648 92 636 c 1,16,17
 107 621 107 621 128 621 c 256,18,19
 148 621 148 621 164 636 c 0,20,21
 178 650 178 650 178 671 c 0,22,23
 178 682 178 682 174 690.5 c 128,-1,24
 170 699 170 699 164 707 c 0,25,26
 150 721 150 721 128 721 c 256,27,28
 106 721 106 721 92 707 c 256,12,13
EndSplineSet
EndChar

StartChar: dieresis
Encoding: 168 168 131
Width: 344
Flags: W
HStem: 626 85<83 103 243 263>
VStem: 83 20<626 711> 243 20<626 711>
LayerCount: 2
Fore
SplineSet
83 626 m 1,0,-1
 83 711 l 1,1,-1
 103 711 l 1,2,-1
 103 626 l 1,3,-1
 83 626 l 1,0,-1
243 626 m 1,4,-1
 243 711 l 1,5,-1
 263 711 l 1,6,-1
 263 626 l 1,7,-1
 243 626 l 1,4,-1
EndSplineSet
EndChar

StartChar: dollar
Encoding: 36 36 132
Width: 579
Flags: W
HStem: -4 19<211.259 274 295 375.068> 353 21<187.516 274 295 381.589> 712 20<197.998 274 295 369.106>
VStem: 32 20<492.007 600.958> 274 21<-132 -5 15 353 374 712 732 835> 540 20<131.503 244.826>
LayerCount: 2
Fore
SplineSet
274 -132 m 1,0,-1
 274 -4 l 1,1,2
 233 -4 233 -4 196.5 6 c 128,-1,3
 160 16 160 16 128 31.5 c 128,-1,4
 96 47 96 47 69 67 c 128,-1,5
 42 87 42 87 22 108 c 1,6,-1
 37 121 l 1,7,8
 97 70 97 70 154.5 44 c 128,-1,9
 212 18 212 18 274 15 c 1,10,-1
 274 353 l 1,11,12
 226 354 226 354 182 364.5 c 128,-1,13
 138 375 138 375 105 397 c 128,-1,14
 72 419 72 419 52 455.5 c 128,-1,15
 32 492 32 492 32 545 c 0,16,17
 32 597 32 597 54 632 c 128,-1,18
 76 667 76 667 110.5 689 c 128,-1,19
 145 711 145 711 188.5 720.5 c 128,-1,20
 232 730 232 730 274 732 c 1,21,-1
 274 835 l 1,22,-1
 295 835 l 1,23,-1
 295 732 l 1,24,25
 378 729 378 729 427.5 704 c 128,-1,26
 477 679 477 679 510 631 c 1,27,-1
 490 623 l 1,28,29
 474 648 474 648 452 664.5 c 128,-1,30
 430 681 430 681 404.5 691 c 128,-1,31
 379 701 379 701 351 706 c 128,-1,32
 323 711 323 711 295 712 c 1,33,-1
 295 374 l 1,34,35
 343 371 343 371 390.5 362 c 128,-1,36
 438 353 438 353 475.5 332.5 c 128,-1,37
 513 312 513 312 536.5 277.5 c 128,-1,38
 560 243 560 243 560 187 c 0,39,40
 560 134 560 134 534.5 97.5 c 128,-1,41
 509 61 509 61 470 38.5 c 128,-1,42
 431 16 431 16 384.5 6 c 128,-1,43
 338 -4 338 -4 295 -5 c 1,44,-1
 295 -132 l 1,45,-1
 274 -132 l 1,0,-1
540 187 m 0,46,47
 540 237 540 237 517 269.5 c 128,-1,48
 494 302 494 302 457.5 320.5 c 128,-1,49
 421 339 421 339 378 345.5 c 128,-1,50
 335 352 335 352 295 353 c 1,51,-1
 295 15 l 1,52,53
 337 16 337 16 380.5 25.5 c 128,-1,54
 424 35 424 35 459.5 55.5 c 128,-1,55
 495 76 495 76 517.5 108 c 128,-1,56
 540 140 540 140 540 187 c 0,46,47
52 545 m 1,57,58
 56 494 56 494 75 461 c 128,-1,59
 94 428 94 428 124 408.5 c 128,-1,60
 154 389 154 389 192.5 382 c 128,-1,61
 231 375 231 375 274 374 c 1,62,-1
 274 712 l 1,63,64
 232 710 232 710 192.5 701 c 128,-1,65
 153 692 153 692 122 672.5 c 128,-1,66
 91 653 91 653 72 622 c 128,-1,67
 53 591 53 591 52 545 c 1,57,58
EndSplineSet
EndChar

StartChar: dotaccent
Encoding: 729 729 133
Width: 172
Flags: W
HStem: 662 65<83 103>
VStem: 83 20<662 727>
LayerCount: 2
Fore
SplineSet
83 662 m 1,0,-1
 83 727 l 1,1,-1
 103 727 l 1,2,-1
 103 662 l 1,3,-1
 83 662 l 1,0,-1
EndSplineSet
EndChar

StartChar: dotlessi
Encoding: 305 305 134
Width: 172
Flags: W
HStem: 0 21G<83 103>
VStem: 83 20<0 529>
LayerCount: 2
Fore
SplineSet
83 0 m 1,0,-1
 83 529 l 1,1,-1
 103 529 l 1,2,-1
 103 0 l 1,3,-1
 83 0 l 1,0,-1
EndSplineSet
EndChar

StartChar: e
Encoding: 101 101 135
Width: 593
Flags: W
HStem: -10 20<237.371 366.15> 254 20<67 531> 519 21<226.446 363.163>
VStem: 46 21<194.82 254 274 338.625>
LayerCount: 2
Fore
SplineSet
46 264 m 0,0,1
 47 317 47 317 65 367 c 128,-1,2
 83 417 83 417 115 455.5 c 128,-1,3
 147 494 147 494 192.5 517 c 128,-1,4
 238 540 238 540 293 540 c 0,5,6
 351 540 351 540 398.5 517.5 c 128,-1,7
 446 495 446 495 480 457 c 128,-1,8
 514 419 514 419 533 369 c 128,-1,9
 552 319 552 319 553 265 c 1,10,-1
 553 254 l 1,11,-1
 67 254 l 1,12,13
 70 206 70 206 89 162 c 128,-1,14
 108 118 108 118 139 84 c 128,-1,15
 170 50 170 50 211.5 30 c 128,-1,16
 253 10 253 10 302 10 c 0,17,18
 331 10 331 10 360 18 c 128,-1,19
 389 26 389 26 414.5 40 c 128,-1,20
 440 54 440 54 460.5 74.5 c 128,-1,21
 481 95 481 95 494 122 c 1,22,-1
 513 117 l 1,23,24
 501 86 501 86 478 62 c 128,-1,25
 455 38 455 38 425.5 22 c 128,-1,26
 396 6 396 6 364 -2 c 128,-1,27
 332 -10 332 -10 302 -10 c 0,28,29
 247 -10 247 -10 200 13.5 c 128,-1,30
 153 37 153 37 118.5 76 c 128,-1,31
 84 115 84 115 65 164 c 128,-1,32
 46 213 46 213 46 264 c 0,0,1
531 274 m 1,33,34
 528 326 528 326 509 371 c 128,-1,35
 490 416 490 416 459.5 448.5 c 128,-1,36
 429 481 429 481 386.5 500 c 128,-1,37
 344 519 344 519 293 519 c 0,38,39
 241 519 241 519 199.5 497 c 128,-1,40
 158 475 158 475 129 440.5 c 128,-1,41
 100 406 100 406 84.5 362 c 128,-1,42
 69 318 69 318 67 274 c 1,43,-1
 531 274 l 1,33,34
EndSplineSet
Substitution2: "'smcp' Lowercase to Small Capitals in Latin lookup 2 subtable" E.sc
Substitution2: "'aalt' Access All Alternates in Latin lookup 0 subtable" E.sc
EndChar

StartChar: eight
Encoding: 56 56 140
Width: 588
Flags: W
HStem: -10 20<225.123 363.167> 380 20<227.75 360.344> 707 20<226.942 359.415>
VStem: 51 21<137.613 251.497> 78 20<506.979 601.81> 490 21<502.825 604.344> 517 21<141.69 252.061>
LayerCount: 2
Fore
SplineSet
538 195 m 1,0,1
 535 148 535 148 514 111 c 128,-1,2
 493 74 493 74 461.5 48 c 128,-1,3
 430 22 430 22 390.5 7.5 c 128,-1,4
 351 -7 351 -7 310 -10 c 1,5,-1
 294 -10 l 2,6,7
 249 -10 249 -10 206 4.5 c 128,-1,8
 163 19 163 19 128 46 c 128,-1,9
 93 73 93 73 72 110.5 c 128,-1,10
 51 148 51 148 51 195 c 0,11,12
 51 233 51 233 65.5 265 c 128,-1,13
 80 297 80 297 104 322 c 128,-1,14
 128 347 128 347 158 364.5 c 128,-1,15
 188 382 188 382 219 390 c 1,16,17
 190 400 190 400 164.5 415.5 c 128,-1,18
 139 431 139 431 119.5 452 c 128,-1,19
 100 473 100 473 89 498 c 128,-1,20
 78 523 78 523 78 553 c 0,21,22
 78 595 78 595 98.5 627.5 c 128,-1,23
 119 660 119 660 150 682.5 c 128,-1,24
 181 705 181 705 219.5 716 c 128,-1,25
 258 727 258 727 294 727 c 0,26,27
 332 727 332 727 371 715 c 128,-1,28
 410 703 410 703 441 680.5 c 128,-1,29
 472 658 472 658 491.5 626 c 128,-1,30
 511 594 511 594 511 553 c 0,31,32
 511 521 511 521 498.5 495 c 128,-1,33
 486 469 486 469 465.5 448.5 c 128,-1,34
 445 428 445 428 419.5 413 c 128,-1,35
 394 398 394 398 369 390 c 1,36,37
 404 380 404 380 434.5 361.5 c 128,-1,38
 465 343 465 343 488 318 c 128,-1,39
 511 293 511 293 524.5 262 c 128,-1,40
 538 231 538 231 538 195 c 1,0,1
517 195 m 0,41,42
 517 239 517 239 496.5 273 c 128,-1,43
 476 307 476 307 444 331 c 128,-1,44
 412 355 412 355 372 367.5 c 128,-1,45
 332 380 332 380 294 380 c 0,46,47
 254 380 254 380 214 366.5 c 128,-1,48
 174 353 174 353 142.5 329 c 128,-1,49
 111 305 111 305 91.5 271 c 128,-1,50
 72 237 72 237 72 195 c 0,51,52
 72 151 72 151 92.5 116.5 c 128,-1,53
 113 82 113 82 145 58.5 c 128,-1,54
 177 35 177 35 216.5 22.5 c 128,-1,55
 256 10 256 10 294 10 c 0,56,57
 334 10 334 10 374 23 c 128,-1,58
 414 36 414 36 445.5 60 c 128,-1,59
 477 84 477 84 497 118.5 c 128,-1,60
 517 153 517 153 517 195 c 0,41,42
98 553 m 1,61,62
 100 515 100 515 118.5 486.5 c 128,-1,63
 137 458 137 458 165.5 439 c 128,-1,64
 194 420 194 420 227.5 410 c 128,-1,65
 261 400 261 400 294 400 c 0,66,67
 328 400 328 400 362.5 410.5 c 128,-1,68
 397 421 397 421 425.5 440.5 c 128,-1,69
 454 460 454 460 472 488.5 c 128,-1,70
 490 517 490 517 490 553 c 0,71,72
 490 591 490 591 471.5 619.5 c 128,-1,73
 453 648 453 648 423.5 667.5 c 128,-1,74
 394 687 394 687 360 697 c 128,-1,75
 326 707 326 707 294 707 c 0,76,77
 260 707 260 707 225 696.5 c 128,-1,78
 190 686 190 686 162 666 c 128,-1,79
 134 646 134 646 116 617.5 c 128,-1,80
 98 589 98 589 98 553 c 1,61,62
EndSplineSet
Substitution2: "'salt' Stylistic Alternatives in Latin lookup 5 subtable" eight.alt
Substitution2: "'lnum' Lining Figures in Latin lookup 3 subtable" eight.alt
Substitution2: "'aalt' Access All Alternates in Latin lookup 0 subtable" eight.alt
EndChar

StartChar: eight.alt
Encoding: 65569 -1 141
Width: 596
Flags: W
HStem: -10 20<229.123 367.167> 380 20<231.75 364.344> 707 20<231.774 363.415>
VStem: 55 21<137.613 251.497> 82 20<506.979 601.81> 495 20<504.565 602.827> 521 21<141.69 252.061>
LayerCount: 2
Fore
SplineSet
542 195 m 1,0,1
 539 148 539 148 518 111 c 128,-1,2
 497 74 497 74 465.5 48 c 128,-1,3
 434 22 434 22 394.5 7.5 c 128,-1,4
 355 -7 355 -7 314 -10 c 1,5,-1
 298 -10 l 2,6,7
 253 -10 253 -10 210 4.5 c 128,-1,8
 167 19 167 19 132 46 c 128,-1,9
 97 73 97 73 76 110.5 c 128,-1,10
 55 148 55 148 55 195 c 0,11,12
 55 233 55 233 69.5 265 c 128,-1,13
 84 297 84 297 108 322 c 128,-1,14
 132 347 132 347 162.5 364.5 c 128,-1,15
 193 382 193 382 223 390 c 1,16,17
 194 400 194 400 168.5 415.5 c 128,-1,18
 143 431 143 431 123.5 452 c 128,-1,19
 104 473 104 473 93 498 c 128,-1,20
 82 523 82 523 82 553 c 0,21,22
 82 595 82 595 102.5 627.5 c 128,-1,23
 123 660 123 660 154 682.5 c 128,-1,24
 185 705 185 705 223.5 716 c 128,-1,25
 262 727 262 727 298 727 c 0,26,27
 336 727 336 727 375 715 c 128,-1,28
 414 703 414 703 445 680.5 c 128,-1,29
 476 658 476 658 495.5 626 c 128,-1,30
 515 594 515 594 515 553 c 0,31,32
 515 521 515 521 502.5 495 c 128,-1,33
 490 469 490 469 470 448.5 c 128,-1,34
 450 428 450 428 424 413 c 128,-1,35
 398 398 398 398 373 390 c 1,36,37
 408 380 408 380 438.5 361.5 c 128,-1,38
 469 343 469 343 492 318 c 128,-1,39
 515 293 515 293 528.5 262 c 128,-1,40
 542 231 542 231 542 195 c 1,0,1
521 195 m 0,41,42
 521 239 521 239 500.5 273 c 128,-1,43
 480 307 480 307 448 331 c 128,-1,44
 416 355 416 355 376 367.5 c 128,-1,45
 336 380 336 380 298 380 c 0,46,47
 258 380 258 380 218 366.5 c 128,-1,48
 178 353 178 353 146.5 329 c 128,-1,49
 115 305 115 305 95.5 271 c 128,-1,50
 76 237 76 237 76 195 c 0,51,52
 76 151 76 151 96.5 116.5 c 128,-1,53
 117 82 117 82 149 58.5 c 128,-1,54
 181 35 181 35 220.5 22.5 c 128,-1,55
 260 10 260 10 298 10 c 0,56,57
 338 10 338 10 378 23 c 128,-1,58
 418 36 418 36 449.5 60 c 128,-1,59
 481 84 481 84 501 118.5 c 128,-1,60
 521 153 521 153 521 195 c 0,41,42
102 553 m 1,61,62
 104 515 104 515 122.5 486.5 c 128,-1,63
 141 458 141 458 169.5 439 c 128,-1,64
 198 420 198 420 231.5 410 c 128,-1,65
 265 400 265 400 298 400 c 0,66,67
 332 400 332 400 366.5 410.5 c 128,-1,68
 401 421 401 421 429.5 440.5 c 128,-1,69
 458 460 458 460 476.5 488.5 c 128,-1,70
 495 517 495 517 495 553 c 0,71,72
 495 591 495 591 476 619.5 c 128,-1,73
 457 648 457 648 427.5 667.5 c 128,-1,74
 398 687 398 687 364 697 c 128,-1,75
 330 707 330 707 298 707 c 0,76,77
 264 707 264 707 229.5 696.5 c 128,-1,78
 195 686 195 686 166.5 666 c 128,-1,79
 138 646 138 646 120 617.5 c 128,-1,80
 102 589 102 589 102 553 c 1,61,62
EndSplineSet
Substitution2: "'onum' Oldstyle Figures in Latin lookup 4 subtable" eight
EndChar

StartChar: ellipsis
Encoding: 8230 8230 142
Width: 379
Flags: W
HStem: 0 66<83 103 180 201 278 298>
VStem: 83 20<0 66> 180 21<0 66> 278 20<0 66>
CounterMasks: 1 70
LayerCount: 2
Fore
SplineSet
83 0 m 1,0,-1
 83 66 l 1,1,-1
 103 66 l 1,2,-1
 103 0 l 1,3,-1
 83 0 l 1,0,-1
180 0 m 1,4,-1
 180 66 l 1,5,-1
 201 66 l 1,6,-1
 201 0 l 1,7,-1
 180 0 l 1,4,-1
278 0 m 1,8,-1
 278 66 l 1,9,-1
 298 66 l 1,10,-1
 298 0 l 1,11,-1
 278 0 l 1,8,-1
EndSplineSet
EndChar

StartChar: emdash
Encoding: 8212 8212 143
Width: 922
Flags: W
HStem: 267 21<83 840>
LayerCount: 2
Fore
SplineSet
83 267 m 1,0,-1
 83 288 l 1,1,-1
 840 288 l 1,2,-1
 840 267 l 1,3,-1
 83 267 l 1,0,-1
EndSplineSet
EndChar

StartChar: endash
Encoding: 8211 8211 144
Width: 577
Flags: W
HStem: 267 21<83 496>
LayerCount: 2
Fore
SplineSet
83 267 m 1,0,-1
 83 288 l 1,1,-1
 496 288 l 1,2,-1
 496 267 l 1,3,-1
 83 267 l 1,0,-1
EndSplineSet
EndChar

StartChar: equal
Encoding: 61 61 145
Width: 450
Flags: W
HStem: 237 20<76 376> 308 21<76 376>
VStem: 76 300<237 257 308 329>
LayerCount: 2
Fore
SplineSet
76 237 m 1,0,-1
 76 257 l 1,1,-1
 376 257 l 1,2,-1
 376 237 l 1,3,-1
 76 237 l 1,0,-1
76 308 m 1,4,-1
 76 329 l 1,5,-1
 376 329 l 1,6,-1
 376 308 l 1,7,-1
 76 308 l 1,4,-1
EndSplineSet
EndChar

StartChar: exclam
Encoding: 33 33 146
Width: 137
Flags: W
HStem: 0 21G<68 88>
VStem: 68 20<0 86 205 734>
LayerCount: 2
Fore
SplineSet
68 205 m 1,0,-1
 68 734 l 1,1,-1
 88 734 l 1,2,-1
 88 205 l 1,3,-1
 68 205 l 1,0,-1
68 0 m 1,4,-1
 68 86 l 1,5,-1
 88 86 l 1,6,-1
 88 0 l 1,7,-1
 68 0 l 1,4,-1
EndSplineSet
EndChar

StartChar: exclamdown
Encoding: 161 161 147
Width: 143
Flags: W
HStem: 0 21G<75 95>
VStem: 75 20<0 529 648 734>
LayerCount: 2
Fore
SplineSet
95 529 m 1,0,-1
 95 0 l 1,1,-1
 75 0 l 1,2,-1
 75 529 l 1,3,-1
 95 529 l 1,0,-1
95 734 m 1,4,-1
 95 648 l 1,5,-1
 75 648 l 1,6,-1
 75 734 l 1,7,-1
 95 734 l 1,4,-1
EndSplineSet
EndChar

StartChar: f
Encoding: 102 102 148
Width: 345
Flags: W
HStem: 0 21G<97 118> 449 20<20 97 118 276> 737 21<186.562 295.697>
VStem: 97 21<0 449 469 638.179>
LayerCount: 2
Fore
SplineSet
97 0 m 1,0,-1
 97 449 l 1,1,-1
 20 449 l 1,2,-1
 20 469 l 1,3,-1
 97 469 l 1,4,-1
 97 553 l 2,5,6
 97 587 97 587 104 623 c 128,-1,7
 111 659 111 659 126 689.5 c 128,-1,8
 141 720 141 720 167.5 739 c 128,-1,9
 194 758 194 758 232 758 c 0,10,11
 260 758 260 758 279.5 753 c 128,-1,12
 299 748 299 748 311 741 c 256,13,14
 323 735 323 735 329 729.5 c 128,-1,15
 335 724 335 724 335 723 c 2,16,-1
 318 711 l 1,17,18
 301 728 301 728 278 732.5 c 128,-1,19
 255 737 255 737 232 737 c 0,20,21
 195 737 195 737 173 717.5 c 128,-1,22
 151 698 151 698 138.5 670 c 128,-1,23
 126 642 126 642 122 610 c 128,-1,24
 118 578 118 578 118 553 c 2,25,-1
 118 469 l 1,26,-1
 276 469 l 1,27,-1
 276 449 l 1,28,-1
 118 449 l 1,29,-1
 118 0 l 1,30,-1
 97 0 l 1,0,-1
EndSplineSet
Substitution2: "'smcp' Lowercase to Small Capitals in Latin lookup 2 subtable" F.sc
Substitution2: "'aalt' Access All Alternates in Latin lookup 0 subtable" F.sc
EndChar

StartChar: five
Encoding: 53 53 149
Width: 538
Flags: W
HStem: -153 21<206.125 344.954> 293 20<210.915 348.548> 564 21<157 484>
VStem: 496 20<16.9255 149.771>
LayerCount: 2
Fore
SplineSet
482 208 m 0,0,1
 516 153 516 153 516 84 c 0,2,3
 516 31 516 31 496.5 -12.5 c 128,-1,4
 477 -56 477 -56 444 -87.5 c 128,-1,5
 411 -119 411 -119 367.5 -136 c 128,-1,6
 324 -153 324 -153 275 -153 c 0,7,8
 236 -153 236 -153 201.5 -142 c 128,-1,9
 167 -131 167 -131 137.5 -111 c 128,-1,10
 108 -91 108 -91 84.5 -64 c 128,-1,11
 61 -37 61 -37 46 -3 c 1,12,-1
 69 -3 l 1,13,14
 97 -61 97 -61 152 -96.5 c 128,-1,15
 207 -132 207 -132 275 -132 c 0,16,17
 321 -132 321 -132 361 -116 c 128,-1,18
 401 -100 401 -100 431 -71.5 c 128,-1,19
 461 -43 461 -43 478.5 -3.5 c 128,-1,20
 496 36 496 36 496 84 c 0,21,22
 496 130 496 130 479 168.5 c 128,-1,23
 462 207 462 207 432.5 234.5 c 128,-1,24
 403 262 403 262 364.5 277.5 c 128,-1,25
 326 293 326 293 281 293 c 0,26,27
 223 293 223 293 170.5 267.5 c 128,-1,28
 118 242 118 242 84 193 c 1,29,-1
 59 193 l 1,30,31
 61 202 61 202 66 223.5 c 128,-1,32
 71 245 71 245 77 274 c 128,-1,33
 83 303 83 303 89.5 337.5 c 128,-1,34
 96 372 96 372 103 407 c 0,35,36
 119 488 119 488 139 585 c 1,37,-1
 484 585 l 1,38,-1
 484 564 l 1,39,-1
 157 564 l 1,40,-1
 90 231 l 1,41,42
 127 271 127 271 176.5 292 c 128,-1,43
 226 313 226 313 281 313 c 0,44,45
 346 313 346 313 399 284.5 c 128,-1,46
 452 256 452 256 482 208 c 0,0,1
EndSplineSet
Substitution2: "'salt' Stylistic Alternatives in Latin lookup 5 subtable" five.alt
Substitution2: "'lnum' Lining Figures in Latin lookup 3 subtable" five.alt
Substitution2: "'aalt' Access All Alternates in Latin lookup 0 subtable" five.alt
EndChar

StartChar: five.alt
Encoding: 65570 -1 150
Width: 544
Flags: W
HStem: -10 20<212.03 348.143> 435 21<213.261 354.246> 707 20<161 488>
VStem: 500 20<158.925 291.771>
LayerCount: 2
Fore
SplineSet
486 350 m 0,0,1
 520 295 520 295 520 226 c 0,2,3
 520 173 520 173 500.5 129.5 c 128,-1,4
 481 86 481 86 448 55 c 128,-1,5
 415 24 415 24 371.5 7 c 128,-1,6
 328 -10 328 -10 280 -10 c 0,7,8
 241 -10 241 -10 206 0.5 c 128,-1,9
 171 11 171 11 141.5 31 c 128,-1,10
 112 51 112 51 89 78 c 128,-1,11
 66 105 66 105 50 139 c 1,12,-1
 73 139 l 1,13,14
 101 81 101 81 156 45.5 c 128,-1,15
 211 10 211 10 280 10 c 0,16,17
 326 10 326 10 366 26 c 128,-1,18
 406 42 406 42 435.5 70.5 c 128,-1,19
 465 99 465 99 482.5 138.5 c 128,-1,20
 500 178 500 178 500 226 c 0,21,22
 500 272 500 272 483 310.5 c 128,-1,23
 466 349 466 349 437 376.5 c 128,-1,24
 408 404 408 404 369 419.5 c 128,-1,25
 330 435 330 435 285 435 c 0,26,27
 227 435 227 435 174.5 409.5 c 128,-1,28
 122 384 122 384 88 335 c 1,29,-1
 63 335 l 1,30,31
 65 344 65 344 70 365.5 c 128,-1,32
 75 387 75 387 81 416 c 128,-1,33
 87 445 87 445 93.5 479.5 c 128,-1,34
 100 514 100 514 108 549 c 0,35,36
 124 630 124 630 143 727 c 1,37,-1
 488 727 l 1,38,-1
 488 707 l 1,39,-1
 161 707 l 1,40,-1
 94 374 l 1,41,42
 131 414 131 414 180.5 435 c 128,-1,43
 230 456 230 456 285 456 c 0,44,45
 350 456 350 456 403 427 c 128,-1,46
 456 398 456 398 486 350 c 0,0,1
EndSplineSet
Substitution2: "'onum' Oldstyle Figures in Latin lookup 4 subtable" five
EndChar

StartChar: fl
Encoding: 64258 64258 151
Width: 534
Flags: W
HStem: -5 19<450.352 544.5> 449 20<42 119 139 267> 737 21<222.323 334.295>
VStem: 119 20<0 449 469 625.429> 401 21<43.6138 675.553>
LayerCount: 2
Fore
SplineSet
555 4 m 1,0,1
 548.5 2.5 l 0,2,3
 542 1 542 1 531.5 -0.5 c 128,-1,4
 521 -2 521 -2 508.5 -3.5 c 128,-1,5
 496 -5 496 -5 482 -5 c 0,6,7
 443 -5 443 -5 422 20 c 128,-1,8
 401 45 401 45 401 79 c 2,9,-1
 401 628 l 2,10,11
 401 648 401 648 394 667.5 c 128,-1,12
 387 687 387 687 371.5 702.5 c 128,-1,13
 356 718 356 718 332 727.5 c 128,-1,14
 308 737 308 737 274 737 c 0,15,16
 237 737 237 737 211.5 721 c 128,-1,17
 186 705 186 705 170.5 678 c 128,-1,18
 155 651 155 651 147 618.5 c 128,-1,19
 139 586 139 586 139 553 c 2,20,-1
 139 469 l 1,21,-1
 267 469 l 1,22,-1
 267 449 l 1,23,-1
 139 449 l 1,24,-1
 139 0 l 1,25,-1
 119 0 l 1,26,-1
 119 449 l 1,27,-1
 42 449 l 1,28,-1
 42 469 l 1,29,-1
 119 469 l 1,30,-1
 119 553 l 2,31,32
 119 595 119 595 127 632.5 c 128,-1,33
 135 670 135 670 153.5 697.5 c 128,-1,34
 172 725 172 725 201.5 741.5 c 128,-1,35
 231 758 231 758 274 758 c 0,36,37
 309 758 309 758 337 747.5 c 128,-1,38
 365 737 365 737 383.5 719.5 c 128,-1,39
 402 702 402 702 412 678.5 c 128,-1,40
 422 655 422 655 422 629 c 2,41,-1
 422 79 l 2,42,43
 422 56 422 56 438 35 c 128,-1,44
 454 14 454 14 483 14 c 0,45,46
 493 14 493 14 504 15.5 c 128,-1,47
 515 17 515 17 524.5 18.5 c 128,-1,48
 534 20 534 20 540 22 c 0,49,-1
 546 24 l 1,50,-1
 555 4 l 1,0,1
EndSplineSet
Ligature2: "'liga' Standard Ligatures in Latin lookup 6 subtable" f l
EndChar

StartChar: four
Encoding: 52 52 152
Width: 519
Flags: W
HStem: 74 20<30 375 395 485>
VStem: 375 20<-130 74 94 547>
LayerCount: 2
Fore
SplineSet
375 -130 m 1,0,-1
 375 74 l 1,1,-1
 1 74 l 1,2,-1
 1 91 l 1,3,-1
 381 585 l 1,4,-1
 395 585 l 1,5,-1
 395 94 l 1,6,-1
 485 94 l 1,7,-1
 485 74 l 1,8,-1
 395 74 l 1,9,-1
 395 -130 l 1,10,-1
 375 -130 l 1,0,-1
30 94 m 1,11,-1
 375 94 l 1,12,-1
 375 547 l 1,13,-1
 30 94 l 1,11,-1
EndSplineSet
Substitution2: "'salt' Stylistic Alternatives in Latin lookup 5 subtable" four.alt
Substitution2: "'lnum' Lining Figures in Latin lookup 3 subtable" four.alt
Substitution2: "'aalt' Access All Alternates in Latin lookup 0 subtable" four.alt
EndChar

StartChar: four.alt
Encoding: 65571 -1 153
Width: 544
Flags: W
HStem: 0 21G<395 416> 216 21<30 395 416 506> 707 20G<384.806 416>
VStem: 395 21<0 216 237 689>
LayerCount: 2
Fore
SplineSet
395 0 m 1,0,-1
 395 216 l 1,1,-1
 1 216 l 1,2,-1
 1 233 l 1,3,-1
 401 727 l 1,4,-1
 416 727 l 1,5,-1
 416 237 l 1,6,-1
 506 237 l 1,7,-1
 506 216 l 1,8,-1
 416 216 l 1,9,-1
 416 0 l 1,10,-1
 395 0 l 1,0,-1
30 237 m 1,11,-1
 395 237 l 1,12,-1
 395 689 l 1,13,-1
 30 237 l 1,11,-1
EndSplineSet
Substitution2: "'onum' Oldstyle Figures in Latin lookup 4 subtable" four
EndChar

StartChar: g
Encoding: 103 103 154
Width: 616
Flags: W
HStem: -228 20<230.051 380.57> -10 20<246.7 370.598> 519 21<234.82 366.221>
VStem: 55 21<191.626 338.756> 519 21<-87.0066 111 134.353 388.663 408 529>
LayerCount: 2
Fore
SplineSet
540 529 m 1,0,-1
 540 -23 l 2,1,2
 540 -75 540 -75 520.5 -114 c 128,-1,3
 501 -153 501 -153 468 -178.5 c 128,-1,4
 435 -204 435 -204 392.5 -216 c 128,-1,5
 350 -228 350 -228 305 -228 c 0,6,7
 211 -228 211 -228 157.5 -193.5 c 128,-1,8
 104 -159 104 -159 75 -101 c 1,9,-1
 94 -95 l 1,10,11
 127 -155 127 -155 184 -181.5 c 128,-1,12
 241 -208 241 -208 305 -208 c 0,13,14
 349 -208 349 -208 388 -196 c 128,-1,15
 427 -184 427 -184 456 -160.5 c 128,-1,16
 485 -137 485 -137 502 -103 c 128,-1,17
 519 -69 519 -69 519 -23 c 2,18,-1
 519 111 l 1,19,20
 502 84 502 84 479 62 c 128,-1,21
 456 40 456 40 428.5 23.5 c 128,-1,22
 401 7 401 7 371.5 -1.5 c 128,-1,23
 342 -10 342 -10 311 -10 c 0,24,25
 256 -10 256 -10 209 13.5 c 128,-1,26
 162 37 162 37 127.5 76 c 128,-1,27
 93 115 93 115 74 164 c 128,-1,28
 55 213 55 213 55 264 c 0,29,30
 55 317 55 317 73 367 c 128,-1,31
 91 417 91 417 124 455.5 c 128,-1,32
 157 494 157 494 202.5 517 c 128,-1,33
 248 540 248 540 302 540 c 0,34,35
 338 540 338 540 369 529.5 c 128,-1,36
 400 519 400 519 427.5 501 c 128,-1,37
 455 483 455 483 477.5 459 c 128,-1,38
 500 435 500 435 519 408 c 1,39,-1
 519 529 l 1,40,-1
 540 529 l 1,0,-1
502 122 m 0,41,42
 519 151 519 151 519 173 c 2,43,-1
 519 365 l 1,44,45
 507 399 507 399 484 427 c 128,-1,46
 461 455 461 455 432 475.5 c 128,-1,47
 403 496 403 496 369.5 507.5 c 128,-1,48
 336 519 336 519 302 519 c 0,49,50
 248 519 248 519 206 496 c 128,-1,51
 164 473 164 473 135 436.5 c 128,-1,52
 106 400 106 400 91 354.5 c 128,-1,53
 76 309 76 309 76 264 c 0,54,55
 76 214 76 214 94.5 168.5 c 128,-1,56
 113 123 113 123 144.5 87.5 c 128,-1,57
 176 52 176 52 219 31 c 128,-1,58
 262 10 262 10 311 10 c 0,59,60
 340 10 340 10 368 19 c 128,-1,61
 396 28 396 28 421 42.5 c 128,-1,62
 446 57 446 57 467 77.5 c 128,-1,63
 488 98 488 98 502 122 c 0,41,42
EndSplineSet
Substitution2: "'smcp' Lowercase to Small Capitals in Latin lookup 2 subtable" G.sc
Substitution2: "'aalt' Access All Alternates in Latin lookup 0 subtable" G.sc
EndChar

StartChar: germandbls
Encoding: 223 223 155
Width: 553
Flags: W
HStem: -6 20<228 319.63> 402 21<257 328.89> 711 20<195.686 317.534>
VStem: 79 20<0 605.106> 431 21<510.748 616.928> 484 21<144.083 276.299>
LayerCount: 2
Fore
SplineSet
228 14 m 1,0,1
 281 15 281 15 328 25.5 c 128,-1,2
 375 36 375 36 409.5 59.5 c 128,-1,3
 444 83 444 83 464 121 c 128,-1,4
 484 159 484 159 484 216 c 0,5,6
 484 261 484 261 465 296 c 128,-1,7
 446 331 446 331 415.5 354.5 c 128,-1,8
 385 378 385 378 346 390 c 128,-1,9
 307 402 307 402 267 402 c 2,10,-1
 257 402 l 1,11,-1
 257 423 l 1,12,-1
 266 423 l 1,13,14
 298 424 298 424 328 433 c 128,-1,15
 358 442 358 442 380.5 460 c 128,-1,16
 403 478 403 478 417 503.5 c 128,-1,17
 431 529 431 529 431 564 c 0,18,19
 431 601 431 601 415 628 c 128,-1,20
 399 655 399 655 373.5 673.5 c 128,-1,21
 348 692 348 692 316.5 701.5 c 128,-1,22
 285 711 285 711 253 711 c 0,23,24
 216 711 216 711 187.5 697.5 c 128,-1,25
 159 684 159 684 139.5 661 c 128,-1,26
 120 638 120 638 109.5 607.5 c 128,-1,27
 99 577 99 577 99 542 c 2,28,-1
 99 0 l 1,29,-1
 79 0 l 1,30,-1
 79 542 l 2,31,32
 79 583 79 583 91 617 c 128,-1,33
 103 651 103 651 126.5 676.5 c 128,-1,34
 150 702 150 702 181.5 716.5 c 128,-1,35
 213 731 213 731 253 731 c 0,36,37
 291 731 291 731 326.5 720 c 128,-1,38
 362 709 362 709 390 687.5 c 128,-1,39
 418 666 418 666 435 634.5 c 128,-1,40
 452 603 452 603 452 564 c 0,41,42
 452 508 452 508 419.5 468.5 c 128,-1,43
 387 429 387 429 338 413 c 1,44,45
 415 390 415 390 460 341.5 c 128,-1,46
 505 293 505 293 505 216 c 0,47,48
 505 150 505 150 481.5 107.5 c 128,-1,49
 458 65 458 65 419 39.5 c 128,-1,50
 380 14 380 14 330.5 4 c 128,-1,51
 281 -6 281 -6 228 -6 c 1,52,-1
 228 14 l 1,0,1
EndSplineSet
EndChar

StartChar: grave
Encoding: 96 96 156
Width: 125
Flags: W
HStem: 613 108
VStem: 5 100
LayerCount: 2
Fore
SplineSet
5 721 m 1,0,-1
 39 721 l 1,1,-1
 105 626 l 1,2,-1
 89 613 l 1,3,-1
 5 721 l 1,0,-1
EndSplineSet
EndChar

StartChar: greater
Encoding: 62 62 157
Width: 485
Flags: W
HStem: 0 21G<56 89.3594>
LayerCount: 2
Fore
SplineSet
483 256 m 1,0,-1
 56 0 l 1,1,-1
 56 23 l 1,2,-1
 454 265 l 1,3,-1
 56 507 l 1,4,-1
 56 529 l 1,5,-1
 483 274 l 1,6,-1
 483 256 l 1,0,-1
EndSplineSet
EndChar

StartChar: h
Encoding: 104 104 158
Width: 545
Flags: W
HStem: 0 21G<82 102 474 495> 519 21<263.01 384.516>
VStem: 82 20<0 364.025 394 750> 474 21<0 403.335>
LayerCount: 2
Fore
SplineSet
495 296 m 2,0,-1
 495 0 l 1,1,-1
 474 0 l 1,2,-1
 474 296 l 2,3,4
 474 338 474 338 468.5 378 c 128,-1,5
 463 418 463 418 446.5 449.5 c 128,-1,6
 430 481 430 481 401 500 c 128,-1,7
 372 519 372 519 325 519 c 0,8,9
 285 519 285 519 248.5 503 c 128,-1,10
 212 487 212 487 183 461.5 c 128,-1,11
 154 436 154 436 133 403.5 c 128,-1,12
 112 371 112 371 102 336 c 1,13,-1
 102 0 l 1,14,-1
 82 0 l 1,15,-1
 82 750 l 1,16,-1
 102 750 l 1,17,-1
 102 394 l 1,18,19
 118 428 118 428 143.5 455 c 128,-1,20
 169 482 169 482 198 500.5 c 128,-1,21
 227 519 227 519 259.5 529.5 c 128,-1,22
 292 540 292 540 325 540 c 0,23,24
 381 540 381 540 414 517 c 128,-1,25
 447 494 447 494 465 458.5 c 128,-1,26
 483 423 483 423 489 379.5 c 128,-1,27
 495 336 495 336 495 296 c 2,0,-1
EndSplineSet
Substitution2: "'smcp' Lowercase to Small Capitals in Latin lookup 2 subtable" H.sc
Substitution2: "'aalt' Access All Alternates in Latin lookup 0 subtable" H.sc
EndChar

StartChar: hyphen
Encoding: 45 45 159
Width: 440
Flags: W
HStem: 267 21<76 366>
VStem: 76 290<267 288>
LayerCount: 2
Fore
SplineSet
76 267 m 1,0,-1
 76 288 l 1,1,-1
 366 288 l 1,2,-1
 366 267 l 1,3,-1
 76 267 l 1,0,-1
EndSplineSet
EndChar

StartChar: i
Encoding: 105 105 160
Width: 133
Flags: W
HStem: 0 21G<61 82> 669 65<61 82>
VStem: 61 21<0 529 669 734>
LayerCount: 2
Fore
SplineSet
61 0 m 1,0,-1
 61 529 l 1,1,-1
 82 529 l 1,2,-1
 82 0 l 1,3,-1
 61 0 l 1,0,-1
61 669 m 1,4,-1
 61 734 l 1,5,-1
 82 734 l 1,6,-1
 82 669 l 1,7,-1
 61 669 l 1,4,-1
EndSplineSet
Substitution2: "'smcp' Lowercase to Small Capitals in Latin lookup 2 subtable" I.sc
Substitution2: "'aalt' Access All Alternates in Latin lookup 0 subtable" I.sc
EndChar

StartChar: j
Encoding: 106 106 165
Width: 248
Flags: W
HStem: -174 20<2.22168 103.261> 669 65<177 198>
VStem: 177 21<-83.1704 529 669 734>
LayerCount: 2
Fore
SplineSet
61 -174 m 0,0,1
 31 -173 31 -173 5.5 -166.5 c 128,-1,2
 -20 -160 -20 -160 -41 -139 c 1,3,-1
 -25 -127 l 1,4,5
 -7 -143 -7 -143 16 -148.5 c 128,-1,6
 39 -154 39 -154 60 -154 c 256,7,8
 82 -154 82 -154 102.5 -144.5 c 128,-1,9
 123 -135 123 -135 140 -119.5 c 128,-1,10
 157 -104 157 -104 167 -82.5 c 128,-1,11
 177 -61 177 -61 177 -37 c 2,12,-1
 177 529 l 1,13,-1
 198 529 l 1,14,-1
 198 -37 l 2,15,16
 198 -67 198 -67 185.5 -92 c 128,-1,17
 173 -117 173 -117 153.5 -135.5 c 128,-1,18
 134 -154 134 -154 109.5 -164 c 128,-1,19
 85 -174 85 -174 61 -174 c 0,0,1
177 669 m 1,20,-1
 177 734 l 1,21,-1
 198 734 l 1,22,-1
 198 669 l 1,23,-1
 177 669 l 1,20,-1
EndSplineSet
Substitution2: "'salt' Stylistic Alternatives in Latin lookup 5 subtable" j.alt
Substitution2: "'smcp' Lowercase to Small Capitals in Latin lookup 2 subtable" J.sc
AlternateSubs2: "'aalt' Access All Alternates in Latin lookup 1 subtable" J.sc j.alt
EndChar

StartChar: j.alt
Encoding: 65572 -1 166
Width: 123
Flags: W
HStem: -218 21G<62 83> 669 65<62 83>
VStem: 62 21<-218 529 669 734>
LayerCount: 2
Fore
SplineSet
62 -218 m 1,0,-1
 62 529 l 1,1,-1
 83 529 l 1,2,-1
 83 -218 l 1,3,-1
 62 -218 l 1,0,-1
62 669 m 1,4,-1
 62 734 l 1,5,-1
 83 734 l 1,6,-1
 83 669 l 1,7,-1
 62 669 l 1,4,-1
EndSplineSet
EndChar

StartChar: k
Encoding: 107 107 167
Width: 502
Flags: W
HStem: 0 21G<82 102 458.132 498> 728 20G<82 102>
VStem: 82 20<0 173 201 748>
LayerCount: 2
Fore
SplineSet
473 0 m 1,0,-1
 247 304 l 1,1,-1
 102 173 l 1,2,-1
 102 0 l 1,3,-1
 82 0 l 1,4,-1
 82 748 l 1,5,-1
 102 748 l 1,6,-1
 102 201 l 1,7,-1
 465 529 l 1,8,-1
 493 529 l 1,9,-1
 262 318 l 1,10,-1
 498 0 l 1,11,-1
 473 0 l 1,0,-1
EndSplineSet
Substitution2: "'smcp' Lowercase to Small Capitals in Latin lookup 2 subtable" K.sc
Substitution2: "'aalt' Access All Alternates in Latin lookup 0 subtable" K.sc
EndChar

StartChar: l
Encoding: 108 108 168
Width: 245
Flags: W
HStem: -5 19<140.393 235.375> -0.5 19<174.313 238.035> 728 20G<92 113>
VStem: 92 21<42.9453 748>
LayerCount: 2
Fore
SplineSet
92 79 m 2,0,-1
 92 748 l 1,1,-1
 113 748 l 1,2,-1
 113 79 l 2,3,4
 113 56 113 56 128.5 35 c 128,-1,5
 144 14 144 14 174 14 c 0,6,7
 184 14 184 14 195 15.5 c 128,-1,8
 206 17 206 17 215 18.5 c 128,-1,9
 224 20 224 20 230.5 22 c 0,10,-1
 237 24 l 1,11,-1
 246 4 l 1,12,13
 239 2.5 l 0,14,15
 232 1 232 1 222 -0.5 c 128,-1,16
 212 -2 212 -2 199 -3.5 c 128,-1,17
 186 -5 186 -5 173 -5 c 0,18,19
 134 -5 134 -5 113 20 c 128,-1,20
 92 45 92 45 92 79 c 2,0,-1
EndSplineSet
Substitution2: "'salt' Stylistic Alternatives in Latin lookup 5 subtable" l.alt
Substitution2: "'smcp' Lowercase to Small Capitals in Latin lookup 2 subtable" L.sc
AlternateSubs2: "'aalt' Access All Alternates in Latin lookup 1 subtable" L.sc l.alt
EndChar

StartChar: l.alt
Encoding: 65573 -1 169
Width: 172
Flags: W
HStem: 0 21G<83 103> 728 20G<83 103>
VStem: 83 20<0 748>
LayerCount: 2
Fore
SplineSet
83 748 m 1,0,-1
 103 748 l 1,1,-1
 103 0 l 1,2,-1
 83 0 l 1,3,-1
 83 748 l 1,0,-1
EndSplineSet
EndChar

StartChar: less
Encoding: 60 60 170
Width: 482
Flags: W
HStem: 0 21G<395.641 429>
LayerCount: 2
Fore
SplineSet
2 274 m 1,0,-1
 429 529 l 1,1,-1
 429 507 l 1,2,-1
 32 265 l 1,3,-1
 429 23 l 1,4,-1
 429 0 l 1,5,-1
 2 256 l 1,6,-1
 2 274 l 1,0,-1
EndSplineSet
EndChar

StartChar: m
Encoding: 109 109 171
Width: 927
Flags: W
HStem: 0 21G<82 102 454 474 825 846> 511 20G<82 102> 519 21<248.836 368.074 618.181 739.434>
VStem: 82 20<0 365.086 394 531> 454 20<0 364.997 385 404.058> 825 21<0 409.732>
LayerCount: 2
Fore
SplineSet
846 296 m 2,0,-1
 846 0 l 1,1,-1
 825 0 l 1,2,-1
 825 296 l 2,3,4
 825 337 825 337 820.5 377.5 c 128,-1,5
 816 418 816 418 800.5 449 c 128,-1,6
 785 480 785 480 756.5 499.5 c 128,-1,7
 728 519 728 519 681 519 c 0,8,9
 629 519 629 519 588.5 495 c 128,-1,10
 548 471 548 471 519 432 c 0,11,12
 507 415 507 415 498.5 398.5 c 128,-1,13
 490 382 490 382 485 368 c 128,-1,14
 480 354 480 354 477.5 345 c 128,-1,15
 475 336 475 336 474 335 c 1,16,-1
 474 0 l 1,17,-1
 454 0 l 1,18,-1
 454 296 l 2,19,20
 454 345 454 345 447.5 386.5 c 128,-1,21
 441 428 441 428 425 457 c 128,-1,22
 409 486 409 486 381 502.5 c 128,-1,23
 353 519 353 519 309 519 c 0,24,25
 269 519 269 519 235 503 c 128,-1,26
 201 487 201 487 174.5 461.5 c 128,-1,27
 148 436 148 436 130 403.5 c 128,-1,28
 112 371 112 371 102 336 c 1,29,-1
 102 0 l 1,30,-1
 82 0 l 1,31,-1
 82 531 l 1,32,-1
 102 531 l 1,33,-1
 102 394 l 1,34,35
 136 462 136 462 190 501 c 128,-1,36
 244 540 244 540 309 540 c 0,37,38
 346 540 346 540 374.5 527 c 128,-1,39
 403 514 403 514 423 493 c 128,-1,40
 443 472 443 472 455 444 c 128,-1,41
 467 416 467 416 470 385 c 1,42,43
 505 453 505 453 556 496.5 c 128,-1,44
 607 540 607 540 681 540 c 0,45,46
 736 540 736 540 769 517 c 128,-1,47
 802 494 802 494 819 458.5 c 128,-1,48
 836 423 836 423 841 379.5 c 128,-1,49
 846 336 846 336 846 296 c 2,0,-1
EndSplineSet
Substitution2: "'smcp' Lowercase to Small Capitals in Latin lookup 2 subtable" M.sc
Substitution2: "'aalt' Access All Alternates in Latin lookup 0 subtable" M.sc
EndChar

StartChar: n
Encoding: 110 110 172
Width: 571
Flags: W
HStem: 0 21G<83 103 475 496> 511 20G<83 103> 519 21<272.412 395.142>
VStem: 83 20<0 361.969 394 531> 475 21<0 414.756>
LayerCount: 2
Fore
SplineSet
496 296 m 2,0,-1
 496 0 l 1,1,-1
 475 0 l 1,2,-1
 475 296 l 2,3,4
 475 338 475 338 471 378 c 128,-1,5
 467 418 467 418 452.5 449.5 c 128,-1,6
 438 481 438 481 411 500 c 128,-1,7
 384 519 384 519 337 519 c 0,8,9
 296 519 296 519 258 503.5 c 128,-1,10
 220 488 220 488 189.5 462.5 c 128,-1,11
 159 437 159 437 136.5 404 c 128,-1,12
 114 371 114 371 103 336 c 1,13,-1
 103 0 l 1,14,-1
 83 0 l 1,15,-1
 83 531 l 1,16,-1
 103 531 l 1,17,-1
 103 394 l 1,18,19
 119 426 119 426 145 453 c 128,-1,20
 171 480 171 480 201.5 499 c 128,-1,21
 232 518 232 518 267 529 c 128,-1,22
 302 540 302 540 337 540 c 0,23,24
 393 540 393 540 425 517 c 128,-1,25
 457 494 457 494 472.5 458.5 c 128,-1,26
 488 423 488 423 492 379.5 c 128,-1,27
 496 336 496 336 496 296 c 2,0,-1
EndSplineSet
Substitution2: "'smcp' Lowercase to Small Capitals in Latin lookup 2 subtable" N.sc
Substitution2: "'aalt' Access All Alternates in Latin lookup 0 subtable" N.sc
EndChar

StartChar: nine
Encoding: 57 57 173
Width: 609
Flags: W
HStem: -158 21<232.756 366.363> -19 20G<87 111> 88 21<229.956 366.706> 564 21<235.072 364.855>
VStem: 47 21<271.308 399.012> 528 25<110.469 249 262.935 397.201>
LayerCount: 2
Fore
SplineSet
47 337 m 1,0,1
 50 388 50 388 69 432 c 128,-1,2
 88 476 88 476 119.5 509 c 128,-1,3
 151 542 151 542 192 562 c 128,-1,4
 233 582 233 582 282 585 c 1,5,-1
 298 585 l 2,6,7
 348 585 348 585 392 566 c 128,-1,8
 436 547 436 547 469.5 515.5 c 128,-1,9
 503 484 503 484 523.5 442.5 c 128,-1,10
 544 401 544 401 548 356 c 0,11,12
 548 354 548 354 550.5 325 c 128,-1,13
 553 296 553 296 553 250 c 0,14,15
 553 210 553 210 548.5 164.5 c 128,-1,16
 544 119 544 119 532.5 73.5 c 128,-1,17
 521 28 521 28 502.5 -13.5 c 128,-1,18
 484 -55 484 -55 456.5 -87.5 c 128,-1,19
 429 -120 429 -120 391.5 -139 c 128,-1,20
 354 -158 354 -158 305 -158 c 2,21,-1
 298 -158 l 2,22,23
 261 -158 261 -158 227.5 -146.5 c 128,-1,24
 194 -135 194 -135 166 -115 c 128,-1,25
 138 -95 138 -95 117.5 -67.5 c 128,-1,26
 97 -40 97 -40 87 -6 c 1,27,-1
 106 1 l 1,28,29
 116 -32 116 -32 136 -57.5 c 128,-1,30
 156 -83 156 -83 181.5 -101 c 128,-1,31
 207 -119 207 -119 236.5 -128 c 128,-1,32
 266 -137 266 -137 298 -137 c 2,33,-1
 305 -137 l 2,34,35
 352 -137 352 -137 387 -117.5 c 128,-1,36
 422 -98 422 -98 447.5 -66 c 128,-1,37
 473 -34 473 -34 489.5 6.5 c 128,-1,38
 506 47 506 47 515.5 90 c 128,-1,39
 525 133 525 133 528.5 174.5 c 128,-1,40
 532 216 532 216 532 249 c 1,41,42
 518 212 518 212 494 182.5 c 128,-1,43
 470 153 470 153 439.5 132 c 128,-1,44
 409 111 409 111 372.5 99.5 c 128,-1,45
 336 88 336 88 298 88 c 0,46,47
 245 88 245 88 200 108.5 c 128,-1,48
 155 129 155 129 121 163.5 c 128,-1,49
 87 198 87 198 67.5 243 c 128,-1,50
 48 288 48 288 47 337 c 1,0,1
298 564 m 1,51,52
 250 562 250 562 208.5 544 c 128,-1,53
 167 526 167 526 135 495.5 c 128,-1,54
 103 465 103 465 85.5 424.5 c 128,-1,55
 68 384 68 384 68 337 c 0,56,57
 68 289 68 289 86.5 247 c 128,-1,58
 105 205 105 205 137 174 c 128,-1,59
 169 143 169 143 211 126 c 128,-1,60
 253 109 253 109 298 109 c 0,61,62
 346 109 346 109 388 127 c 128,-1,63
 430 145 430 145 461.5 177 c 128,-1,64
 493 209 493 209 510.5 250 c 128,-1,65
 528 291 528 291 528 337 c 0,66,67
 528 385 528 385 509 426.5 c 128,-1,68
 490 468 490 468 458 498.5 c 128,-1,69
 426 529 426 529 384.5 546.5 c 128,-1,70
 343 564 343 564 298 564 c 1,51,52
EndSplineSet
Substitution2: "'salt' Stylistic Alternatives in Latin lookup 5 subtable" nine.alt
Substitution2: "'lnum' Lining Figures in Latin lookup 3 subtable" nine.alt
Substitution2: "'aalt' Access All Alternates in Latin lookup 0 subtable" nine.alt
EndChar

StartChar: nine.alt
Encoding: 65574 -1 174
Width: 618
Flags: W
HStem: -10 20<239.93 369.161> 236 20<236.035 368.881> 712 20<241.025 367.531>
VStem: 51 21<418.308 546.778> 532 25<257.469 396 409.935 545.418>
LayerCount: 2
Fore
SplineSet
51 484 m 1,0,1
 54 535 54 535 73 579.5 c 128,-1,2
 92 624 92 624 123.5 656.5 c 128,-1,3
 155 689 155 689 196.5 709 c 128,-1,4
 238 729 238 729 286 732 c 1,5,-1
 302 732 l 2,6,7
 352 732 352 732 396 713 c 128,-1,8
 440 694 440 694 473.5 663 c 128,-1,9
 507 632 507 632 527.5 590.5 c 128,-1,10
 548 549 548 549 552 504 c 0,11,12
 552 502 552 502 554.5 472.5 c 128,-1,13
 557 443 557 443 557 397 c 0,14,15
 557 357 557 357 552.5 311.5 c 128,-1,16
 548 266 548 266 536.5 220.5 c 128,-1,17
 525 175 525 175 506.5 133.5 c 128,-1,18
 488 92 488 92 460.5 60 c 128,-1,19
 433 28 433 28 395.5 9 c 128,-1,20
 358 -10 358 -10 309 -10 c 2,21,-1
 302 -10 l 2,22,23
 265 -10 265 -10 231.5 1 c 128,-1,24
 198 12 198 12 170 32 c 128,-1,25
 142 52 142 52 121.5 80 c 128,-1,26
 101 108 101 108 91 141 c 1,27,-1
 111 148 l 1,28,29
 121 115 121 115 140.5 90 c 128,-1,30
 160 65 160 65 185.5 47 c 128,-1,31
 211 29 211 29 240.5 19.5 c 128,-1,32
 270 10 270 10 302 10 c 2,33,-1
 309 10 l 2,34,35
 356 10 356 10 391 29.5 c 128,-1,36
 426 49 426 49 451.5 81.5 c 128,-1,37
 477 114 477 114 493.5 154.5 c 128,-1,38
 510 195 510 195 519.5 238 c 128,-1,39
 529 281 529 281 533 322.5 c 128,-1,40
 537 364 537 364 537 396 c 1,41,42
 523 359 523 359 498.5 329.5 c 128,-1,43
 474 300 474 300 443.5 279 c 128,-1,44
 413 258 413 258 376.5 247 c 128,-1,45
 340 236 340 236 302 236 c 0,46,47
 249 236 249 236 204 256 c 128,-1,48
 159 276 159 276 125 310.5 c 128,-1,49
 91 345 91 345 71.5 390 c 128,-1,50
 52 435 52 435 51 484 c 1,0,1
302 712 m 1,51,52
 254 710 254 710 212.5 692 c 128,-1,53
 171 674 171 674 139.5 643 c 128,-1,54
 108 612 108 612 90 571.5 c 128,-1,55
 72 531 72 531 72 484 c 0,56,57
 72 436 72 436 91 394 c 128,-1,58
 110 352 110 352 141.5 321.5 c 128,-1,59
 173 291 173 291 215 273.5 c 128,-1,60
 257 256 257 256 302 256 c 0,61,62
 350 256 350 256 392 274.5 c 128,-1,63
 434 293 434 293 465.5 324.5 c 128,-1,64
 497 356 497 356 514.5 397 c 128,-1,65
 532 438 532 438 532 484 c 0,66,67
 532 532 532 532 513.5 573.5 c 128,-1,68
 495 615 495 615 462.5 646 c 128,-1,69
 430 677 430 677 388.5 694.5 c 128,-1,70
 347 712 347 712 302 712 c 1,51,52
EndSplineSet
Substitution2: "'onum' Oldstyle Figures in Latin lookup 4 subtable" nine
EndChar

StartChar: numbersign
Encoding: 35 35 176
Width: 636
Flags: W
HStem: 0 21G<86 112.779 352 378.779> 226 21<26 141 167 408 433 572> 493 20<67 206 231 472 498 613> 707 20G<258.14 285 524.14 551>
LayerCount: 2
Fore
SplineSet
613 493 m 1,0,-1
 493 493 l 1,1,-1
 433 247 l 1,2,-1
 572 247 l 1,3,-1
 572 226 l 1,4,-1
 428 226 l 1,5,-1
 374 0 l 1,6,-1
 352 0 l 1,7,-1
 408 226 l 1,8,-1
 162 226 l 1,9,-1
 108 0 l 1,10,-1
 86 0 l 1,11,-1
 141 226 l 1,12,-1
 26 226 l 1,13,-1
 26 247 l 1,14,-1
 146 247 l 1,15,-1
 206 493 l 1,16,-1
 67 493 l 1,17,-1
 67 513 l 1,18,-1
 211 513 l 1,19,-1
 263 727 l 1,20,-1
 285 727 l 1,21,-1
 231 513 l 1,22,-1
 477 513 l 1,23,-1
 529 727 l 1,24,-1
 551 727 l 1,25,-1
 498 513 l 1,26,-1
 613 513 l 1,27,-1
 613 493 l 1,0,-1
413 247 m 1,28,-1
 472 493 l 1,29,-1
 226 493 l 1,30,-1
 167 247 l 1,31,-1
 413 247 l 1,28,-1
EndSplineSet
EndChar

StartChar: o
Encoding: 111 111 177
Width: 618
Flags: W
HStem: -10 20<243.821 373.042> 519 21<243.261 373.232>
VStem: 56 21<196.917 335.956> 542 20<194.248 334.787>
LayerCount: 2
Fore
SplineSet
309 -10 m 1,0,1
 253 -9 253 -9 206.5 14.5 c 128,-1,2
 160 38 160 38 126.5 76.5 c 128,-1,3
 93 115 93 115 74.5 163.5 c 128,-1,4
 56 212 56 212 56 264 c 0,5,6
 56 319 56 319 76 369.5 c 128,-1,7
 96 420 96 420 130.5 458 c 128,-1,8
 165 496 165 496 211 518 c 128,-1,9
 257 540 257 540 309 540 c 0,10,11
 366 540 366 540 413 515 c 128,-1,12
 460 490 460 490 493 451.5 c 128,-1,13
 526 413 526 413 544 363 c 128,-1,14
 562 313 562 313 562 264 c 0,15,16
 562 210 562 210 542.5 161 c 128,-1,17
 523 112 523 112 489 74 c 128,-1,18
 455 36 455 36 408.5 13.5 c 128,-1,19
 362 -9 362 -9 309 -10 c 1,0,1
77 264 m 1,20,21
 79 215 79 215 96.5 169 c 128,-1,22
 114 123 114 123 144.5 87.5 c 128,-1,23
 175 52 175 52 216.5 31 c 128,-1,24
 258 10 258 10 309 10 c 0,25,26
 361 10 361 10 404 32.5 c 128,-1,27
 447 55 447 55 478 91.5 c 128,-1,28
 509 128 509 128 525.5 173.5 c 128,-1,29
 542 219 542 219 542 264 c 0,30,31
 542 313 542 313 524 359.5 c 128,-1,32
 506 406 506 406 474.5 441 c 128,-1,33
 443 476 443 476 400.5 497.5 c 128,-1,34
 358 519 358 519 309 519 c 0,35,36
 257 519 257 519 214 496 c 128,-1,37
 171 473 171 473 140.5 436.5 c 128,-1,38
 110 400 110 400 93.5 354.5 c 128,-1,39
 77 309 77 309 77 264 c 1,20,21
EndSplineSet
Substitution2: "'smcp' Lowercase to Small Capitals in Latin lookup 2 subtable" O.sc
Substitution2: "'aalt' Access All Alternates in Latin lookup 0 subtable" O.sc
EndChar

StartChar: oe
Encoding: 339 339 181
Width: 1123
Flags: W
HStem: -10 20<256.61 385.425 745.057 874.15> 254 20<574 1039> 519 21<256.464 387.726 734.711 871.163>
VStem: 69 20<199.161 333.724> 554 20<196.598 254 274 331.312>
LayerCount: 2
Fore
SplineSet
1061 254 m 1,0,-1
 574 254 l 1,1,2
 577 206 577 206 596 162 c 128,-1,3
 615 118 615 118 646.5 84 c 128,-1,4
 678 50 678 50 719.5 30 c 128,-1,5
 761 10 761 10 810 10 c 0,6,7
 839 10 839 10 868 18 c 128,-1,8
 897 26 897 26 922.5 40 c 128,-1,9
 948 54 948 54 968.5 74.5 c 128,-1,10
 989 95 989 95 1001 122 c 1,11,-1
 1021 117 l 1,12,13
 1009 86 1009 86 986 62 c 128,-1,14
 963 38 963 38 933.5 22 c 128,-1,15
 904 6 904 6 872 -2 c 128,-1,16
 840 -10 840 -10 810 -10 c 0,17,18
 765 -10 765 -10 725 6 c 128,-1,19
 685 22 685 22 653.5 49.5 c 128,-1,20
 622 77 622 77 598.5 113.5 c 128,-1,21
 575 150 575 150 564 189 c 1,22,23
 553 147 553 147 530 111.5 c 128,-1,24
 507 76 507 76 475 49 c 128,-1,25
 443 22 443 22 404.5 6.5 c 128,-1,26
 366 -9 366 -9 322 -10 c 1,27,28
 266 -9 266 -9 219 14.5 c 128,-1,29
 172 38 172 38 138.5 76.5 c 128,-1,30
 105 115 105 115 87 163.5 c 128,-1,31
 69 212 69 212 69 264 c 0,32,33
 69 319 69 319 89 369.5 c 128,-1,34
 109 420 109 420 143 458 c 128,-1,35
 177 496 177 496 223 518 c 128,-1,36
 269 540 269 540 322 540 c 0,37,38
 368 540 368 540 407.5 523.5 c 128,-1,39
 447 507 447 507 478.5 479 c 128,-1,40
 510 451 510 451 531.5 414.5 c 128,-1,41
 553 378 553 378 564 338 c 1,42,43
 574 380 574 380 595.5 417 c 128,-1,44
 617 454 617 454 647.5 481 c 128,-1,45
 678 508 678 508 716.5 524 c 128,-1,46
 755 540 755 540 801 540 c 0,47,48
 859 540 859 540 906.5 517.5 c 128,-1,49
 954 495 954 495 988 457 c 128,-1,50
 1022 419 1022 419 1041 369 c 128,-1,51
 1060 319 1060 319 1061 265 c 1,52,-1
 1061 254 l 1,0,-1
322 10 m 0,53,54
 374 10 374 10 416 32 c 128,-1,55
 458 54 458 54 488.5 89.5 c 128,-1,56
 519 125 519 125 536 169 c 128,-1,57
 553 213 553 213 554 258 c 1,58,59
 554 308 554 308 536.5 355 c 128,-1,60
 519 402 519 402 488.5 438.5 c 128,-1,61
 458 475 458 475 415.5 497 c 128,-1,62
 373 519 373 519 322 519 c 0,63,64
 270 519 270 519 226.5 496 c 128,-1,65
 183 473 183 473 152.5 436.5 c 128,-1,66
 122 400 122 400 105.5 354.5 c 128,-1,67
 89 309 89 309 89 264 c 1,68,69
 91 215 91 215 108.5 169 c 128,-1,70
 126 123 126 123 156.5 87.5 c 128,-1,71
 187 52 187 52 229 31 c 128,-1,72
 271 10 271 10 322 10 c 0,53,54
1039 274 m 1,73,74
 1036 326 1036 326 1017 371 c 128,-1,75
 998 416 998 416 967.5 448.5 c 128,-1,76
 937 481 937 481 894.5 500 c 128,-1,77
 852 519 852 519 801 519 c 0,78,79
 749 519 749 519 707.5 497 c 128,-1,80
 666 475 666 475 637 440.5 c 128,-1,81
 608 406 608 406 592.5 362 c 128,-1,82
 577 318 577 318 574 274 c 1,83,-1
 1039 274 l 1,73,74
EndSplineSet
EndChar

StartChar: one
Encoding: 49 49 183
Width: 342
Flags: W
HStem: 0 20<35 180 201 331> 463 24<11 62.0503>
VStem: 180 21<20 551>
LayerCount: 2
Fore
SplineSet
331 20 m 1,0,-1
 331 0 l 1,1,-1
 35 0 l 1,2,-1
 35 20 l 1,3,-1
 180 20 l 1,4,-1
 180 551 l 1,5,6
 172 539 172 539 152 524 c 128,-1,7
 132 509 132 509 108 495 c 128,-1,8
 84 481 84 481 58 472 c 128,-1,9
 32 463 32 463 11 463 c 1,10,-1
 11 487 l 1,11,12
 39 487 39 487 68.5 502 c 128,-1,13
 98 517 98 517 122.5 534.5 c 128,-1,14
 147 552 147 552 163 567.5 c 128,-1,15
 179 583 179 583 180 585 c 1,16,-1
 201 585 l 1,17,-1
 201 20 l 1,18,-1
 331 20 l 1,0,-1
EndSplineSet
Substitution2: "'salt' Stylistic Alternatives in Latin lookup 5 subtable" one.alt
Substitution2: "'lnum' Lining Figures in Latin lookup 3 subtable" one.alt
Substitution2: "'aalt' Access All Alternates in Latin lookup 0 subtable" one.alt
EndChar

StartChar: one.alt
Encoding: 65575 -1 184
Width: 331
Flags: W
HStem: 0 20<37 172 193 323> 615 21<13 57.2051>
VStem: 172 21<20 703>
LayerCount: 2
Fore
SplineSet
323 20 m 1,0,-1
 323 0 l 1,1,-1
 37 0 l 1,2,-1
 37 20 l 1,3,-1
 172 20 l 1,4,-1
 172 703 l 1,5,6
 164 691 164 691 145.5 676.5 c 128,-1,7
 127 662 127 662 105 648 c 128,-1,8
 83 634 83 634 58.5 624.5 c 128,-1,9
 34 615 34 615 13 615 c 1,10,-1
 13 636 l 1,11,12
 40 636 40 636 67.5 651.5 c 128,-1,13
 95 667 95 667 118 685 c 128,-1,14
 141 703 141 703 156 719 c 128,-1,15
 171 735 171 735 172 737 c 1,16,-1
 193 737 l 1,17,-1
 193 20 l 1,18,-1
 323 20 l 1,0,-1
EndSplineSet
Substitution2: "'onum' Oldstyle Figures in Latin lookup 4 subtable" one
EndChar

StartChar: oslash
Encoding: 248 248 185
Width: 620
Flags: W
HStem: -10 20<247.771 374.482> 0 21G<135 172.613> 511 20G<447.742 486> 519 21<244.261 373.829>
VStem: 57 21<195.343 335.956> 543 20<194.248 336.7>
LayerCount: 2
Fore
SplineSet
459 486 m 1,0,1
 509 445 509 445 536 385.5 c 128,-1,2
 563 326 563 326 563 264 c 0,3,4
 563 210 563 210 543.5 161 c 128,-1,5
 524 112 524 112 490 74 c 128,-1,6
 456 36 456 36 410 13.5 c 128,-1,7
 364 -9 364 -9 310 -10 c 1,8,9
 273 -9 273 -9 240.5 1.5 c 128,-1,10
 208 12 208 12 179 31 c 1,11,-1
 161 0 l 1,12,-1
 135 0 l 1,13,-1
 162 44 l 1,14,15
 113 83 113 83 85 141.5 c 128,-1,16
 57 200 57 200 57 264 c 0,17,18
 57 319 57 319 77 369.5 c 128,-1,19
 97 420 97 420 131.5 458 c 128,-1,20
 166 496 166 496 212 518 c 128,-1,21
 258 540 258 540 310 540 c 0,22,23
 348 540 348 540 381 529 c 128,-1,24
 414 518 414 518 441 500 c 1,25,-1
 460 531 l 1,26,-1
 486 531 l 1,27,-1
 459 486 l 1,0,1
78 264 m 1,28,29
 80 204 80 204 104.5 150.5 c 128,-1,30
 129 97 129 97 172 61 c 1,31,-1
 430 482 l 1,32,33
 403 499 403 499 373 509 c 128,-1,34
 343 519 343 519 310 519 c 0,35,36
 258 519 258 519 215 496 c 128,-1,37
 172 473 172 473 141.5 436.5 c 128,-1,38
 111 400 111 400 94.5 354.5 c 128,-1,39
 78 309 78 309 78 264 c 1,28,29
310 10 m 0,40,41
 362 10 362 10 405.5 32.5 c 128,-1,42
 449 55 449 55 479.5 91.5 c 128,-1,43
 510 128 510 128 526.5 173.5 c 128,-1,44
 543 219 543 219 543 264 c 0,45,46
 543 324 543 324 517.5 378 c 128,-1,47
 492 432 492 432 447 468 c 1,48,-1
 189 48 l 1,49,50
 216 31 216 31 246 20.5 c 128,-1,51
 276 10 276 10 310 10 c 0,40,41
EndSplineSet
EndChar

StartChar: p
Encoding: 112 112 187
Width: 581
Flags: W
HStem: -218 21G<82 102> -10 20<258.344 384.434> 511 20G<82 102> 519 21<250.876 375.517>
VStem: 82 20<-218 122 144.863 398.818 419 531> 546 20<198.453 335.264>
LayerCount: 2
Fore
SplineSet
566 264 m 1,0,1
 563 210 563 210 544.5 160.5 c 128,-1,2
 526 111 526 111 495 73 c 128,-1,3
 464 35 464 35 419.5 12.5 c 128,-1,4
 375 -10 375 -10 319 -10 c 0,5,6
 283 -10 283 -10 251.5 0.5 c 128,-1,7
 220 11 220 11 192.5 29 c 128,-1,8
 165 47 165 47 142.5 71 c 128,-1,9
 120 95 120 95 102 122 c 1,10,-1
 102 -218 l 1,11,-1
 82 -218 l 1,12,-1
 82 531 l 1,13,-1
 102 531 l 1,14,-1
 102 419 l 1,15,16
 118 446 118 446 142 467.5 c 128,-1,17
 166 489 166 489 193 505.5 c 128,-1,18
 220 522 220 522 250 531 c 128,-1,19
 280 540 280 540 310 540 c 0,20,21
 366 540 366 540 413.5 516 c 128,-1,22
 461 492 461 492 494.5 453 c 128,-1,23
 528 414 528 414 547 364.5 c 128,-1,24
 566 315 566 315 566 264 c 1,0,1
546 264 m 1,25,26
 546 314 546 314 527.5 360.5 c 128,-1,27
 509 407 509 407 477 442 c 128,-1,28
 445 477 445 477 402 498 c 128,-1,29
 359 519 359 519 310 519 c 0,30,31
 279 519 279 519 243 506 c 128,-1,32
 207 493 207 493 175.5 470 c 128,-1,33
 144 447 144 447 123 417.5 c 128,-1,34
 102 388 102 388 102 356 c 2,35,-1
 102 165 l 1,36,37
 116 132 116 132 139 104 c 128,-1,38
 162 76 162 76 190 55.5 c 128,-1,39
 218 35 218 35 251 22.5 c 128,-1,40
 284 10 284 10 319 10 c 0,41,42
 371 10 371 10 413 32 c 128,-1,43
 455 54 455 54 484 90 c 128,-1,44
 513 126 513 126 529 171.5 c 128,-1,45
 545 217 545 217 546 264 c 1,25,26
EndSplineSet
Substitution2: "'smcp' Lowercase to Small Capitals in Latin lookup 2 subtable" P.sc
Substitution2: "'aalt' Access All Alternates in Latin lookup 0 subtable" P.sc
EndChar

StartChar: paragraph
Encoding: 182 182 188
Width: 565
Flags: W
HStem: 254 20<223.875 311 332 425> 707 20<227.715 311 332 425 445 517>
VStem: 23 20<421.311 560.447> 311 21<-82 254 274 707> 425 20<-82 254 274 707>
LayerCount: 2
Fore
SplineSet
23 490 m 0,0,1
 23 601 23 601 98.5 662.5 c 128,-1,2
 174 724 174 724 311 727 c 1,3,-1
 517 727 l 1,4,-1
 517 707 l 1,5,-1
 445 707 l 1,6,-1
 445 -82 l 1,7,-1
 425 -82 l 1,8,-1
 425 254 l 1,9,-1
 332 254 l 1,10,-1
 332 -82 l 1,11,-1
 311 -82 l 1,12,-1
 311 254 l 1,13,14
 243 255 243 255 190 271.5 c 128,-1,15
 137 288 137 288 99.5 318 c 128,-1,16
 62 348 62 348 42.5 391.5 c 128,-1,17
 23 435 23 435 23 490 c 0,0,1
62 397 m 0,18,19
 89 340 89 340 152.5 308 c 128,-1,20
 216 276 216 276 311 274 c 1,21,-1
 311 707 l 1,22,23
 182 702 182 702 112.5 647.5 c 128,-1,24
 43 593 43 593 43 490 c 0,25,26
 43 439 43 439 62 397 c 0,18,19
425 707 m 1,27,-1
 332 707 l 1,28,-1
 332 274 l 1,29,-1
 425 274 l 1,30,-1
 425 707 l 1,27,-1
EndSplineSet
EndChar

StartChar: parenleft
Encoding: 40 40 189
Width: 203
Flags: W
VStem: 16 21<258.819 439.743>
LayerCount: 2
Fore
SplineSet
16 350 m 0,0,1
 16 390 16 390 24.5 431 c 128,-1,2
 33 472 33 472 44.5 509.5 c 128,-1,3
 56 547 56 547 70 580 c 128,-1,4
 84 613 84 613 95 638 c 0,5,6
 117 687 117 687 135.5 714.5 c 128,-1,7
 154 742 154 742 154 743 c 2,8,-1
 170 731 l 1,9,10
 137 684 137 684 114 630 c 0,11,12
 103 605 103 605 89.5 573.5 c 128,-1,13
 76 542 76 542 64.5 505 c 128,-1,14
 53 468 53 468 45 428.5 c 128,-1,15
 37 389 37 389 37 350 c 256,16,17
 37 311 37 311 45.5 266 c 128,-1,18
 54 221 54 221 71 174 c 128,-1,19
 88 127 88 127 113 79 c 128,-1,20
 138 31 138 31 170 -14 c 1,21,-1
 154 -27 l 1,22,23
 121 20 121 20 95.5 69.5 c 128,-1,24
 70 119 70 119 52.5 168 c 128,-1,25
 35 217 35 217 25.5 263 c 128,-1,26
 16 309 16 309 16 350 c 0,0,1
EndSplineSet
EndChar

StartChar: parenright
Encoding: 41 41 190
Width: 202
Flags: W
VStem: 166 20<261.669 437.248>
LayerCount: 2
Fore
SplineSet
186 350 m 0,0,1
 186 309 186 309 177 263 c 128,-1,2
 168 217 168 217 150.5 168 c 128,-1,3
 133 119 133 119 107.5 69.5 c 128,-1,4
 82 20 82 20 49 -27 c 1,5,-1
 33 -14 l 1,6,7
 65 31 65 31 90 79 c 128,-1,8
 115 127 115 127 131.5 174 c 128,-1,9
 148 221 148 221 157 266 c 128,-1,10
 166 311 166 311 166 350 c 256,11,12
 166 389 166 389 158 428.5 c 128,-1,13
 150 468 150 468 138.5 505 c 128,-1,14
 127 542 127 542 113 573.5 c 128,-1,15
 99 605 99 605 89 630 c 1,16,17
 78 654 78 654 68 672.5 c 128,-1,18
 58 691 58 691 50 705 c 0,19,20
 48 710 48 710 42 718.5 c 128,-1,21
 36 727 36 727 33 731 c 1,22,-1
 49 743 l 2,23,24
 49 742 49 742 67.5 714.5 c 128,-1,25
 86 687 86 687 108 638 c 0,26,27
 119 613 119 613 132.5 580 c 128,-1,28
 146 547 146 547 158 509.5 c 128,-1,29
 170 472 170 472 178 431 c 128,-1,30
 186 390 186 390 186 350 c 0,0,1
EndSplineSet
EndChar

StartChar: percent
Encoding: 37 37 191
Width: 714
Flags: W
HStem: -10 20<463.446 558.812> 252 20<463.292 556.985> 444 21<152.152 251.511> 707 20<154.292 247.83>
VStem: 60 21<538.292 634.643> 323 20<539.356 633.256> 370 20<85.9053 177.744> 632 20<83.704 177.899>
LayerCount: 2
Fore
SplineSet
370 131 m 0,0,1
 370 160 370 160 381 186 c 128,-1,2
 392 212 392 212 411 231 c 128,-1,3
 430 250 430 250 455.5 261 c 128,-1,4
 481 272 481 272 511 272 c 0,5,6
 540 272 540 272 566 261 c 128,-1,7
 592 250 592 250 611 231 c 128,-1,8
 630 212 630 212 641 186 c 128,-1,9
 652 160 652 160 652 131 c 0,10,11
 652 101 652 101 641 75.5 c 128,-1,12
 630 50 630 50 611 30.5 c 128,-1,13
 592 11 592 11 566 0.5 c 128,-1,14
 540 -10 540 -10 511 -10 c 0,15,16
 481 -10 481 -10 455.5 0.5 c 128,-1,17
 430 11 430 11 411 30.5 c 128,-1,18
 392 50 392 50 381 75.5 c 128,-1,19
 370 101 370 101 370 131 c 0,0,1
60 586 m 0,20,21
 60 615 60 615 71.5 641 c 128,-1,22
 83 667 83 667 102 686 c 128,-1,23
 121 705 121 705 146.5 716 c 128,-1,24
 172 727 172 727 202 727 c 0,25,26
 231 727 231 727 257 716 c 128,-1,27
 283 705 283 705 302 686 c 128,-1,28
 321 667 321 667 332 640.5 c 128,-1,29
 343 614 343 614 343 586 c 0,30,31
 343 556 343 556 332 530.5 c 128,-1,32
 321 505 321 505 302 486 c 128,-1,33
 283 467 283 467 256.5 455.5 c 128,-1,34
 230 444 230 444 202 444 c 0,35,36
 172 444 172 444 146.5 455.5 c 128,-1,37
 121 467 121 467 102 486 c 128,-1,38
 83 505 83 505 71.5 530.5 c 128,-1,39
 60 556 60 556 60 586 c 0,20,21
390 131 m 0,40,41
 391 105 391 105 401 83 c 128,-1,42
 411 61 411 61 426.5 45 c 128,-1,43
 442 29 442 29 464 19.5 c 128,-1,44
 486 10 486 10 511 10 c 0,45,46
 537 10 537 10 559 20 c 128,-1,47
 581 30 581 30 597 46.5 c 128,-1,48
 613 63 613 63 622.5 84.5 c 128,-1,49
 632 106 632 106 632 131 c 256,50,51
 632 156 632 156 622 178 c 128,-1,52
 612 200 612 200 595.5 216 c 128,-1,53
 579 232 579 232 557 242 c 128,-1,54
 535 252 535 252 511 252 c 0,55,56
 485 252 485 252 463 242 c 128,-1,57
 441 232 441 232 425 215.5 c 128,-1,58
 409 199 409 199 399.5 177 c 128,-1,59
 390 155 390 155 390 131 c 0,40,41
81 586 m 0,60,61
 82 560 82 560 91.5 538 c 128,-1,62
 101 516 101 516 117.5 499.5 c 128,-1,63
 134 483 134 483 155.5 474 c 128,-1,64
 177 465 177 465 202 465 c 0,65,66
 228 465 228 465 249.5 474.5 c 128,-1,67
 271 484 271 484 287.5 501 c 128,-1,68
 304 518 304 518 313.5 540 c 128,-1,69
 323 562 323 562 323 586 c 0,70,71
 323 612 323 612 313 633.5 c 128,-1,72
 303 655 303 655 286 671.5 c 128,-1,73
 269 688 269 688 247 697.5 c 128,-1,74
 225 707 225 707 202 707 c 0,75,76
 176 707 176 707 154 697 c 128,-1,77
 132 687 132 687 115.5 670 c 128,-1,78
 99 653 99 653 90 631.5 c 128,-1,79
 81 610 81 610 81 586 c 0,60,61
62 6 m 1,80,-1
 634 723 l 1,81,-1
 650 711 l 1,82,-1
 79 -6 l 1,83,-1
 62 6 l 1,80,-1
EndSplineSet
EndChar

StartChar: period
Encoding: 46 46 192
Width: 158
Flags: W
HStem: 0 66<76 96>
VStem: 76 20<0 66>
LayerCount: 2
Fore
SplineSet
76 0 m 1,0,-1
 76 66 l 1,1,-1
 96 66 l 1,2,-1
 96 0 l 1,3,-1
 76 0 l 1,0,-1
EndSplineSet
EndChar

StartChar: periodcentered
Encoding: 183 183 193
Width: 172
Flags: W
HStem: 626 85<83 103>
VStem: 83 20<626 711>
LayerCount: 2
Fore
SplineSet
83 626 m 1,0,-1
 83 711 l 1,1,-1
 103 711 l 1,2,-1
 103 626 l 1,3,-1
 83 626 l 1,0,-1
EndSplineSet
EndChar

StartChar: plus
Encoding: 43 43 194
Width: 315
Flags: W
HStem: 353 21<4 147 168 311>
VStem: 147 21<200 353 374 527>
LayerCount: 2
Fore
SplineSet
311 374 m 1,0,-1
 311 353 l 1,1,-1
 168 353 l 1,2,-1
 168 200 l 1,3,-1
 147 200 l 1,4,-1
 147 353 l 1,5,-1
 4 353 l 1,6,-1
 4 374 l 1,7,-1
 147 374 l 1,8,-1
 147 527 l 1,9,-1
 168 527 l 1,10,-1
 168 374 l 1,11,-1
 311 374 l 1,0,-1
EndSplineSet
EndChar

StartChar: q
Encoding: 113 113 195
Width: 603
Flags: W
HStem: -218 20<515.095 526> -10 20<208.686 334.69> 511 20G<489 510> 519 21<214.436 344.876>
VStem: 26 20<190.291 333.404> 489 21<-191.812 122 145.967 395.6 419 531>
LayerCount: 2
Fore
SplineSet
526 -198 m 1,0,-1
 526 -218 l 1,1,2
 509 -217 509 -217 499 -205.5 c 128,-1,3
 489 -194 489 -194 489 -177 c 2,4,-1
 489 122 l 1,5,6
 444 57 444 57 389.5 23.5 c 128,-1,7
 335 -10 335 -10 272 -10 c 0,8,9
 216 -10 216 -10 170.5 13.5 c 128,-1,10
 125 37 125 37 92.5 75.5 c 128,-1,11
 60 114 60 114 43 163 c 128,-1,12
 26 212 26 212 26 264 c 0,13,14
 26 318 26 318 46 368 c 128,-1,15
 66 418 66 418 100.5 456.5 c 128,-1,16
 135 495 135 495 181.5 517.5 c 128,-1,17
 228 540 228 540 282 540 c 0,18,19
 314 540 314 540 344 530.5 c 128,-1,20
 374 521 374 521 401 504.5 c 128,-1,21
 428 488 428 488 451 466 c 128,-1,22
 474 444 474 444 489 419 c 1,23,-1
 489 531 l 1,24,-1
 510 531 l 1,25,-1
 510 -177 l 1,26,27
 512 -186 512 -186 515 -192 c 128,-1,28
 518 -198 518 -198 526 -198 c 1,0,-1
489 165 m 1,29,-1
 489 356 l 2,30,31
 489 379 489 379 472 408 c 0,32,33
 457 433 457 433 436 453 c 128,-1,34
 415 473 415 473 390 488 c 128,-1,35
 365 503 365 503 337 511 c 128,-1,36
 309 519 309 519 282 519 c 0,37,38
 230 519 230 519 186.5 497 c 128,-1,39
 143 475 143 475 112 438.5 c 128,-1,40
 81 402 81 402 63.5 356.5 c 128,-1,41
 46 311 46 311 46 264 c 0,42,43
 46 214 46 214 63 168 c 128,-1,44
 80 122 80 122 110 87 c 128,-1,45
 140 52 140 52 181.5 31 c 128,-1,46
 223 10 223 10 272 10 c 0,47,48
 310 10 310 10 343 23 c 128,-1,49
 376 36 376 36 403.5 57.5 c 128,-1,50
 431 79 431 79 452.5 106.5 c 128,-1,51
 474 134 474 134 489 165 c 1,29,-1
EndSplineSet
Substitution2: "'salt' Stylistic Alternatives in Latin lookup 5 subtable" q.alt
Substitution2: "'smcp' Lowercase to Small Capitals in Latin lookup 2 subtable" Q.sc
AlternateSubs2: "'aalt' Access All Alternates in Latin lookup 1 subtable" Q.sc q.alt
EndChar

StartChar: q.alt
Encoding: 65576 -1 196
Width: 581
Flags: W
HStem: -218 21G<479 500> -10 20<198.686 324.69> 511 20G<479 500> 519 21<203.995 334.319>
VStem: 15 21<188.78 334.923> 479 21<-218 122 145.967 395.6 419 531>
LayerCount: 2
Fore
SplineSet
479 -218 m 1,0,-1
 479 122 l 1,1,2
 434 57 434 57 379.5 23.5 c 128,-1,3
 325 -10 325 -10 262 -10 c 0,4,5
 206 -10 206 -10 160.5 13.5 c 128,-1,6
 115 37 115 37 82.5 75.5 c 128,-1,7
 50 114 50 114 32.5 163 c 128,-1,8
 15 212 15 212 15 264 c 0,9,10
 15 318 15 318 35 368 c 128,-1,11
 55 418 55 418 90 456.5 c 128,-1,12
 125 495 125 495 171.5 517.5 c 128,-1,13
 218 540 218 540 271 540 c 0,14,15
 303 540 303 540 333.5 530.5 c 128,-1,16
 364 521 364 521 391 504.5 c 128,-1,17
 418 488 418 488 441 466 c 128,-1,18
 464 444 464 444 479 419 c 1,19,-1
 479 531 l 1,20,-1
 500 531 l 1,21,-1
 500 -218 l 1,22,-1
 479 -218 l 1,0,-1
479 165 m 1,23,-1
 479 356 l 2,24,25
 479 379 479 379 462 408 c 0,26,27
 447 433 447 433 425.5 453 c 128,-1,28
 404 473 404 473 379 488 c 128,-1,29
 354 503 354 503 326.5 511 c 128,-1,30
 299 519 299 519 271 519 c 0,31,32
 219 519 219 519 176 497 c 128,-1,33
 133 475 133 475 102 438.5 c 128,-1,34
 71 402 71 402 53.5 356.5 c 128,-1,35
 36 311 36 311 36 264 c 0,36,37
 36 214 36 214 53 168 c 128,-1,38
 70 122 70 122 100 87 c 128,-1,39
 130 52 130 52 171.5 31 c 128,-1,40
 213 10 213 10 262 10 c 0,41,42
 300 10 300 10 333 23 c 128,-1,43
 366 36 366 36 393.5 57.5 c 128,-1,44
 421 79 421 79 442.5 106.5 c 128,-1,45
 464 134 464 134 479 165 c 1,23,-1
EndSplineSet
EndChar

StartChar: question
Encoding: 63 63 197
Width: 434
Flags: W
HStem: 0 21G<162 182> 596 21G<15 47> 716 20<163.52 290.126>
VStem: 162 20<0 86 183 284.188> 399 21<486.774 611.781>
LayerCount: 2
Fore
SplineSet
162 183 m 1,0,1
 162 208 162 208 162.5 233.5 c 128,-1,2
 163 259 163 259 170 283.5 c 128,-1,3
 177 308 177 308 195 331 c 128,-1,4
 213 354 213 354 249 373 c 0,5,6
 280 389 280 389 307 403 c 128,-1,7
 334 417 334 417 355 436 c 128,-1,8
 376 455 376 455 387.5 483.5 c 128,-1,9
 399 512 399 512 399 557 c 1,10,11
 398 592 398 592 385 621 c 128,-1,12
 372 650 372 650 349.5 671 c 128,-1,13
 327 692 327 692 296 704 c 128,-1,14
 265 716 265 716 228 716 c 0,15,16
 167 716 167 716 113.5 683.5 c 128,-1,17
 60 651 60 651 34 596 c 1,18,-1
 15 604 l 1,19,20
 28 635 28 635 51 659 c 128,-1,21
 74 683 74 683 102 700.5 c 128,-1,22
 130 718 130 718 162.5 727 c 128,-1,23
 195 736 195 736 228 736 c 0,24,25
 265 736 265 736 300 724 c 128,-1,26
 335 712 335 712 361.5 688 c 128,-1,27
 388 664 388 664 404 628 c 128,-1,28
 420 592 420 592 420 546 c 0,29,30
 420 492 420 492 395.5 453.5 c 128,-1,31
 371 415 371 415 329 390 c 0,32,33
 301 374 301 374 275 362.5 c 128,-1,34
 249 351 249 351 228.5 334 c 128,-1,35
 208 317 208 317 195 291 c 128,-1,36
 182 265 182 265 182 219 c 2,37,-1
 182 183 l 1,38,-1
 162 183 l 1,0,1
162 0 m 1,39,-1
 162 86 l 1,40,-1
 182 86 l 1,41,-1
 182 0 l 1,42,-1
 162 0 l 1,39,-1
EndSplineSet
EndChar

StartChar: questiondown
Encoding: 191 191 198
Width: 436
Flags: W
HStem: -9 20<145.08 271.738> 707 20G<253 273>
VStem: 15 21<115.219 240.226> 253 20<442.812 544 641 727>
LayerCount: 2
Fore
SplineSet
273 544 m 1,0,1
 273 519 273 519 272.5 493.5 c 128,-1,2
 272 468 272 468 265 443.5 c 128,-1,3
 258 419 258 419 239.5 396 c 128,-1,4
 221 373 221 373 186 354 c 0,5,6
 155 338 155 338 128 324 c 128,-1,7
 101 310 101 310 80 291 c 128,-1,8
 59 272 59 272 47.5 243.5 c 128,-1,9
 36 215 36 215 36 170 c 1,10,11
 37 135 37 135 50 106 c 128,-1,12
 63 77 63 77 86 56 c 128,-1,13
 109 35 109 35 139.5 23 c 128,-1,14
 170 11 170 11 207 11 c 0,15,16
 268 11 268 11 321.5 43.5 c 128,-1,17
 375 76 375 76 401 131 c 1,18,-1
 420 123 l 1,19,20
 407 92 407 92 384 68 c 128,-1,21
 361 44 361 44 333 26.5 c 128,-1,22
 305 9 305 9 273 0 c 128,-1,23
 241 -9 241 -9 207 -9 c 0,24,25
 170 -9 170 -9 135 3 c 128,-1,26
 100 15 100 15 73.5 39 c 128,-1,27
 47 63 47 63 31 99 c 128,-1,28
 15 135 15 135 15 181 c 0,29,30
 15 235 15 235 40 273.5 c 128,-1,31
 65 312 65 312 106 337 c 0,32,33
 134 353 134 353 160 364.5 c 128,-1,34
 186 376 186 376 206.5 393 c 128,-1,35
 227 410 227 410 240 436 c 128,-1,36
 253 462 253 462 253 508 c 2,37,-1
 253 544 l 1,38,-1
 273 544 l 1,0,1
273 727 m 1,39,-1
 273 641 l 1,40,-1
 253 641 l 1,41,-1
 253 727 l 1,42,-1
 273 727 l 1,39,-1
EndSplineSet
EndChar

StartChar: quotedbl
Encoding: 34 34 199
Width: 219
Flags: W
HStem: 641 86<76 96 127 147>
VStem: 76 20<641 727> 127 20<641 727>
LayerCount: 2
Fore
SplineSet
76 641 m 1,0,-1
 76 727 l 1,1,-1
 96 727 l 1,2,-1
 96 641 l 1,3,-1
 76 641 l 1,0,-1
127 641 m 1,4,-1
 127 727 l 1,5,-1
 147 727 l 1,6,-1
 147 641 l 1,7,-1
 127 641 l 1,4,-1
EndSplineSet
EndChar

StartChar: quotedblleft
Encoding: 8220 8220 200
Width: 235
Flags: W
HStem: 711 20<102 111 164.125 172>
VStem: 77 20<647 708.953> 138 21<647 708.953>
LayerCount: 2
Fore
SplineSet
111 711 m 1,0,1
 107 711 107 711 102 709 c 1,2,-1
 99 706 l 2,3,4
 97 704 97 704 97 701 c 128,-1,5
 97 698 97 698 97 697 c 2,6,-1
 97 647 l 1,7,-1
 77 647 l 1,8,-1
 77 697 l 2,9,10
 77 699 77 699 77 702.5 c 128,-1,11
 77 706 77 706 79 710 c 256,12,13
 81 714 81 714 84 718.5 c 128,-1,14
 87 723 87 723 92 727 c 1,15,16
 102 731 102 731 111 731 c 1,17,-1
 111 711 l 1,0,1
172 711 m 1,18,19
 168 711 168 711 164 709 c 1,20,-1
 161 706 l 2,21,22
 159 704 159 704 159 701 c 128,-1,23
 159 698 159 698 159 697 c 2,24,-1
 159 647 l 1,25,-1
 138 647 l 1,26,-1
 138 697 l 2,27,28
 138 699 138 699 138 702.5 c 128,-1,29
 138 706 138 706 140 710 c 256,30,31
 142 714 142 714 145 718.5 c 128,-1,32
 148 723 148 723 154 727 c 1,33,34
 164 731 164 731 172 731 c 1,35,-1
 172 711 l 1,18,19
EndSplineSet
EndChar

StartChar: quotedblright
Encoding: 8221 8221 201
Width: 234
Flags: W
HStem: 642 21<69 76.875 130 137.875> 706 20G<82 102 143 164>
VStem: 82 20<665.047 726> 143 21<665.047 726>
LayerCount: 2
Fore
SplineSet
69 663 m 1,0,1
 73 663 73 663 77 665 c 1,2,-1
 80 668 l 2,3,4
 82 670 82 670 82 672.5 c 128,-1,5
 82 675 82 675 82 676 c 2,6,-1
 82 726 l 1,7,-1
 102 726 l 1,8,-1
 102 676 l 2,9,10
 102 674 102 674 102 671 c 128,-1,11
 102 668 102 668 100 664 c 256,12,13
 98 660 98 660 95 655 c 128,-1,14
 92 650 92 650 87 646 c 1,15,16
 77 642 77 642 69 642 c 1,17,-1
 69 663 l 1,0,1
130 663 m 1,18,19
 134 663 134 663 138 665 c 1,20,-1
 141 668 l 2,21,22
 143 670 143 670 143 672.5 c 128,-1,23
 143 675 143 675 143 676 c 2,24,-1
 143 726 l 1,25,-1
 164 726 l 1,26,-1
 164 676 l 2,27,28
 164 674 164 674 164 671 c 128,-1,29
 164 668 164 668 162 664 c 256,30,31
 160 660 160 660 157 655 c 128,-1,32
 154 650 154 650 148 646 c 1,33,34
 138 642 138 642 130 642 c 1,35,-1
 130 663 l 1,18,19
EndSplineSet
EndChar

StartChar: quoteleft
Encoding: 8216 8216 202
Width: 134
Flags: W
HStem: 711 20<91.125 99>
VStem: 66 20<647 708.953>
LayerCount: 2
Fore
SplineSet
99 731 m 1,0,-1
 99 711 l 1,1,2
 95 711 95 711 91 709 c 1,3,-1
 88 706 l 2,4,5
 86 704 86 704 86 701 c 128,-1,6
 86 698 86 698 86 697 c 2,7,-1
 86 647 l 1,8,-1
 66 647 l 1,9,-1
 66 697 l 2,10,11
 66 699 66 699 66 702.5 c 128,-1,12
 66 706 66 706 68 710 c 256,13,14
 70 714 70 714 73 718.5 c 128,-1,15
 76 723 76 723 81 727 c 1,16,17
 91 731 91 731 99 731 c 1,0,-1
EndSplineSet
EndChar

StartChar: quoteright
Encoding: 8217 8217 203
Width: 131
Flags: W
HStem: 642 21<45 52.875> 706 20G<58 79>
VStem: 58 21<665.047 726>
LayerCount: 2
Fore
SplineSet
45 642 m 1,0,-1
 45 663 l 1,1,2
 49 663 49 663 53 665 c 1,3,-1
 56 668 l 2,4,5
 58 670 58 670 58 672.5 c 128,-1,6
 58 675 58 675 58 676 c 2,7,-1
 58 726 l 1,8,-1
 79 726 l 1,9,-1
 79 676 l 2,10,11
 79 674 79 674 79 671 c 128,-1,12
 79 668 79 668 77 664 c 256,13,14
 75 660 75 660 72 655 c 128,-1,15
 69 650 69 650 63 646 c 1,16,17
 53 642 53 642 45 642 c 1,0,-1
EndSplineSet
EndChar

StartChar: quotesingle
Encoding: 39 39 204
Width: 158
Flags: W
HStem: 662 65<76 96>
VStem: 76 20<662 727>
LayerCount: 2
Fore
SplineSet
76 662 m 1,0,-1
 76 727 l 1,1,-1
 96 727 l 1,2,-1
 96 662 l 1,3,-1
 76 662 l 1,0,-1
EndSplineSet
EndChar

StartChar: r
Encoding: 114 114 205
Width: 324
Flags: W
HStem: 0 21G<77 97> 511 20<247.564 304>
VStem: 77 20<0 363.991 394 531>
LayerCount: 2
Fore
SplineSet
304 531 m 1,0,-1
 304 511 l 1,1,2
 263 509 263 509 229.5 495 c 128,-1,3
 196 481 196 481 169.5 458 c 128,-1,4
 143 435 143 435 125.5 404 c 128,-1,5
 108 373 108 373 97 336 c 1,6,-1
 97 0 l 1,7,-1
 77 0 l 1,8,-1
 77 531 l 1,9,-1
 97 531 l 1,10,-1
 97 394 l 1,11,12
 130 459 130 459 181.5 495 c 128,-1,13
 233 531 233 531 304 531 c 1,0,-1
EndSplineSet
Substitution2: "'smcp' Lowercase to Small Capitals in Latin lookup 2 subtable" R.sc
Substitution2: "'aalt' Access All Alternates in Latin lookup 0 subtable" R.sc
EndChar

StartChar: ring
Encoding: 730 730 206
Width: 256
Flags: W
HStem: 600 21<97.2947 158.177> 721 20<96.9131 159.087>
VStem: 57 21<639.54 703.002> 178 21<640.166 701.821>
LayerCount: 2
Fore
SplineSet
57 671 m 256,0,1
 57 701 57 701 77.5 721 c 128,-1,2
 98 741 98 741 128 741 c 256,3,4
 158 741 158 741 178.5 720.5 c 128,-1,5
 199 700 199 700 199 671 c 256,6,7
 199 641 199 641 178.5 620.5 c 128,-1,8
 158 600 158 600 128 600 c 256,9,10
 98 600 98 600 77.5 620.5 c 128,-1,11
 57 641 57 641 57 671 c 256,0,1
92 707 m 256,12,13
 78 693 78 693 78 671 c 0,14,15
 78 648 78 648 92 636 c 1,16,17
 107 621 107 621 128 621 c 256,18,19
 148 621 148 621 164 636 c 0,20,21
 178 650 178 650 178 671 c 0,22,23
 178 682 178 682 174 690.5 c 128,-1,24
 170 699 170 699 164 707 c 0,25,26
 150 721 150 721 128 721 c 256,27,28
 106 721 106 721 92 707 c 256,12,13
EndSplineSet
EndChar

StartChar: s
Encoding: 115 115 207
Width: 507
Flags: W
HStem: -10 20<187.278 332.319> 249.5 30.5<168.191 339.482> 519 21<177.101 331.214>
VStem: 63 21<346.224 445.758> 438 21<88.3267 182.894>
LayerCount: 2
Fore
SplineSet
56 74 m 1,0,-1
 72 87 l 1,1,2
 155 10 155 10 258 10 c 0,3,4
 289 10 289 10 320.5 17 c 128,-1,5
 352 24 352 24 378 38.5 c 128,-1,6
 404 53 404 53 421 77 c 128,-1,7
 438 101 438 101 438 135 c 0,8,9
 438 172 438 172 420 195.5 c 128,-1,10
 402 219 402 219 374.5 232 c 128,-1,11
 347 245 347 245 315 249.5 c 128,-1,12
 283 254 283 254 254 254 c 0,13,14
 216 254 216 254 181 261.5 c 128,-1,15
 146 269 146 269 120 286 c 128,-1,16
 94 303 94 303 78.5 330.5 c 128,-1,17
 63 358 63 358 63 398 c 0,18,19
 63 437 63 437 80.5 463.5 c 128,-1,20
 98 490 98 490 125.5 507 c 128,-1,21
 153 524 153 524 186 532 c 128,-1,22
 219 540 219 540 252 540 c 0,23,24
 320 540 320 540 357.5 520 c 128,-1,25
 395 500 395 500 421 463 c 1,26,-1
 402 455 l 1,27,28
 392 474 392 474 374.5 487 c 128,-1,29
 357 500 357 500 336.5 507 c 128,-1,30
 316 514 316 514 293.5 516.5 c 128,-1,31
 271 519 271 519 252 519 c 0,32,33
 222 519 222 519 192 512.5 c 128,-1,34
 162 506 162 506 138 491.5 c 128,-1,35
 114 477 114 477 99 454 c 128,-1,36
 84 431 84 431 84 398 c 0,37,38
 84 361 84 361 99.5 337 c 128,-1,39
 115 313 115 313 139.5 299.5 c 128,-1,40
 164 286 164 286 194 280 c 128,-1,41
 224 274 224 274 254 274 c 0,42,43
 290 274 290 274 327 267.5 c 128,-1,44
 364 261 364 261 393 245 c 128,-1,45
 422 229 422 229 440.5 202 c 128,-1,46
 459 175 459 175 459 135 c 256,47,48
 459 95 459 95 440 67 c 128,-1,49
 421 39 421 39 391 22 c 128,-1,50
 361 5 361 5 326 -2.5 c 128,-1,51
 291 -10 291 -10 258 -10 c 0,52,53
 191 -10 191 -10 141 14.5 c 128,-1,54
 91 39 91 39 56 74 c 1,0,-1
EndSplineSet
Substitution2: "'smcp' Lowercase to Small Capitals in Latin lookup 2 subtable" S.sc
Substitution2: "'aalt' Access All Alternates in Latin lookup 0 subtable" S.sc
EndChar

StartChar: section
Encoding: 167 167 209
Width: 485
Flags: W
HStem: -90 20<186.591 315.609> 416 20<156.819 307.229> 712 20<171.387 308.787>
VStem: 43 20<514.165 618.787> 71 20<292.151 399.848> 408 20<236.255 336.593> 425 20<26.1723 126.846>
LayerCount: 2
Fore
SplineSet
390 185 m 1,0,1
 420 169 420 169 432.5 142 c 128,-1,2
 445 115 445 115 445 76 c 0,3,4
 445 36 445 36 428 4.5 c 128,-1,5
 411 -27 411 -27 383 -48 c 128,-1,6
 355 -69 355 -69 321.5 -79.5 c 128,-1,7
 288 -90 288 -90 255 -90 c 0,8,9
 188 -90 188 -90 143 -65.5 c 128,-1,10
 98 -41 98 -41 63 -6 c 1,11,-1
 79 7 l 1,12,13
 121 -32 121 -32 162.5 -51 c 128,-1,14
 204 -70 204 -70 255 -70 c 0,15,16
 286 -70 286 -70 316 -60 c 128,-1,17
 346 -50 346 -50 370 -31 c 128,-1,18
 394 -12 394 -12 409.5 15 c 128,-1,19
 425 42 425 42 425 76 c 0,20,21
 425 113 425 113 410 136 c 128,-1,22
 395 159 395 159 372 171.5 c 128,-1,23
 349 184 349 184 319.5 189 c 128,-1,24
 290 194 290 194 261 195 c 0,25,26
 223 196 223 196 188.5 205 c 128,-1,27
 154 214 154 214 127.5 232.5 c 128,-1,28
 101 251 101 251 86 280 c 128,-1,29
 71 309 71 309 71 349 c 0,30,31
 71 376 71 376 80 402.5 c 128,-1,32
 89 429 89 429 103 445 c 1,33,34
 75 462 75 462 59 495 c 128,-1,35
 43 528 43 528 43 570 c 0,36,37
 43 609 43 609 60.5 639.5 c 128,-1,38
 78 670 78 670 105 690.5 c 128,-1,39
 132 711 132 711 165.5 721.5 c 128,-1,40
 199 732 199 732 231 732 c 0,41,42
 299 732 299 732 337 712 c 128,-1,43
 375 692 375 692 400 655 c 1,44,-1
 382 647 l 1,45,46
 372 666 372 666 354.5 679 c 128,-1,47
 337 692 337 692 316.5 699.5 c 128,-1,48
 296 707 296 707 273.5 709.5 c 128,-1,49
 251 712 251 712 231 712 c 0,50,51
 201 712 201 712 171 702 c 128,-1,52
 141 692 141 692 117 673.5 c 128,-1,53
 93 655 93 655 78 629 c 128,-1,54
 63 603 63 603 63 570 c 0,55,56
 63 533 63 533 76 507.5 c 128,-1,57
 89 482 89 482 111.5 466.5 c 128,-1,58
 134 451 134 451 165.5 443.5 c 128,-1,59
 197 436 197 436 233 436 c 128,-1,60
 269 436 269 436 304 428 c 128,-1,61
 339 420 339 420 366.5 402 c 128,-1,62
 394 384 394 384 411 355.5 c 128,-1,63
 428 327 428 327 428 287 c 0,64,65
 428 257 428 257 417.5 229.5 c 128,-1,66
 407 202 407 202 390 185 c 1,0,1
91 349 m 0,67,68
 91 308 91 308 105.5 283 c 128,-1,69
 120 258 120 258 144 243.5 c 128,-1,70
 168 229 168 229 197.5 223 c 128,-1,71
 227 217 227 217 258.5 213.5 c 128,-1,72
 290 210 290 210 319 206.5 c 128,-1,73
 348 203 348 203 370 195 c 1,74,75
 387 209 387 209 397.5 234.5 c 128,-1,76
 408 260 408 260 408 287 c 0,77,78
 408 324 408 324 391.5 349 c 128,-1,79
 375 374 375 374 349.5 388.5 c 128,-1,80
 324 403 324 403 293 409.5 c 128,-1,81
 262 416 262 416 233 416 c 0,82,83
 203 416 203 416 174.5 420.5 c 128,-1,84
 146 425 146 425 123 435 c 1,85,86
 109 421 109 421 100 397.5 c 128,-1,87
 91 374 91 374 91 349 c 0,67,68
EndSplineSet
EndChar

StartChar: semicolon
Encoding: 59 59 210
Width: 82
Flags: W
HStem: -34 21<10 23.2408> 464 65<24 44>
VStem: 24 20<-12.0466 66 464 529>
LayerCount: 2
Fore
SplineSet
10 -13 m 1,0,1
 23 -11 23 -11 24 0 c 2,2,-1
 24 66 l 1,3,-1
 44 66 l 1,4,-1
 44 0 l 2,5,6
 44 -15 44 -15 34.5 -24.5 c 128,-1,7
 25 -34 25 -34 10 -34 c 1,8,-1
 10 -13 l 1,0,1
24 464 m 1,9,-1
 24 529 l 1,10,-1
 44 529 l 1,11,-1
 44 464 l 1,12,-1
 24 464 l 1,9,-1
EndSplineSet
EndChar

StartChar: seven
Encoding: 55 55 211
Width: 481
Flags: W
HStem: 577 20<3 440>
LayerCount: 2
Fore
SplineSet
440 577 m 1,0,-1
 3 577 l 1,1,-1
 3 597 l 1,2,-1
 474 597 l 1,3,-1
 101 -130 l 1,4,-1
 78 -130 l 1,5,-1
 440 577 l 1,0,-1
EndSplineSet
Substitution2: "'salt' Stylistic Alternatives in Latin lookup 5 subtable" seven.alt
Substitution2: "'lnum' Lining Figures in Latin lookup 3 subtable" seven.alt
Substitution2: "'aalt' Access All Alternates in Latin lookup 0 subtable" seven.alt
EndChar

StartChar: seven.alt
Encoding: 65577 -1 212
Width: 482
Flags: W
HStem: 0 21G<78 111.261> 707 20<3 440>
LayerCount: 2
Fore
SplineSet
440 707 m 1,0,-1
 3 707 l 1,1,-1
 3 727 l 1,2,-1
 474 727 l 1,3,-1
 101 0 l 1,4,-1
 78 0 l 1,5,-1
 440 707 l 1,0,-1
EndSplineSet
Substitution2: "'onum' Oldstyle Figures in Latin lookup 4 subtable" seven
EndChar

StartChar: six
Encoding: 54 54 213
Width: 609
Flags: W
HStem: -10 20<245.469 371.572> 466 20<244.022 376.32> 712 20<243.839 373.421>
VStem: 61 20<172.524 302.866 326 471.641> 542 20<176.95 302.286>
LayerCount: 2
Fore
SplineSet
562 238 m 1,0,1
 559 187 559 187 540 142.5 c 128,-1,2
 521 98 521 98 490 65.5 c 128,-1,3
 459 33 459 33 417.5 13 c 128,-1,4
 376 -7 376 -7 328 -10 c 1,5,-1
 311 -10 l 2,6,7
 261 -10 261 -10 217 8.5 c 128,-1,8
 173 27 173 27 139.5 58.5 c 128,-1,9
 106 90 106 90 86 131.5 c 128,-1,10
 66 173 66 173 61 218 c 0,11,12
 61 220 61 220 58.5 249.5 c 128,-1,13
 56 279 56 279 56 325 c 0,14,15
 56 365 56 365 61 410.5 c 128,-1,16
 66 456 66 456 77 501.5 c 128,-1,17
 88 547 88 547 106.5 588.5 c 128,-1,18
 125 630 125 630 152.5 662 c 128,-1,19
 180 694 180 694 217.5 713 c 128,-1,20
 255 732 255 732 304 732 c 2,21,-1
 311 732 l 2,22,23
 348 732 348 732 382 721 c 128,-1,24
 416 710 416 710 443.5 690 c 128,-1,25
 471 670 471 670 491 642 c 128,-1,26
 511 614 511 614 522 581 c 1,27,-1
 503 573 l 1,28,29
 492 606 492 606 473 631.5 c 128,-1,30
 454 657 454 657 428 675 c 128,-1,31
 402 693 402 693 372.5 702.5 c 128,-1,32
 343 712 343 712 311 712 c 2,33,-1
 304 712 l 2,34,35
 257 712 257 712 222 692.5 c 128,-1,36
 187 673 187 673 161.5 640.5 c 128,-1,37
 136 608 136 608 119.5 567.5 c 128,-1,38
 103 527 103 527 93.5 484 c 128,-1,39
 84 441 84 441 80.5 399.5 c 128,-1,40
 77 358 77 358 77 326 c 1,41,42
 91 363 91 363 115 392.5 c 128,-1,43
 139 422 139 422 170 443 c 128,-1,44
 201 464 201 464 236.5 475 c 128,-1,45
 272 486 272 486 311 486 c 0,46,47
 364 486 364 486 409.5 465.5 c 128,-1,48
 455 445 455 445 488.5 411 c 128,-1,49
 522 377 522 377 541.5 332 c 128,-1,50
 561 287 561 287 562 238 c 1,0,1
311 10 m 1,51,52
 358 12 358 12 400 30 c 128,-1,53
 442 48 442 48 474 79 c 128,-1,54
 506 110 506 110 524 150 c 128,-1,55
 542 190 542 190 542 238 c 128,-1,56
 542 286 542 286 523 328 c 128,-1,57
 504 370 504 370 472 400.5 c 128,-1,58
 440 431 440 431 398 448.5 c 128,-1,59
 356 466 356 466 311 466 c 0,60,61
 263 466 263 466 221 447.5 c 128,-1,62
 179 429 179 429 148 397.5 c 128,-1,63
 117 366 117 366 99 325 c 128,-1,64
 81 284 81 284 81 238 c 0,65,66
 81 190 81 190 100 148 c 128,-1,67
 119 106 119 106 151 75.5 c 128,-1,68
 183 45 183 45 224.5 27.5 c 128,-1,69
 266 10 266 10 311 10 c 1,51,52
EndSplineSet
Substitution2: "'salt' Stylistic Alternatives in Latin lookup 5 subtable" six.alt
Substitution2: "'lnum' Lining Figures in Latin lookup 3 subtable" six.alt
Substitution2: "'aalt' Access All Alternates in Latin lookup 0 subtable" six.alt
EndChar

StartChar: six.alt
Encoding: 65578 -1 214
Width: 618
Flags: W
HStem: -10 20<250.469 376.572> 466 20<248.752 381.32> 712 20<249.086 378.936>
VStem: 61 25<180.654 310.759 326 460.266> 547 20<176.95 302.286>
LayerCount: 2
Fore
SplineSet
567 238 m 1,0,1
 564 187 564 187 545 142.5 c 128,-1,2
 526 98 526 98 495 65.5 c 128,-1,3
 464 33 464 33 422.5 13 c 128,-1,4
 381 -7 381 -7 333 -10 c 1,5,-1
 316 -10 l 2,6,7
 266 -10 266 -10 222 8.5 c 128,-1,8
 178 27 178 27 145 58.5 c 128,-1,9
 112 90 112 90 91.5 131.5 c 128,-1,10
 71 173 71 173 67 218 c 0,11,12
 67 220 67 220 64 249.5 c 128,-1,13
 61 279 61 279 61 325 c 0,14,15
 61 365 61 365 66 410.5 c 128,-1,16
 71 456 71 456 82 501.5 c 128,-1,17
 93 547 93 547 111.5 588.5 c 128,-1,18
 130 630 130 630 157.5 662 c 128,-1,19
 185 694 185 694 222.5 713 c 128,-1,20
 260 732 260 732 309 732 c 2,21,-1
 316 732 l 2,22,23
 353 732 353 732 387 721 c 128,-1,24
 421 710 421 710 448.5 690 c 128,-1,25
 476 670 476 670 496 642 c 128,-1,26
 516 614 516 614 527 581 c 1,27,-1
 508 573 l 1,28,29
 497 606 497 606 478 631.5 c 128,-1,30
 459 657 459 657 433.5 675 c 128,-1,31
 408 693 408 693 378 702.5 c 128,-1,32
 348 712 348 712 316 712 c 2,33,-1
 309 712 l 2,34,35
 262 712 262 712 227.5 692.5 c 128,-1,36
 193 673 193 673 167 640.5 c 128,-1,37
 141 608 141 608 125 567.5 c 128,-1,38
 109 527 109 527 99 484 c 128,-1,39
 89 441 89 441 85.5 399.5 c 128,-1,40
 82 358 82 358 82 326 c 1,41,42
 96 363 96 363 120 392.5 c 128,-1,43
 144 422 144 422 175 443 c 128,-1,44
 206 464 206 464 242 475 c 128,-1,45
 278 486 278 486 316 486 c 0,46,47
 369 486 369 486 414.5 465.5 c 128,-1,48
 460 445 460 445 493.5 411 c 128,-1,49
 527 377 527 377 546.5 332 c 128,-1,50
 566 287 566 287 567 238 c 1,0,1
316 10 m 1,51,52
 363 12 363 12 405 30 c 128,-1,53
 447 48 447 48 479 79 c 128,-1,54
 511 110 511 110 529 150 c 128,-1,55
 547 190 547 190 547 238 c 128,-1,56
 547 286 547 286 528 328 c 128,-1,57
 509 370 509 370 477 400.5 c 128,-1,58
 445 431 445 431 403 448.5 c 128,-1,59
 361 466 361 466 316 466 c 0,60,61
 268 466 268 466 226 447.5 c 128,-1,62
 184 429 184 429 153 397.5 c 128,-1,63
 122 366 122 366 104 325 c 128,-1,64
 86 284 86 284 86 238 c 0,65,66
 86 190 86 190 105 148 c 128,-1,67
 124 106 124 106 156 75.5 c 128,-1,68
 188 45 188 45 229.5 27.5 c 128,-1,69
 271 10 271 10 316 10 c 1,51,52
EndSplineSet
Substitution2: "'onum' Oldstyle Figures in Latin lookup 4 subtable" six
EndChar

StartChar: slash
Encoding: 47 47 215
Width: 477
Flags: W
HStem: 0 21G<3 41.2696> 707 20G<436.73 475>
LayerCount: 2
Fore
SplineSet
475 727 m 1,0,-1
 29 0 l 1,1,-1
 3 0 l 1,2,-1
 449 727 l 1,3,-1
 475 727 l 1,0,-1
EndSplineSet
EndChar

StartChar: A.sc
Encoding: 65579 -1 216
Width: 539
Flags: W
HStem: 0 21G<29 60.6339 478.475 511> 183 21<140 399> 511 20G<251.299 288.701>
LayerCount: 2
Fore
SplineSet
52 0 m 1,0,-1
 29 0 l 1,1,-1
 260 531 l 1,2,-1
 280 531 l 1,3,-1
 511 0 l 1,4,-1
 487 0 l 1,5,-1
 409 183 l 1,6,-1
 131 183 l 1,7,-1
 52 0 l 1,0,-1
270 502 m 1,8,-1
 140 204 l 1,9,-1
 399 204 l 1,10,-1
 270 502 l 1,8,-1
EndSplineSet
EndChar

StartChar: sterling
Encoding: 163 163 217
Width: 447
Flags: W
HStem: -15 20<263.11 394.949> 5 21<129.674 256.824 399.055 421.792> 354 21<45 155 172.029 178.397 197 358> 712 20<172.372 290.465>
VStem: 48 21<509.143 613.229> 212 20<166.808 296.998>
LayerCount: 2
Fore
SplineSet
426 2 m 1,0,1
 400 -6 400 -6 373.5 -10.5 c 128,-1,2
 347 -15 347 -15 321 -15 c 0,3,4
 304 -15 304 -15 287 -12 c 128,-1,5
 270 -9 270 -9 255 -5 c 128,-1,6
 240 -1 240 -1 225 2 c 128,-1,7
 210 5 210 5 194 5 c 0,8,9
 170 5 170 5 146.5 1 c 128,-1,10
 123 -3 123 -3 100 -9 c 1,11,-1
 90 8 l 1,12,13
 136 52 136 52 171.5 103.5 c 128,-1,14
 207 155 207 155 212 219 c 1,15,16
 212 258 212 258 204 290 c 128,-1,17
 196 322 196 322 171 354 c 1,18,-1
 45 354 l 1,19,-1
 45 375 l 1,20,-1
 155 375 l 1,21,22
 137 397 137 397 117.5 418 c 128,-1,23
 98 439 98 439 83 461.5 c 128,-1,24
 68 484 68 484 58 509 c 128,-1,25
 48 534 48 534 48 560 c 0,26,27
 48 594 48 594 62 625 c 128,-1,28
 76 656 76 656 100.5 680.5 c 128,-1,29
 125 705 125 705 158 718.5 c 128,-1,30
 191 732 191 732 230 732 c 0,31,32
 288 732 288 732 340 702 c 128,-1,33
 392 672 392 672 425 625 c 1,34,-1
 408 612 l 1,35,36
 378 656 378 656 330.5 684 c 128,-1,37
 283 712 283 712 230 712 c 0,38,39
 195 712 195 712 165.5 699.5 c 128,-1,40
 136 687 136 687 114.5 666 c 128,-1,41
 93 645 93 645 81 617.5 c 128,-1,42
 69 590 69 590 69 560 c 0,43,44
 69 533 69 533 79 510 c 128,-1,45
 89 487 89 487 105.5 464.5 c 128,-1,46
 122 442 122 442 142 420 c 128,-1,47
 162 398 162 398 180 375 c 1,48,-1
 358 375 l 1,49,-1
 358 354 l 1,50,-1
 197 354 l 1,51,52
 216 327 216 327 224 295 c 128,-1,53
 232 263 232 263 232 226 c 0,54,55
 232 194 232 194 223.5 165.5 c 128,-1,56
 215 137 215 137 200 111.5 c 128,-1,57
 185 86 185 86 166.5 63 c 128,-1,58
 148 40 148 40 129 18 c 1,59,60
 144 21 144 21 160.5 23.5 c 128,-1,61
 177 26 177 26 194 26 c 0,62,63
 214 26 214 26 231 22.5 c 128,-1,64
 248 19 248 19 263 15 c 128,-1,65
 278 11 278 11 291.5 8 c 128,-1,66
 305 5 305 5 321 5 c 0,67,68
 346 5 346 5 370.5 9.5 c 128,-1,69
 395 14 395 14 420 22 c 1,70,-1
 426 2 l 1,0,1
EndSplineSet
EndChar

StartChar: t
Encoding: 116 116 218
Width: 296
Flags: W
HStem: -5 20<151.372 239.446> 511 20<20 97 118 246>
VStem: 97 21<44.9688 511 531 717>
LayerCount: 2
Fore
SplineSet
287 25 m 1,0,1
 279 19.5 l 0,2,3
 271 14 271 14 258.5 9 c 128,-1,4
 246 4 246 4 228.5 -0.5 c 128,-1,5
 211 -5 211 -5 189 -5 c 0,6,7
 152 -5 152 -5 124.5 17.5 c 128,-1,8
 97 40 97 40 97 77 c 2,9,-1
 97 511 l 1,10,-1
 20 511 l 1,11,-1
 20 531 l 1,12,-1
 97 531 l 1,13,-1
 97 717 l 1,14,-1
 118 717 l 1,15,-1
 118 531 l 1,16,-1
 246 531 l 1,17,-1
 246 511 l 1,18,-1
 118 511 l 1,19,-1
 118 77 l 1,20,21
 120 47 120 47 141.5 31 c 128,-1,22
 163 15 163 15 189 15 c 0,23,24
 206 15 206 15 222 19.5 c 128,-1,25
 238 24 238 24 249.5 28.5 c 128,-1,26
 261 33 261 33 267.5 37 c 128,-1,27
 274 41 274 41 275 41 c 2,28,-1
 287 25 l 1,0,1
EndSplineSet
Substitution2: "'salt' Stylistic Alternatives in Latin lookup 5 subtable" t.alt
Substitution2: "'smcp' Lowercase to Small Capitals in Latin lookup 2 subtable" T.sc
AlternateSubs2: "'aalt' Access All Alternates in Latin lookup 1 subtable" T.sc t.alt
EndChar

StartChar: t.alt
Encoding: 65580 -1 219
Width: 238
Flags: W
HStem: 0 21G<90 111> 511 20<13 90 111 239>
VStem: 90 21<0 511 531 750>
LayerCount: 2
Fore
SplineSet
90 0 m 1,0,-1
 90 511 l 1,1,-1
 13 511 l 1,2,-1
 13 531 l 1,3,-1
 90 531 l 1,4,-1
 90 750 l 1,5,-1
 111 750 l 1,6,-1
 111 531 l 1,7,-1
 239 531 l 1,8,-1
 239 511 l 1,9,-1
 111 511 l 1,10,-1
 111 0 l 1,11,-1
 90 0 l 1,0,-1
EndSplineSet
EndChar

StartChar: thorn
Encoding: 254 254 220
Width: 562
Flags: W
HStem: -218 21G<76 96> -10 20<247.334 368.858> 519 21<248.053 378.11> 707 20G<76 96>
VStem: 76 20<-218 382.636 408 727> 540 20<196.219 337.674>
LayerCount: 2
Fore
SplineSet
560 264 m 1,0,1
 558 210 558 210 538.5 160.5 c 128,-1,2
 519 111 519 111 485 73 c 128,-1,3
 451 35 451 35 404.5 12.5 c 128,-1,4
 358 -10 358 -10 304 -10 c 0,5,6
 272 -10 272 -10 242 -1 c 128,-1,7
 212 8 212 8 185 24.5 c 128,-1,8
 158 41 158 41 135 63 c 128,-1,9
 112 85 112 85 96 111 c 1,10,-1
 96 -218 l 1,11,-1
 76 -218 l 1,12,-1
 76 727 l 1,13,-1
 96 727 l 1,14,-1
 96 408 l 1,15,16
 137 465 137 465 190.5 502.5 c 128,-1,17
 244 540 244 540 313 540 c 0,18,19
 371 540 371 540 417.5 515 c 128,-1,20
 464 490 464 490 495 451 c 128,-1,21
 526 412 526 412 543 362.5 c 128,-1,22
 560 313 560 313 560 264 c 1,0,1
540 264 m 0,23,24
 540 313 540 313 523.5 359.5 c 128,-1,25
 507 406 507 406 476.5 441 c 128,-1,26
 446 476 446 476 405 497.5 c 128,-1,27
 364 519 364 519 313 519 c 0,28,29
 275 519 275 519 242 506.5 c 128,-1,30
 209 494 209 494 182 472.5 c 128,-1,31
 155 451 155 451 133.5 423 c 128,-1,32
 112 395 112 395 96 365 c 1,33,-1
 96 173 l 2,34,35
 96 140 96 140 117 110.5 c 128,-1,36
 138 81 138 81 169.5 59 c 128,-1,37
 201 37 201 37 237 23.5 c 128,-1,38
 273 10 273 10 304 10 c 0,39,40
 355 10 355 10 398.5 32 c 128,-1,41
 442 54 442 54 473.5 90 c 128,-1,42
 505 126 505 126 522.5 171.5 c 128,-1,43
 540 217 540 217 540 264 c 0,23,24
EndSplineSet
EndChar

StartChar: three
Encoding: 51 51 221
Width: 530
Flags: W
HStem: -151 21<185.619 330.596> 234 21<233 319.31> 569 21<191.69 320.157>
VStem: 443 21<336.317 452.239> 456 20<-15.3522 109.877>
LayerCount: 2
Fore
SplineSet
131 -118 m 0,0,1
 102 -102 102 -102 79.5 -77 c 128,-1,2
 57 -52 57 -52 46 -19 c 1,3,-1
 66 -12 l 1,4,5
 75 -41 75 -41 94.5 -63 c 128,-1,6
 114 -85 114 -85 140 -100 c 128,-1,7
 166 -115 166 -115 196 -122.5 c 128,-1,8
 226 -130 226 -130 259 -130 c 0,9,10
 297 -130 297 -130 333 -119 c 128,-1,11
 369 -108 369 -108 396 -85.5 c 128,-1,12
 423 -63 423 -63 439.5 -31 c 128,-1,13
 456 1 456 1 456 44 c 0,14,15
 456 135 456 135 397.5 184.5 c 128,-1,16
 339 234 339 234 233 234 c 1,17,-1
 233 255 l 1,18,19
 269 255 269 255 306.5 259.5 c 128,-1,20
 344 264 344 264 374 278.5 c 128,-1,21
 404 293 404 293 423.5 320 c 128,-1,22
 443 347 443 347 443 393 c 0,23,24
 443 431 443 431 428 464 c 128,-1,25
 413 497 413 497 387 520 c 128,-1,26
 361 543 361 543 327.5 556 c 128,-1,27
 294 569 294 569 257 569 c 0,28,29
 199 569 199 569 148 539 c 128,-1,30
 97 509 97 509 76 454 c 1,31,-1
 57 461 l 1,32,33
 68 492 68 492 89 516 c 128,-1,34
 110 540 110 540 136.5 556 c 128,-1,35
 163 572 163 572 194 581 c 128,-1,36
 225 590 225 590 257 590 c 0,37,38
 299 590 299 590 337 574.5 c 128,-1,39
 375 559 375 559 403 533 c 128,-1,40
 431 507 431 507 447.5 470.5 c 128,-1,41
 464 434 464 434 464 393 c 0,42,43
 464 332 464 332 427 293 c 128,-1,44
 390 254 390 254 332 243 c 1,45,46
 366 238 366 238 392.5 219 c 128,-1,47
 419 200 419 200 437.5 172 c 128,-1,48
 456 144 456 144 466 111 c 128,-1,49
 476 78 476 78 476 44 c 0,50,51
 476 -4 476 -4 457.5 -40.5 c 128,-1,52
 439 -77 439 -77 408.5 -101.5 c 128,-1,53
 378 -126 378 -126 339 -138.5 c 128,-1,54
 300 -151 300 -151 259 -151 c 0,55,56
 225 -151 225 -151 192.5 -143 c 128,-1,57
 160 -135 160 -135 131 -118 c 0,0,1
EndSplineSet
Substitution2: "'salt' Stylistic Alternatives in Latin lookup 5 subtable" three.alt
Substitution2: "'lnum' Lining Figures in Latin lookup 3 subtable" three.alt
Substitution2: "'aalt' Access All Alternates in Latin lookup 0 subtable" three.alt
EndChar

StartChar: three.alt
Encoding: 65581 -1 222
Width: 593
Flags: W
HStem: -9 20<222.692 370.584> 358 21<229 360.367> 598 21G<62 87> 716 20<212.776 354.642>
VStem: 50 21<130.313 180> 496 20<475.892 593.947> 516 21<125.678 235.503>
LayerCount: 2
Fore
SplineSet
229 358 m 1,0,-1
 229 379 l 1,1,-1
 265 379 l 2,2,3
 303 379 303 379 344 384.5 c 128,-1,4
 385 390 385 390 419 407 c 128,-1,5
 453 424 453 424 474.5 454 c 128,-1,6
 496 484 496 484 496 535 c 0,7,8
 496 579 496 579 478 612.5 c 128,-1,9
 460 646 460 646 429.5 669 c 128,-1,10
 399 692 399 692 361.5 704 c 128,-1,11
 324 716 324 716 284 716 c 0,12,13
 253 716 253 716 221.5 708.5 c 128,-1,14
 190 701 190 701 163 687 c 128,-1,15
 136 673 136 673 114.5 651 c 128,-1,16
 93 629 93 629 81 598 c 1,17,-1
 62 606 l 1,18,19
 75 639 75 639 99 663.5 c 128,-1,20
 123 688 123 688 152.5 704 c 128,-1,21
 182 720 182 720 216 728 c 128,-1,22
 250 736 250 736 284 736 c 0,23,24
 325 736 325 736 366.5 724 c 128,-1,25
 408 712 408 712 441 686 c 128,-1,26
 474 660 474 660 495 622.5 c 128,-1,27
 516 585 516 585 516 535 c 0,28,29
 516 498 516 498 505 469.5 c 128,-1,30
 494 441 494 441 474 421 c 128,-1,31
 454 401 454 401 426.5 388.5 c 128,-1,32
 399 376 399 376 369 368 c 1,33,34
 403 368 403 368 433 350 c 128,-1,35
 463 332 463 332 486 305 c 128,-1,36
 509 278 509 278 523 245 c 128,-1,37
 537 212 537 212 537 182 c 0,38,39
 537 139 537 139 517.5 104 c 128,-1,40
 498 69 498 69 465 43.5 c 128,-1,41
 432 18 432 18 388 4.5 c 128,-1,42
 344 -9 344 -9 295 -9 c 0,43,44
 256 -9 256 -9 219 -0.5 c 128,-1,45
 182 8 182 8 148 29 c 0,46,47
 108 53 108 53 80 91.5 c 128,-1,48
 52 130 52 130 50 180 c 1,49,-1
 71 180 l 1,50,51
 72 140 72 140 92.5 109 c 128,-1,52
 113 78 113 78 144.5 56.5 c 128,-1,53
 176 35 176 35 215.5 23 c 128,-1,54
 255 11 255 11 295 11 c 256,55,56
 335 11 335 11 375 22 c 128,-1,57
 415 33 415 33 446 54 c 128,-1,58
 477 75 477 75 496.5 107 c 128,-1,59
 516 139 516 139 516 182 c 0,60,61
 516 226 516 226 495.5 259.5 c 128,-1,62
 475 293 475 293 440.5 315 c 128,-1,63
 406 337 406 337 360.5 347.5 c 128,-1,64
 315 358 315 358 265 358 c 2,65,-1
 229 358 l 1,0,-1
EndSplineSet
Substitution2: "'onum' Oldstyle Figures in Latin lookup 4 subtable" three
EndChar

StartChar: tilde
Encoding: 732 732 223
Width: 402
Flags: W
HStem: 615 21<231.661 300.415> 678 20<111.748 166.384>
VStem: 71 20<616 654.664>
LayerCount: 2
Fore
SplineSet
270 615 m 0,0,1
 244 615 244 615 226 625 c 128,-1,2
 208 635 208 635 193.5 646.5 c 128,-1,3
 179 658 179 658 166.5 668 c 128,-1,4
 154 678 154 678 139 678 c 0,5,6
 122 678 122 678 112 668.5 c 128,-1,7
 102 659 102 659 97.5 648 c 128,-1,8
 93 637 93 637 92 627 c 128,-1,9
 91 617 91 617 91 616 c 2,10,-1
 71 615 l 1,11,-1
 71 616 l 2,12,13
 71 617 71 617 72.5 630 c 128,-1,14
 74 643 74 643 80.5 658.5 c 128,-1,15
 87 674 87 674 101 686 c 128,-1,16
 115 698 115 698 139 698 c 0,17,18
 157 698 157 698 172 688.5 c 128,-1,19
 187 679 187 679 202 667 c 128,-1,20
 217 655 217 655 233 645.5 c 128,-1,21
 249 636 249 636 270 636 c 0,22,23
 287 636 287 636 297 643.5 c 128,-1,24
 307 651 307 651 312 661.5 c 128,-1,25
 317 672 317 672 318 680.5 c 128,-1,26
 319 689 319 689 319 691 c 1,27,-1
 340 690 l 1,28,29
 338 668 338 668 330 652 c 0,30,31
 323 638 323 638 309 626.5 c 128,-1,32
 295 615 295 615 270 615 c 0,0,1
EndSplineSet
EndChar

StartChar: two
Encoding: 50 50 224
Width: 475
Flags: W
HStem: 0 20<80 460> 574 21<197.291 332.159>
VStem: 59 21<20 81.375> 428 21<391.529 491.234>
LayerCount: 2
Fore
SplineSet
60 0 m 1,0,1
 59 2 59 2 59 17.5 c 128,-1,2
 59 33 59 33 63.5 56.5 c 128,-1,3
 68 80 68 80 78 109 c 128,-1,4
 88 138 88 138 108 167.5 c 128,-1,5
 128 197 128 197 158.5 224 c 128,-1,6
 189 251 189 251 236 269 c 0,7,8
 265 281 265 281 298 294.5 c 128,-1,9
 331 308 331 308 360 327.5 c 128,-1,10
 389 347 389 347 408.5 375 c 128,-1,11
 428 403 428 403 428 443 c 0,12,13
 428 467 428 467 418 490.5 c 128,-1,14
 408 514 408 514 387.5 532.5 c 128,-1,15
 367 551 367 551 335.5 562.5 c 128,-1,16
 304 574 304 574 262 574 c 0,17,18
 222 574 222 574 190 561 c 128,-1,19
 158 548 158 548 135.5 531.5 c 128,-1,20
 113 515 113 515 100.5 500.5 c 128,-1,21
 88 486 88 486 87 485 c 1,22,-1
 71 498 l 1,23,24
 84 513 l 0,25,26
 97 528 97 528 121.5 546.5 c 128,-1,27
 146 565 146 565 181.5 580 c 128,-1,28
 217 595 217 595 262 595 c 0,29,30
 308 595 308 595 343 581.5 c 128,-1,31
 378 568 378 568 401.5 546.5 c 128,-1,32
 425 525 425 525 437 498 c 128,-1,33
 449 471 449 471 449 443 c 0,34,35
 449 397 449 397 428 366 c 128,-1,36
 407 335 407 335 375 313.5 c 128,-1,37
 343 292 343 292 307 277.5 c 128,-1,38
 271 263 271 263 243 250 c 1,39,40
 190 227 190 227 157.5 194 c 128,-1,41
 125 161 125 161 108 127 c 128,-1,42
 91 93 91 93 85.5 63.5 c 128,-1,43
 80 34 80 34 80 20 c 1,44,-1
 460 20 l 1,45,-1
 460 0 l 1,46,-1
 60 0 l 1,0,1
EndSplineSet
Substitution2: "'salt' Stylistic Alternatives in Latin lookup 5 subtable" two.alt
Substitution2: "'lnum' Lining Figures in Latin lookup 3 subtable" two.alt
Substitution2: "'aalt' Access All Alternates in Latin lookup 0 subtable" two.alt
EndChar

StartChar: two.alt
Encoding: 65582 -1 225
Width: 542
Flags: W
HStem: 0 20<81.165 527> 597 21G<73 90.5> 716 20<233.617 378.248>
VStem: 60 21<20 110.136> 506 20<476.064 597.141>
LayerCount: 2
Fore
SplineSet
63 0 m 1,0,-1
 62 9 l 2,1,2
 61 13 61 13 61 17 c 0,3,4
 60 22 60 22 60 40 c 0,5,6
 60 65 60 65 68 102 c 128,-1,7
 76 139 76 139 98.5 179.5 c 128,-1,8
 121 220 121 220 162 259 c 128,-1,9
 203 298 203 298 269 327 c 0,10,11
 305 342 305 342 346.5 356.5 c 128,-1,12
 388 371 388 371 423.5 393 c 128,-1,13
 459 415 459 415 482.5 449 c 128,-1,14
 506 483 506 483 506 538 c 0,15,16
 506 570 506 570 494.5 602 c 128,-1,17
 483 634 483 634 458.5 659 c 128,-1,18
 434 684 434 684 395.5 700 c 128,-1,19
 357 716 357 716 303 716 c 0,20,21
 251 716 251 716 211.5 698 c 128,-1,22
 172 680 172 680 145.5 658 c 128,-1,23
 119 636 119 636 105 617 c 128,-1,24
 91 598 91 598 90 597 c 1,25,-1
 73 607 l 2,26,27
 73 608 73 608 87.5 628.5 c 128,-1,28
 102 649 102 649 131.5 673 c 128,-1,29
 161 697 161 697 205 716.5 c 128,-1,30
 249 736 249 736 307 736 c 0,31,32
 363 736 363 736 404.5 718.5 c 128,-1,33
 446 701 446 701 473 673 c 128,-1,34
 500 645 500 645 513 609.5 c 128,-1,35
 526 574 526 574 526 538 c 0,36,37
 526 478 526 478 500.5 440 c 128,-1,38
 475 402 475 402 437.5 378 c 128,-1,39
 400 354 400 354 356.5 339 c 128,-1,40
 313 324 313 324 278 308 c 0,41,42
 215 280 215 280 176 243.5 c 128,-1,43
 137 207 137 207 116 169 c 128,-1,44
 95 131 95 131 88 96.5 c 128,-1,45
 81 62 81 62 81 40 c 0,46,47
 81 26 81 26 82 20 c 1,48,-1
 527 20 l 1,49,-1
 527 0 l 1,50,-1
 63 0 l 1,0,-1
EndSplineSet
Substitution2: "'onum' Oldstyle Figures in Latin lookup 4 subtable" two
EndChar

StartChar: u
Encoding: 117 117 226
Width: 582
Flags: W
HStem: -10 20<190.233 314.03> 0 20<252.28 338.141 502.465 516> 511 20G<77 97 479 500>
VStem: 77 20<130.931 531> 479 21<21.1422 135 164.159 531>
LayerCount: 2
Fore
SplineSet
516 20 m 1,0,-1
 516 0 l 1,1,2
 499 1 499 1 489 13.5 c 128,-1,3
 479 26 479 26 479 41 c 2,4,-1
 479 135 l 1,5,6
 463 102 463 102 438.5 75.5 c 128,-1,7
 414 49 414 49 383.5 30 c 128,-1,8
 353 11 353 11 319.5 0.5 c 128,-1,9
 286 -10 286 -10 251 -10 c 0,10,11
 196 -10 196 -10 161.5 11.5 c 128,-1,12
 127 33 127 33 108 67.5 c 128,-1,13
 89 102 89 102 83 145.5 c 128,-1,14
 77 189 77 189 77 233 c 2,15,-1
 77 531 l 1,16,-1
 97 531 l 1,17,-1
 97 233 l 2,18,19
 97 188 97 188 103.5 148 c 128,-1,20
 110 108 110 108 126.5 77 c 128,-1,21
 143 46 143 46 173 28 c 128,-1,22
 203 10 203 10 251 10 c 0,23,24
 292 10 292 10 329 25.5 c 128,-1,25
 366 41 366 41 396 66.5 c 128,-1,26
 426 92 426 92 447.5 125 c 128,-1,27
 469 158 469 158 479 194 c 1,28,-1
 479 531 l 1,29,-1
 500 531 l 1,30,-1
 500 41 l 1,31,32
 502 20 502 20 516 20 c 1,0,-1
EndSplineSet
Substitution2: "'smcp' Lowercase to Small Capitals in Latin lookup 2 subtable" U.sc
Substitution2: "'aalt' Access All Alternates in Latin lookup 0 subtable" U.sc
EndChar

StartChar: u.alt
Encoding: 65583 -1 227
Width: 579
Flags: W
HStem: -10 20<189.233 313.03> 0 21G<478 499> 511 20G<76 96 478 499>
VStem: 76 20<130.931 531> 478 21<0 135 164.159 531>
LayerCount: 2
Fore
SplineSet
478 0 m 1,0,-1
 478 135 l 1,1,2
 462 102 462 102 437.5 75.5 c 128,-1,3
 413 49 413 49 382.5 30 c 128,-1,4
 352 11 352 11 318.5 0.5 c 128,-1,5
 285 -10 285 -10 250 -10 c 0,6,7
 195 -10 195 -10 160.5 11.5 c 128,-1,8
 126 33 126 33 107 67.5 c 128,-1,9
 88 102 88 102 82 145.5 c 128,-1,10
 76 189 76 189 76 233 c 2,11,-1
 76 531 l 1,12,-1
 96 531 l 1,13,-1
 96 233 l 2,14,15
 96 188 96 188 102.5 148 c 128,-1,16
 109 108 109 108 125.5 77 c 128,-1,17
 142 46 142 46 172 28 c 128,-1,18
 202 10 202 10 250 10 c 0,19,20
 291 10 291 10 328 25.5 c 128,-1,21
 365 41 365 41 395 66.5 c 128,-1,22
 425 92 425 92 446.5 125 c 128,-1,23
 468 158 468 158 478 194 c 1,24,-1
 478 531 l 1,25,-1
 499 531 l 1,26,-1
 499 0 l 1,27,-1
 478 0 l 1,0,-1
EndSplineSet
EndChar

StartChar: underscore
Encoding: 95 95 232
Width: 567
Flags: W
HStem: -20 20<83 485>
LayerCount: 2
Fore
SplineSet
83 -20 m 1,0,-1
 83 0 l 1,1,-1
 485 0 l 1,2,-1
 485 -20 l 1,3,-1
 83 -20 l 1,0,-1
EndSplineSet
EndChar

StartChar: v
Encoding: 118 118 233
Width: 532
Flags: W
HStem: 0 21G<253.299 289.701> 511 20G<31 61.7026 480.297 512>
LayerCount: 2
Fore
SplineSet
262 0 m 1,0,-1
 31 531 l 1,1,-1
 53 531 l 1,2,-1
 271 30 l 1,3,-1
 489 531 l 1,4,-1
 512 531 l 1,5,-1
 281 0 l 1,6,-1
 262 0 l 1,0,-1
EndSplineSet
Substitution2: "'smcp' Lowercase to Small Capitals in Latin lookup 2 subtable" V.sc
Substitution2: "'aalt' Access All Alternates in Latin lookup 0 subtable" V.sc
EndChar

StartChar: w
Encoding: 119 119 234
Width: 823
Flags: W
HStem: 0 21G<254.262 290.725 533.275 568.776> 511 20G<31 61.7425 761.258 793>
LayerCount: 2
Fore
SplineSet
770 531 m 1,0,-1
 793 531 l 1,1,-1
 560 0 l 1,2,-1
 542 0 l 1,3,-1
 412 298 l 1,4,-1
 282 0 l 1,5,-1
 263 0 l 1,6,-1
 31 531 l 1,7,-1
 53 531 l 1,8,-1
 272 30 l 1,9,-1
 400 324 l 1,10,-1
 311 529 l 1,11,-1
 333 529 l 1,12,-1
 412 350 l 1,13,-1
 490 529 l 1,14,-1
 512 529 l 1,15,-1
 423 324 l 1,16,-1
 551 30 l 1,17,-1
 770 531 l 1,0,-1
EndSplineSet
Substitution2: "'salt' Stylistic Alternatives in Latin lookup 5 subtable" w.alt
Substitution2: "'smcp' Lowercase to Small Capitals in Latin lookup 2 subtable" W.sc
AlternateSubs2: "'aalt' Access All Alternates in Latin lookup 1 subtable" W.sc w.alt
EndChar

StartChar: w.alt
Encoding: 65584 -1 235
Width: 856
Flags: W
HStem: 0 21G<233.806 265.693 590.307 622.194> 511 20G<50 80.08 410.32 445.68 775.92 806>
LayerCount: 2
Fore
SplineSet
597 0 m 1,0,-1
 428 505 l 1,1,-1
 259 0 l 1,2,-1
 241 0 l 1,3,-1
 50 531 l 1,4,-1
 73 531 l 1,5,-1
 250 31 l 1,6,-1
 417 531 l 1,7,-1
 439 531 l 1,8,-1
 606 31 l 1,9,-1
 783 531 l 1,10,-1
 806 531 l 1,11,-1
 615 0 l 1,12,-1
 597 0 l 1,0,-1
EndSplineSet
EndChar

StartChar: x
Encoding: 120 120 236
Width: 555
Flags: W
HStem: 0 21G<53 95.9677 459.113 502> 511 20G<51 94.0643 461.016 504>
LayerCount: 2
Fore
SplineSet
78 531 m 1,0,-1
 278 282 l 1,1,-1
 477 531 l 1,2,-1
 504 531 l 1,3,-1
 291 264 l 1,4,-1
 502 0 l 1,5,-1
 475 0 l 1,6,-1
 278 248 l 1,7,-1
 80 0 l 1,8,-1
 53 0 l 1,9,-1
 264 264 l 1,10,-1
 51 531 l 1,11,-1
 78 531 l 1,0,-1
EndSplineSet
Substitution2: "'smcp' Lowercase to Small Capitals in Latin lookup 2 subtable" X.sc
Substitution2: "'aalt' Access All Alternates in Latin lookup 0 subtable" X.sc
EndChar

StartChar: y
Encoding: 121 121 237
Width: 532
Flags: W
HStem: -228 20<125 171.482> 511 20G<15 47.2673 486.168 517>
LayerCount: 2
Fore
SplineSet
517 531 m 1,0,-1
 201 -190 l 1,1,-1
 194 -203 l 2,2,3
 186 -216 186 -216 170 -222 c 128,-1,4
 154 -228 154 -228 125 -228 c 1,5,-1
 125 -208 l 1,6,7
 150 -208 150 -208 159 -205 c 128,-1,8
 168 -202 168 -202 173 -197 c 0,9,10
 175 -195 175 -195 177.5 -189.5 c 128,-1,11
 180 -184 180 -184 189 -165 c 128,-1,12
 198 -146 198 -146 214.5 -108 c 128,-1,13
 231 -70 231 -70 262 0 c 1,14,-1
 15 531 l 1,15,-1
 38 531 l 1,16,-1
 272 26 l 1,17,-1
 495 531 l 1,18,-1
 517 531 l 1,0,-1
EndSplineSet
Substitution2: "'salt' Stylistic Alternatives in Latin lookup 5 subtable" y.alt
Substitution2: "'smcp' Lowercase to Small Capitals in Latin lookup 2 subtable" Y.sc
AlternateSubs2: "'aalt' Access All Alternates in Latin lookup 1 subtable" Y.sc y.alt
EndChar

StartChar: y.alt
Encoding: 65585 -1 238
Width: 550
Flags: W
HStem: -218 21G<190 217.732> 511 20G<34 65.3069 504.208 536>
LayerCount: 2
Fore
SplineSet
536 531 m 1,0,-1
 209 -218 l 1,1,-1
 190 -218 l 1,2,3
 191 -216 191 -216 194 -207.5 c 128,-1,4
 197 -199 197 -199 206 -176 c 128,-1,5
 215 -153 215 -153 232.5 -111.5 c 128,-1,6
 250 -70 250 -70 281 0 c 1,7,-1
 34 531 l 1,8,-1
 56 531 l 1,9,-1
 291 26 l 1,10,-1
 513 531 l 1,11,-1
 536 531 l 1,0,-1
EndSplineSet
EndChar

StartChar: yen
Encoding: 165 165 241
Width: 654
Flags: W
HStem: 0 21G<316 337> 237 20<177 316 337 477> 329 20<177 273 382 477> 707 20G<23 59.3175 594.682 632>
VStem: 316 21<0 237 257 282>
LayerCount: 2
Fore
SplineSet
382 349 m 1,0,-1
 477 349 l 1,1,-1
 477 329 l 1,2,-1
 369 329 l 1,3,-1
 337 282 l 1,4,-1
 337 257 l 1,5,-1
 477 257 l 1,6,-1
 477 237 l 1,7,-1
 337 237 l 1,8,-1
 337 0 l 1,9,-1
 316 0 l 1,10,-1
 316 237 l 1,11,-1
 177 237 l 1,12,-1
 177 257 l 1,13,-1
 316 257 l 1,14,-1
 316 284 l 1,15,-1
 287 329 l 1,16,-1
 177 329 l 1,17,-1
 177 349 l 1,18,-1
 273 349 l 1,19,-1
 23 727 l 1,20,-1
 46 727 l 1,21,-1
 327 305 l 1,22,-1
 608 727 l 1,23,-1
 632 727 l 1,24,-1
 382 349 l 1,0,-1
EndSplineSet
EndChar

StartChar: z
Encoding: 122 122 242
Width: 482
Flags: W
HStem: 0 20<47 447> 511 20<26 426>
LayerCount: 2
Fore
SplineSet
20 0 m 1,0,-1
 20 20 l 1,1,-1
 426 511 l 1,2,-1
 26 511 l 1,3,-1
 26 531 l 1,4,-1
 452 531 l 1,5,-1
 452 511 l 1,6,-1
 47 20 l 1,7,-1
 447 20 l 1,8,-1
 447 0 l 1,9,-1
 20 0 l 1,0,-1
EndSplineSet
Substitution2: "'smcp' Lowercase to Small Capitals in Latin lookup 2 subtable" Z.sc
Substitution2: "'aalt' Access All Alternates in Latin lookup 0 subtable" Z.sc
EndChar

StartChar: zero
Encoding: 48 48 244
Width: 589
Flags: W
HStem: -10 20<233.28 356.168> 591 20<235.709 353.44>
VStem: 52 21<213.993 384.501> 517 21<207.98 382.805>
LayerCount: 2
Fore
SplineSet
295 -10 m 1,0,1
 239 -9 239 -9 193.5 16.5 c 128,-1,2
 148 42 148 42 117 84 c 128,-1,3
 86 126 86 126 69 181 c 128,-1,4
 52 236 52 236 52 295 c 0,5,6
 52 358 52 358 70.5 415.5 c 128,-1,7
 89 473 89 473 121.5 516.5 c 128,-1,8
 154 560 154 560 198.5 585.5 c 128,-1,9
 243 611 243 611 295 611 c 0,10,11
 352 611 352 611 397 583 c 128,-1,12
 442 555 442 555 473.5 510 c 128,-1,13
 505 465 505 465 521.5 408.5 c 128,-1,14
 538 352 538 352 538 295 c 0,15,16
 538 233 538 233 520 178 c 128,-1,17
 502 123 502 123 469.5 81.5 c 128,-1,18
 437 40 437 40 392.5 15.5 c 128,-1,19
 348 -9 348 -9 295 -10 c 1,0,1
73 295 m 1,20,21
 75 238 75 238 90.5 186 c 128,-1,22
 106 134 106 134 135 95 c 128,-1,23
 164 56 164 56 204 33 c 128,-1,24
 244 10 244 10 295 10 c 0,25,26
 347 10 347 10 388.5 34.5 c 128,-1,27
 430 59 430 59 458.5 99 c 128,-1,28
 487 139 487 139 502 190.5 c 128,-1,29
 517 242 517 242 517 295 c 0,30,31
 517 352 517 352 500.5 405.5 c 128,-1,32
 484 459 484 459 455 500.5 c 128,-1,33
 426 542 426 542 385 566.5 c 128,-1,34
 344 591 344 591 295 591 c 0,35,36
 243 591 243 591 201.5 564.5 c 128,-1,37
 160 538 160 538 131 496 c 128,-1,38
 102 454 102 454 87.5 401 c 128,-1,39
 73 348 73 348 73 295 c 1,20,21
EndSplineSet
Substitution2: "'salt' Stylistic Alternatives in Latin lookup 5 subtable" zero.alt
Substitution2: "'lnum' Lining Figures in Latin lookup 3 subtable" zero.alt
Substitution2: "'aalt' Access All Alternates in Latin lookup 0 subtable" zero.alt
EndChar

StartChar: zero.alt
Encoding: 65586 -1 245
Width: 690
Flags: W
HStem: -10 20<279.538 411.884> 707 20<278.436 410.139>
VStem: 56 21<275.016 447.296> 613 21<266.518 450.578>
LayerCount: 2
Fore
SplineSet
345 -10 m 1,0,1
 273 -8 273 -8 219.5 26.5 c 128,-1,2
 166 61 166 61 129.5 114.5 c 128,-1,3
 93 168 93 168 74.5 232.5 c 128,-1,4
 56 297 56 297 56 358 c 0,5,6
 56 424 56 424 76 490 c 128,-1,7
 96 556 96 556 133.5 609 c 128,-1,8
 171 662 171 662 225 694.5 c 128,-1,9
 279 727 279 727 345 727 c 0,10,11
 417 727 417 727 470.5 691.5 c 128,-1,12
 524 656 524 656 560.5 602 c 128,-1,13
 597 548 597 548 615.5 483 c 128,-1,14
 634 418 634 418 634 358 c 0,15,16
 634 291 634 291 614 226 c 128,-1,17
 594 161 594 161 556.5 108.5 c 128,-1,18
 519 56 519 56 465.5 23.5 c 128,-1,19
 412 -9 412 -9 345 -10 c 1,0,1
77 358 m 1,20,21
 79 297 79 297 97.5 235 c 128,-1,22
 116 173 116 173 149.5 123.5 c 128,-1,23
 183 74 183 74 232 42 c 128,-1,24
 281 10 281 10 345 10 c 0,25,26
 412 10 412 10 462 44 c 128,-1,27
 512 78 512 78 546 129 c 128,-1,28
 580 180 580 180 596.5 241.5 c 128,-1,29
 613 303 613 303 613 358 c 0,30,31
 613 419 613 419 595 481.5 c 128,-1,32
 577 544 577 544 542 593.5 c 128,-1,33
 507 643 507 643 457.5 675 c 128,-1,34
 408 707 408 707 345 707 c 0,35,36
 278 707 278 707 228 673 c 128,-1,37
 178 639 178 639 144.5 587.5 c 128,-1,38
 111 536 111 536 94 474.5 c 128,-1,39
 77 413 77 413 77 358 c 1,20,21
EndSplineSet
Substitution2: "'onum' Oldstyle Figures in Latin lookup 4 subtable" zero
EndChar

StartChar: guilsinglleft
Encoding: 8249 8249 246
Width: 309
Flags: W
VStem: 2 243
LayerCount: 2
Fore
SplineSet
2 274 m 1,0,-1
 245 447 l 1,1,-1
 245 425 l 1,2,-1
 22 265 l 1,3,-1
 245 104 l 1,4,-1
 245 82 l 1,5,-1
 2 256 l 1,6,-1
 2 274 l 1,0,-1
EndSplineSet
EndChar

StartChar: guilsinglright
Encoding: 8250 8250 247
Width: 314
Flags: W
VStem: 70 242
LayerCount: 2
Fore
SplineSet
312 256 m 1,0,-1
 70 82 l 1,1,-1
 70 104 l 1,2,-1
 293 265 l 1,3,-1
 70 425 l 1,4,-1
 70 447 l 1,5,-1
 312 274 l 1,6,-1
 312 256 l 1,0,-1
EndSplineSet
EndChar

StartChar: trademark
Encoding: 8482 8482 248
Width: 650
Flags: W
HStem: 709 20<47 144 165 262>
VStem: 144 21<443 709>
LayerCount: 2
Fore
SplineSet
262 709 m 1,0,-1
 165 709 l 1,1,-1
 165 443 l 1,2,-1
 144 443 l 1,3,-1
 144 709 l 1,4,-1
 47 709 l 1,5,-1
 47 729 l 1,6,-1
 262 729 l 1,7,-1
 262 709 l 1,0,-1
438 513 m 1,8,-1
 331 727 l 1,9,-1
 309 727 l 1,10,-1
 309 443 l 1,11,-1
 330 443 l 1,12,-1
 330 688 l 1,13,-1
 430 486 l 1,14,-1
 447 486 l 1,15,-1
 548 688 l 1,16,-1
 548 443 l 1,17,-1
 568 443 l 1,18,-1
 568 727 l 1,19,-1
 546 727 l 1,20,-1
 438 513 l 1,8,-1
EndSplineSet
EndChar

StartChar: guillemotleft
Encoding: 171 171 249
Width: 510
Flags: W
LayerCount: 2
Fore
SplineSet
22 274 m 1,0,-1
 264 447 l 1,1,-1
 264 425 l 1,2,-1
 41 265 l 1,3,-1
 264 104 l 1,4,-1
 264 82 l 1,5,-1
 22 256 l 1,6,-1
 22 274 l 1,0,-1
196 274 m 1,7,-1
 438 447 l 1,8,-1
 438 425 l 1,9,-1
 215 265 l 1,10,-1
 438 104 l 1,11,-1
 438 82 l 1,12,-1
 196 256 l 1,13,-1
 196 274 l 1,7,-1
EndSplineSet
EndChar

StartChar: guillemotright
Encoding: 187 187 250
Width: 513
Flags: W
LayerCount: 2
Fore
SplineSet
492 256 m 1,0,-1
 249 82 l 1,1,-1
 249 104 l 1,2,-1
 472 265 l 1,3,-1
 249 425 l 1,4,-1
 249 447 l 1,5,-1
 492 274 l 1,6,-1
 492 256 l 1,0,-1
317 256 m 1,7,-1
 75 82 l 1,8,-1
 75 104 l 1,9,-1
 298 265 l 1,10,-1
 75 425 l 1,11,-1
 75 447 l 1,12,-1
 317 274 l 1,13,-1
 317 256 l 1,7,-1
EndSplineSet
EndChar

StartChar: ffl
Encoding: 64260 64260 251
Width: 778
Flags: W
HStem: -5 19<651.393 746.375> 2.5 16<685.313 749.035> 449 20<27 103 124 321 341 469> 696 21<204.946 321.298> 737 21<424.314 536.068>
VStem: 103 21<0 449 469 600.463> 321 20<0 449 469 627.532> 603 21<42.9453 675.553>
LayerCount: 2
Fore
SplineSet
757 4 m 1,0,1
 750 2.5 l 0,2,3
 743 1 743 1 733 -0.5 c 128,-1,4
 723 -2 723 -2 710 -3.5 c 128,-1,5
 697 -5 697 -5 684 -5 c 0,6,7
 645 -5 645 -5 624 20 c 128,-1,8
 603 45 603 45 603 79 c 2,9,-1
 603 628 l 2,10,11
 603 648 603 648 596 667.5 c 128,-1,12
 589 687 589 687 573.5 702.5 c 128,-1,13
 558 718 558 718 534 727.5 c 128,-1,14
 510 737 510 737 476 737 c 0,15,16
 439 737 439 737 413.5 721 c 128,-1,17
 388 705 388 705 372 678 c 128,-1,18
 356 651 356 651 348.5 618.5 c 128,-1,19
 341 586 341 586 341 553 c 2,20,-1
 341 469 l 1,21,-1
 469 469 l 1,22,-1
 469 449 l 1,23,-1
 341 449 l 1,24,-1
 341 0 l 1,25,-1
 321 0 l 1,26,-1
 321 449 l 1,27,-1
 124 449 l 1,28,-1
 124 0 l 1,29,-1
 103 0 l 1,30,-1
 103 449 l 1,31,-1
 27 449 l 1,32,-1
 27 469 l 1,33,-1
 103 469 l 1,34,-1
 103 532 l 2,35,36
 103 570 103 570 113 604 c 128,-1,37
 123 638 123 638 142.5 663 c 128,-1,38
 162 688 162 688 191 702.5 c 128,-1,39
 220 717 220 717 259 717 c 0,40,41
 299 717 299 717 320 708 c 128,-1,42
 341 699 341 699 352 691 c 1,43,44
 370 722 370 722 400.5 740 c 128,-1,45
 431 758 431 758 476 758 c 0,46,47
 511 758 511 758 538.5 747.5 c 128,-1,48
 566 737 566 737 585 719.5 c 128,-1,49
 604 702 604 702 614 678.5 c 128,-1,50
 624 655 624 655 624 629 c 2,51,-1
 624 79 l 2,52,53
 624 56 624 56 639.5 35 c 128,-1,54
 655 14 655 14 685 14 c 0,55,56
 695 14 695 14 706 15.5 c 128,-1,57
 717 17 717 17 726 18.5 c 128,-1,58
 735 20 735 20 741.5 22 c 0,59,-1
 748 24 l 1,60,-1
 757 4 l 1,0,1
321 553 m 2,61,62
 321 586 321 586 326 616.5 c 128,-1,63
 331 647 331 647 342 673 c 1,64,65
 325 687 325 687 303 691.5 c 128,-1,66
 281 696 281 696 259 696 c 0,67,68
 222 696 222 696 196.5 681.5 c 128,-1,69
 171 667 171 667 155 643.5 c 128,-1,70
 139 620 139 620 131.5 590.5 c 128,-1,71
 124 561 124 561 124 532 c 2,72,-1
 124 469 l 1,73,-1
 321 469 l 1,74,-1
 321 553 l 2,61,62
EndSplineSet
Ligature2: "'liga' Standard Ligatures in Latin lookup 6 subtable" f f l
EndChar

StartChar: st
Encoding: 64262 64262 252
Width: 766
Flags: W
HStem: -10 20<149.278 294.073 624.726 685.933> 254 20<140.283 303.288> 511 20<119.223 212.969 215.343 311.651 483 560 581 709> 519 21<139.101 290.289> 751 20<383.71 499.507>
VStem: 26 20<347.122 444.893> 301 21<574.26 687.722> 400 21<87.4153 183.799> 560 21<44.9688 511 531 688.903>
LayerCount: 2
Fore
SplineSet
750 25 m 1,0,1
 742 19.5 l 0,2,3
 734 14 734 14 721.5 9 c 128,-1,4
 709 4 709 4 691.5 -0.5 c 128,-1,5
 674 -5 674 -5 652 -5 c 0,6,7
 615 -5 615 -5 587.5 17.5 c 128,-1,8
 560 40 560 40 560 77 c 2,9,-1
 560 511 l 1,10,-1
 483 511 l 1,11,-1
 483 531 l 1,12,-1
 560 531 l 1,13,-1
 560 546 l 2,14,15
 560 586 560 586 560 622.5 c 128,-1,16
 560 659 560 659 550 688 c 128,-1,17
 540 717 540 717 513.5 734 c 128,-1,18
 487 751 487 751 434 751 c 0,19,20
 405 751 405 751 384.5 741.5 c 128,-1,21
 364 732 364 732 350 716 c 128,-1,22
 336 700 336 700 329 679 c 128,-1,23
 322 658 322 658 322 635 c 0,24,25
 322 592 322 592 335 561 c 128,-1,26
 348 530 348 530 364 499 c 0,27,28
 375 473 375 473 379 468.5 c 128,-1,29
 383 464 383 464 383 463 c 2,30,-1
 365 455 l 1,31,32
 339 494 339 494 298 506.5 c 128,-1,33
 257 519 257 519 214 519 c 0,34,35
 184 519 184 519 154 512.5 c 128,-1,36
 124 506 124 506 100 491.5 c 128,-1,37
 76 477 76 477 61 454 c 128,-1,38
 46 431 46 431 46 398 c 0,39,40
 46 361 46 361 61.5 337 c 128,-1,41
 77 313 77 313 101.5 299.5 c 128,-1,42
 126 286 126 286 156 280 c 128,-1,43
 186 274 186 274 216 274 c 0,44,45
 252 274 252 274 289 267.5 c 128,-1,46
 326 261 326 261 355 245 c 128,-1,47
 384 229 384 229 402.5 202 c 128,-1,48
 421 175 421 175 421 135 c 256,49,50
 421 95 421 95 402 67 c 128,-1,51
 383 39 383 39 353.5 22 c 128,-1,52
 324 5 324 5 288.5 -2.5 c 128,-1,53
 253 -10 253 -10 220 -10 c 0,54,55
 153 -10 153 -10 103 14.5 c 128,-1,56
 53 39 53 39 18 74 c 1,57,-1
 34 87 l 1,58,59
 117 10 117 10 220 10 c 0,60,61
 251 10 251 10 282.5 17 c 128,-1,62
 314 24 314 24 340.5 38.5 c 128,-1,63
 367 53 367 53 383.5 77 c 128,-1,64
 400 101 400 101 400 135 c 0,65,66
 400 172 400 172 382.5 195.5 c 128,-1,67
 365 219 365 219 337 232 c 128,-1,68
 309 245 309 245 277 249.5 c 128,-1,69
 245 254 245 254 216 254 c 0,70,71
 178 254 178 254 143.5 261.5 c 128,-1,72
 109 269 109 269 82.5 286 c 128,-1,73
 56 303 56 303 41 330.5 c 128,-1,74
 26 358 26 358 26 398 c 0,75,76
 26 437 26 437 43 463.5 c 128,-1,77
 60 490 60 490 87.5 507 c 128,-1,78
 115 524 115 524 148 532 c 128,-1,79
 181 540 181 540 214 540 c 0,80,81
 256 540 256 540 286.5 531.5 c 128,-1,82
 317 523 317 523 340 509 c 1,83,84
 333 525 333 525 326 539.5 c 128,-1,85
 319 554 319 554 313.5 568.5 c 128,-1,86
 308 583 308 583 304.5 598.5 c 128,-1,87
 301 614 301 614 301 635 c 0,88,89
 301 663 301 663 309.5 687.5 c 128,-1,90
 318 712 318 712 335 731 c 128,-1,91
 352 750 352 750 376.5 760.5 c 128,-1,92
 401 771 401 771 434 771 c 0,93,94
 496 771 496 771 527 748.5 c 128,-1,95
 558 726 558 726 570 692.5 c 128,-1,96
 582 659 582 659 581.5 620.5 c 128,-1,97
 581 582 581 582 581 549 c 2,98,-1
 581 531 l 1,99,-1
 709 531 l 1,100,-1
 709 511 l 1,101,-1
 581 511 l 1,102,-1
 581 77 l 1,103,104
 583 47 583 47 604.5 31 c 128,-1,105
 626 15 626 15 652 15 c 0,106,107
 669 15 669 15 684.5 19.5 c 128,-1,108
 700 24 700 24 712 28.5 c 128,-1,109
 724 33 724 33 730.5 37 c 128,-1,110
 737 41 737 41 738 41 c 2,111,-1
 750 25 l 1,0,1
EndSplineSet
Ligature2: "'dlig' Discretionary Ligatures in Latin lookup 7 subtable" s t
EndChar

StartChar: ffi
Encoding: 65587 -1 253
Width: 630
Flags: W
HStem: 0 21G<99 120 311 332 562 583> 449 20<23 99 120 311 332 562> 696 21<196.812 314.34> 737 21<422.5 548.36>
VStem: 99 21<0 449 469 597.501> 311 21<0 449 469 626.419> 562 21<0 449>
LayerCount: 2
Fore
SplineSet
477 737 m 0,0,1
 437 737 437 737 409.5 720 c 128,-1,2
 382 703 382 703 364.5 676.5 c 128,-1,3
 347 650 347 650 339.5 617.5 c 128,-1,4
 332 585 332 585 332 553 c 2,5,-1
 332 469 l 1,6,-1
 583 469 l 1,7,-1
 583 0 l 1,8,-1
 562 0 l 1,9,-1
 562 449 l 1,10,-1
 332 449 l 1,11,-1
 332 0 l 1,12,-1
 311 0 l 1,13,-1
 311 449 l 1,14,-1
 120 449 l 1,15,-1
 120 0 l 1,16,-1
 99 0 l 1,17,-1
 99 449 l 1,18,-1
 23 449 l 1,19,-1
 23 469 l 1,20,-1
 99 469 l 1,21,-1
 99 522 l 2,22,23
 99 556 99 556 107.5 591 c 128,-1,24
 116 626 116 626 133.5 654 c 128,-1,25
 151 682 151 682 178.5 699.5 c 128,-1,26
 206 717 206 717 245 717 c 0,27,28
 286 717 286 717 312 707.5 c 128,-1,29
 338 698 338 698 349 690 c 1,30,31
 368 720 368 720 399.5 739 c 128,-1,32
 431 758 431 758 477 758 c 0,33,34
 505 758 505 758 527.5 753 c 128,-1,35
 550 748 550 748 566.5 741.5 c 128,-1,36
 583 735 583 735 591.5 729.5 c 128,-1,37
 600 724 600 724 600 723 c 2,38,-1
 584 711 l 1,39,40
 575 720 575 720 545.5 728.5 c 128,-1,41
 516 737 516 737 477 737 c 0,0,1
311 553 m 2,42,43
 311 582 311 582 318 613 c 128,-1,44
 325 644 325 644 339 672 c 1,45,46
 321 687 321 687 293.5 691.5 c 128,-1,47
 266 696 266 696 245 696 c 0,48,49
 208 696 208 696 184 678 c 128,-1,50
 160 660 160 660 145.5 634 c 128,-1,51
 131 608 131 608 125.5 577.5 c 128,-1,52
 120 547 120 547 120 522 c 2,53,-1
 120 469 l 1,54,-1
 311 469 l 1,55,-1
 311 553 l 2,42,43
EndSplineSet
Ligature2: "'liga' Standard Ligatures in Latin lookup 6 subtable" f f i
EndChar

StartChar: ct
Encoding: 65588 -1 254
Width: 832
Flags: W
HStem: -10 20<213.156 338.708 688.328 750.007> 511 20<547 624 644 772> 519 21<200.82 341.597> 751 20<447.452 561.171>
VStem: 22 20<193.13 335.747> 365 20<582.033 686.716> 624 20<45.6362 511 531 683.993>
LayerCount: 2
Fore
SplineSet
813 25 m 1,0,1
 805.5 19.5 l 0,2,3
 798 14 798 14 785 9 c 128,-1,4
 772 4 772 4 754.5 -0.5 c 128,-1,5
 737 -5 737 -5 716 -5 c 0,6,7
 679 -5 679 -5 651.5 17.5 c 128,-1,8
 624 40 624 40 624 77 c 2,9,-1
 624 511 l 1,10,-1
 547 511 l 1,11,-1
 547 531 l 1,12,-1
 624 531 l 1,13,-1
 624 546 l 1,14,-1
 624 601 l 2,15,16
 624 632 624 632 620 659.5 c 128,-1,17
 616 687 616 687 603.5 707 c 128,-1,18
 591 727 591 727 566 739 c 128,-1,19
 541 751 541 751 498 751 c 0,20,21
 469 751 469 751 448 741.5 c 128,-1,22
 427 732 427 732 413 716 c 128,-1,23
 399 700 399 700 392 679 c 128,-1,24
 385 658 385 658 385 635 c 0,25,26
 385 607 385 607 397.5 575 c 128,-1,27
 410 543 410 543 425 513 c 128,-1,28
 440 483 440 483 455 458.5 c 128,-1,29
 470 434 470 434 476 421 c 1,30,-1
 457 414 l 1,31,32
 427 469 427 469 378 494 c 128,-1,33
 329 519 329 519 268 519 c 0,34,35
 214 519 214 519 172 496 c 128,-1,36
 130 473 130 473 101.5 436.5 c 128,-1,37
 73 400 73 400 57.5 354.5 c 128,-1,38
 42 309 42 309 42 264 c 0,39,40
 42 214 42 214 60.5 168.5 c 128,-1,41
 79 123 79 123 110.5 87.5 c 128,-1,42
 142 52 142 52 185 31 c 128,-1,43
 228 10 228 10 278 10 c 0,44,45
 303 10 303 10 332.5 18 c 128,-1,46
 362 26 362 26 389 40.5 c 128,-1,47
 416 55 416 55 437 75.5 c 128,-1,48
 458 96 458 96 464 122 c 1,49,-1
 484 116 l 1,50,51
 474 85 474 85 451.5 61.5 c 128,-1,52
 429 38 429 38 400 22 c 128,-1,53
 371 6 371 6 338.5 -2 c 128,-1,54
 306 -10 306 -10 278 -10 c 0,55,56
 223 -10 223 -10 175.5 13.5 c 128,-1,57
 128 37 128 37 93.5 76 c 128,-1,58
 59 115 59 115 40.5 164 c 128,-1,59
 22 213 22 213 22 264 c 0,60,61
 22 317 22 317 39.5 367 c 128,-1,62
 57 417 57 417 90 455.5 c 128,-1,63
 123 494 123 494 168.5 517 c 128,-1,64
 214 540 214 540 268 540 c 0,65,66
 319 540 319 540 356.5 527.5 c 128,-1,67
 394 515 394 515 421 493 c 1,68,69
 403 520 403 520 384 555.5 c 128,-1,70
 365 591 365 591 365 635 c 0,71,72
 365 663 365 663 373.5 687.5 c 128,-1,73
 382 712 382 712 399 731 c 128,-1,74
 416 750 416 750 440.5 760.5 c 128,-1,75
 465 771 465 771 498 771 c 0,76,77
 548 771 548 771 577 756 c 128,-1,78
 606 741 606 741 621.5 717 c 128,-1,79
 637 693 637 693 641 663.5 c 128,-1,80
 645 634 645 634 645 604 c 0,81,82
 645 590 645 590 644.5 576 c 128,-1,83
 644 562 644 562 644 549 c 2,84,-1
 644 531 l 1,85,-1
 772 531 l 1,86,-1
 772 511 l 1,87,-1
 644 511 l 1,88,-1
 644 77 l 1,89,90
 646 47 646 47 667.5 31 c 128,-1,91
 689 15 689 15 716 15 c 0,92,93
 733 15 733 15 748.5 19.5 c 128,-1,94
 764 24 764 24 775.5 28.5 c 128,-1,95
 787 33 787 33 794 37 c 128,-1,96
 801 41 801 41 802 41 c 2,97,-1
 813 25 l 1,0,1
EndSplineSet
Ligature2: "'dlig' Discretionary Ligatures in Latin lookup 7 subtable" c t
EndChar

StartChar: ff
Encoding: 65589 -1 255
Width: 532
Flags: W
HStem: 0 21G<99 120 311 332> 449 20<23 99 120 311 332 521> 696 21<196.812 314.34> 737 21<422.87 534.43>
VStem: 99 21<0 449 469 597.501> 311 21<0 449 469 626.419>
LayerCount: 2
Fore
SplineSet
477 737 m 0,0,1
 437 737 437 737 409.5 720 c 128,-1,2
 382 703 382 703 364.5 676.5 c 128,-1,3
 347 650 347 650 339.5 617.5 c 128,-1,4
 332 585 332 585 332 553 c 2,5,-1
 332 469 l 1,6,-1
 521 469 l 1,7,-1
 521 449 l 1,8,-1
 332 449 l 1,9,-1
 332 0 l 1,10,-1
 311 0 l 1,11,-1
 311 449 l 1,12,-1
 120 449 l 1,13,-1
 120 0 l 1,14,-1
 99 0 l 1,15,-1
 99 449 l 1,16,-1
 23 449 l 1,17,-1
 23 469 l 1,18,-1
 99 469 l 1,19,-1
 99 522 l 2,20,21
 99 556 99 556 107.5 591 c 128,-1,22
 116 626 116 626 133.5 654 c 128,-1,23
 151 682 151 682 178.5 699.5 c 128,-1,24
 206 717 206 717 245 717 c 0,25,26
 286 717 286 717 312 707.5 c 128,-1,27
 338 698 338 698 349 690 c 1,28,29
 368 720 368 720 399.5 739 c 128,-1,30
 431 758 431 758 477 758 c 0,31,32
 505 758 505 758 523 753 c 128,-1,33
 541 748 541 748 551 741.5 c 128,-1,34
 561 735 561 735 565 729.5 c 128,-1,35
 569 724 569 724 569 723 c 2,36,-1
 553 711 l 1,37,38
 548 715 548 715 543.5 720 c 128,-1,39
 539 725 539 725 530.5 728.5 c 128,-1,40
 522 732 522 732 509 734.5 c 128,-1,41
 496 737 496 737 477 737 c 0,0,1
311 553 m 2,42,43
 311 582 311 582 318 613 c 128,-1,44
 325 644 325 644 339 672 c 1,45,46
 321 687 321 687 293.5 691.5 c 128,-1,47
 266 696 266 696 245 696 c 0,48,49
 208 696 208 696 184 678 c 128,-1,50
 160 660 160 660 145.5 634 c 128,-1,51
 131 608 131 608 125.5 577.5 c 128,-1,52
 120 547 120 547 120 522 c 2,53,-1
 120 469 l 1,54,-1
 311 469 l 1,55,-1
 311 553 l 2,42,43
EndSplineSet
Ligature2: "'liga' Standard Ligatures in Latin lookup 6 subtable" f f
EndChar

